{"glyphs":{"0":{"ha":782,"x_min":0,"x_max":0,"o":"m 64 489 b 72 646 64 550 67 602 b 94 758 78 689 85 727 b 124 835 103 789 113 814 b 161 889 136 855 148 873 b 392 994 217 959 294 994 b 520 969 438 994 481 986 b 621 889 559 953 593 926 b 658 830 634 871 646 852 b 690 753 670 808 681 782 b 710 649 698 723 705 689 b 718 511 716 610 718 564 b 710 339 718 443 715 385 b 688 222 704 293 697 253 b 657 143 679 190 669 163 b 621 89 645 123 633 105 b 522 8 592 52 559 25 b 390 -17 484 -8 440 -17 b 265 7 346 -17 304 -9 b 161 89 225 23 191 50 b 124 145 148 106 136 124 b 94 222 113 166 103 192 b 72 333 85 253 78 290 b 64 489 67 376 64 428 z m 188 489 b 196 326 188 431 190 376 b 226 197 201 276 212 233 b 289 110 241 160 262 131 b 392 78 316 88 350 78 b 494 109 433 78 467 88 b 556 195 520 130 541 159 b 586 326 570 232 581 275 b 594 489 592 376 594 431 b 586 651 594 547 592 601 b 556 781 581 701 570 745 b 494 868 541 818 520 847 b 392 900 467 889 433 900 b 290 869 350 900 316 890 b 227 783 263 848 242 819 b 196 653 212 746 201 703 b 188 489 190 603 188 548 z "},"1":{"ha":782,"x_min":0,"x_max":0,"o":"m 521 903 l 521 76 b 520 48 521 68 521 59 b 513 17 520 37 517 27 b 494 -7 509 8 503 0 b 460 -17 486 -13 475 -17 b 425 -6 445 -17 433 -13 b 407 18 417 1 411 9 b 401 46 403 27 401 37 b 400 67 400 55 400 62 l 400 789 b 302 713 362 756 329 731 b 234 669 275 694 252 680 b 190 650 216 659 201 653 b 164 646 179 647 170 646 b 135 658 156 646 146 650 b 119 696 125 666 119 678 b 130 724 119 706 123 716 b 179 756 137 733 153 744 b 220 776 188 759 201 766 b 282 817 239 787 260 800 b 350 875 304 833 327 853 b 413 951 373 897 394 923 b 436 983 421 964 429 975 b 467 994 444 991 454 994 b 498 984 481 994 491 991 b 514 959 505 977 510 969 b 520 928 518 949 520 939 b 521 903 521 918 521 909 z "},"2":{"ha":782,"x_min":0,"x_max":0,"o":"m 215 110 l 628 110 b 663 109 639 110 650 109 b 695 103 675 109 685 106 b 719 87 705 99 713 94 b 729 56 726 80 729 69 b 720 24 729 42 726 31 b 697 7 714 16 706 11 b 665 1 687 3 676 1 b 629 0 653 0 641 0 l 147 0 b 83 16 118 0 96 5 b 64 61 70 27 64 42 b 113 178 64 94 80 133 b 247 318 145 222 190 269 b 319 377 271 338 295 358 b 390 435 342 396 366 415 b 490 522 431 468 464 497 b 551 592 516 547 536 570 b 581 653 565 613 575 633 b 589 714 586 672 589 693 b 572 794 589 744 583 771 b 528 853 561 818 547 837 b 467 888 510 869 490 880 b 396 900 444 896 420 900 b 335 892 375 900 355 897 b 277 866 314 886 295 878 b 229 822 259 854 243 840 b 199 757 215 803 205 782 b 177 697 192 733 185 713 b 132 674 169 681 154 674 b 117 676 128 674 123 674 b 100 684 111 677 106 680 b 86 701 94 688 90 694 b 81 728 82 708 81 717 b 99 813 81 754 87 782 b 156 900 112 844 131 873 b 253 967 182 927 214 949 b 394 994 293 985 340 994 b 517 978 442 994 482 989 b 603 938 551 968 580 954 b 660 881 627 921 646 902 b 694 819 675 860 686 840 b 709 760 702 798 707 778 b 713 717 711 742 713 728 b 692 608 713 677 706 641 b 633 513 678 575 658 543 b 544 424 608 483 578 453 b 429 331 509 395 471 364 b 324 244 385 295 350 266 b 265 185 299 221 279 202 b 233 144 250 169 240 156 b 215 110 227 133 221 122 z "},"3":{"ha":782,"x_min":0,"x_max":0,"o":"m 531 535 b 584 517 544 531 562 525 b 647 479 606 509 627 497 b 699 409 666 462 684 438 b 721 294 713 380 721 342 b 701 179 721 255 714 216 b 641 80 687 142 667 109 b 541 10 615 51 581 27 b 401 -17 501 -8 454 -17 b 313 -10 368 -17 338 -14 b 244 8 287 -5 264 1 b 194 35 225 16 208 25 b 157 67 181 45 168 56 b 93 162 130 95 109 127 b 69 250 77 197 69 226 b 85 283 69 261 75 272 b 125 299 95 293 108 299 b 163 282 143 299 155 293 b 181 242 170 271 176 257 b 201 191 185 227 192 210 b 239 138 211 172 223 154 b 298 95 255 121 274 107 b 383 78 322 84 350 78 b 474 97 417 78 447 84 b 541 145 500 109 523 125 b 583 213 559 165 573 188 b 597 292 592 239 597 265 b 586 359 597 314 594 336 b 552 421 579 382 567 402 b 494 466 537 439 517 454 b 408 483 470 478 442 483 b 392 482 406 483 400 483 b 367 480 384 481 376 480 b 343 478 359 479 350 479 b 328 476 336 477 331 476 b 288 492 309 476 296 481 b 275 524 279 502 275 513 b 283 552 275 536 278 545 b 303 567 289 559 295 564 b 325 574 310 571 318 573 b 342 575 332 575 338 575 b 394 577 360 575 378 576 b 451 593 410 578 429 584 b 527 656 486 607 511 628 b 551 742 543 684 551 713 b 541 798 551 760 548 779 b 510 850 534 817 524 834 b 458 889 496 866 478 879 b 383 904 437 899 412 904 b 319 893 359 904 338 900 b 270 865 301 886 284 876 b 233 826 256 853 244 840 b 208 783 223 811 215 797 b 192 747 202 769 196 756 b 178 724 187 737 183 729 b 164 713 174 718 169 714 b 143 710 158 711 151 710 b 117 715 133 710 124 712 b 101 729 110 719 105 724 b 94 747 98 735 95 741 b 92 761 92 753 92 757 b 106 819 92 774 96 794 b 154 897 115 845 131 871 b 246 965 177 923 208 946 b 389 994 284 985 331 994 b 509 974 433 994 473 988 b 599 919 545 961 575 943 b 656 839 624 896 643 869 b 675 742 669 808 675 776 b 660 659 675 709 670 682 b 622 601 650 636 637 617 b 574 560 606 584 590 571 b 531 535 557 550 543 541 z "},"4":{"ha":782,"x_min":0,"x_max":0,"o":"m 482 235 l 122 235 b 65 237 97 235 78 235 b 33 251 52 238 42 243 b 11 303 19 266 11 283 b 13 315 11 307 12 312 b 18 328 13 319 15 323 b 30 347 21 334 25 340 b 51 376 35 355 42 364 l 468 939 b 511 986 488 965 502 981 b 536 994 520 992 529 994 b 571 986 551 994 563 992 b 590 964 579 981 585 973 b 597 933 594 955 596 944 b 597 897 597 921 597 909 l 597 338 l 665 338 b 692 337 674 338 682 337 b 718 331 701 336 710 334 b 739 316 726 328 733 323 b 747 286 744 309 747 299 b 739 256 747 273 744 263 b 718 241 733 249 726 244 b 692 235 710 238 701 236 b 669 235 684 235 676 235 l 597 235 l 597 78 b 595 30 597 58 597 42 b 581 0 594 17 589 7 b 564 -12 576 -5 570 -9 b 540 -17 557 -15 550 -17 b 506 -8 525 -17 514 -14 b 489 15 498 -2 493 6 b 483 44 485 23 483 33 b 482 78 482 56 482 67 z m 136 338 l 482 338 l 482 807 z "},"5":{"ha":782,"x_min":0,"x_max":0,"o":"m 269 875 l 215 579 b 247 599 224 585 234 591 b 292 620 260 606 275 613 b 349 638 309 627 328 633 b 418 646 370 643 393 646 b 540 622 462 646 502 638 b 638 554 577 605 610 583 b 703 453 665 525 687 492 b 726 328 719 415 726 373 b 706 208 726 289 719 249 b 642 97 692 168 670 131 b 533 15 613 64 577 37 b 379 -17 490 -6 438 -17 b 310 -10 359 -17 336 -15 b 233 15 285 -6 259 2 b 158 69 207 27 182 45 b 92 163 133 92 111 124 b 78 193 87 172 83 182 b 72 225 74 204 72 215 b 90 269 72 246 78 261 b 126 282 102 278 114 282 b 165 267 144 282 157 277 b 185 232 172 256 179 245 b 210 180 191 215 200 198 b 249 130 220 162 233 145 b 306 92 264 115 284 102 b 389 78 329 83 356 78 b 485 100 426 78 458 85 b 552 158 513 115 535 134 b 590 236 569 181 582 207 b 603 319 599 265 603 293 b 585 419 603 356 597 390 b 540 492 574 448 559 472 b 474 536 521 511 499 526 b 394 551 449 546 422 551 b 326 543 369 551 346 549 b 274 522 307 538 289 530 b 230 492 258 513 243 503 b 192 457 216 481 204 469 b 176 445 189 454 184 450 b 147 438 169 440 159 438 b 108 453 132 438 119 443 b 92 490 97 464 92 476 b 93 504 92 495 92 500 b 97 531 94 509 95 518 l 164 897 b 176 944 168 917 172 932 b 194 969 181 955 187 964 b 224 980 202 975 212 978 b 268 982 236 981 250 982 l 614 982 b 641 981 622 982 631 982 b 669 976 651 981 660 979 b 690 960 678 972 685 967 b 699 929 696 952 699 942 b 690 898 699 915 696 905 b 669 882 685 891 678 886 b 642 876 661 878 652 876 b 615 875 633 875 624 875 z "},"6":{"ha":782,"x_min":0,"x_max":0,"o":"m 181 501 b 209 535 187 510 197 521 b 258 578 222 550 238 564 b 332 616 279 593 303 605 b 432 632 361 627 394 632 b 553 607 476 632 517 624 b 645 539 589 590 620 568 b 704 439 671 510 690 477 b 725 319 718 401 725 361 b 703 197 725 278 718 237 b 641 89 689 156 668 120 b 540 13 614 57 580 32 b 401 -17 499 -7 453 -17 b 296 -1 362 -17 326 -11 b 216 40 265 10 239 23 b 160 92 193 56 175 73 b 124 144 145 111 133 129 b 101 188 116 156 109 171 b 81 250 94 204 87 225 b 65 340 74 275 69 305 b 58 464 60 374 58 416 b 63 574 58 501 60 538 b 78 683 65 611 71 647 b 112 785 86 718 97 753 b 167 878 126 818 144 849 b 233 940 187 904 209 924 b 304 975 257 955 281 967 b 369 991 327 983 349 989 b 419 994 390 993 406 994 b 560 965 478 994 525 984 b 643 897 596 945 624 922 b 682 825 663 872 675 848 b 692 779 688 802 692 787 b 678 747 692 769 687 758 b 638 729 669 735 655 729 b 595 747 617 729 603 735 b 578 781 587 759 581 770 b 560 819 573 792 567 804 b 532 859 553 833 544 847 b 486 890 520 872 505 882 b 418 903 468 899 445 903 b 369 897 403 903 387 901 b 316 874 352 892 334 885 b 264 827 298 863 281 847 b 221 750 247 807 233 781 b 203 689 213 731 207 711 b 192 622 198 667 194 644 b 185 556 189 599 187 577 b 181 501 183 535 181 517 z m 407 78 b 487 97 437 78 463 84 b 547 149 510 110 531 127 b 586 224 564 170 577 195 b 600 315 595 252 600 283 b 585 410 600 351 595 383 b 543 480 575 438 561 461 b 481 523 525 499 505 513 b 407 538 458 533 433 538 b 343 527 388 538 367 534 b 275 491 319 520 296 508 b 221 424 254 474 236 451 b 199 319 206 396 199 361 b 213 230 199 289 203 259 b 255 153 223 201 237 175 b 320 99 273 131 295 113 b 407 78 346 85 375 78 z "},"7":{"ha":782,"x_min":0,"x_max":0,"o":"m 563 876 l 128 876 b 107 877 122 876 115 877 b 83 883 99 878 91 880 b 62 900 75 887 68 893 b 53 932 56 907 53 918 b 60 960 53 944 55 953 b 77 976 64 967 70 972 b 101 981 84 979 92 981 b 128 982 111 982 119 982 l 597 982 b 640 981 612 982 626 982 b 674 975 653 981 665 979 b 697 958 684 971 692 966 b 706 925 703 950 706 939 b 704 910 706 919 705 914 b 697 894 703 905 701 900 b 679 870 692 888 687 880 b 650 832 672 860 662 848 b 504 617 590 757 541 685 b 414 418 467 548 437 482 b 362 232 391 354 373 292 b 332 53 350 172 340 112 b 328 34 331 48 330 42 b 319 11 327 26 324 19 b 301 -8 315 4 309 -3 b 269 -17 293 -14 282 -17 b 235 -8 255 -17 243 -14 b 216 13 226 -2 220 5 b 208 38 212 21 209 29 b 207 57 207 46 207 52 b 215 147 207 85 209 115 b 235 245 220 180 226 212 b 263 342 243 278 253 310 b 296 431 274 373 285 403 b 410 660 327 513 365 590 b 563 876 454 731 505 803 z "},"8":{"ha":782,"x_min":0,"x_max":0,"o":"m 544 535 b 590 515 555 531 570 525 b 649 474 609 506 629 492 b 700 400 668 455 685 431 b 722 286 715 369 722 331 b 701 173 722 247 715 209 b 638 76 686 136 665 104 b 534 8 610 47 575 25 b 390 -17 493 -8 445 -17 b 243 10 334 -17 285 -8 b 140 78 201 27 167 50 b 80 176 113 107 93 139 b 60 288 66 212 60 250 b 81 401 60 333 67 371 b 132 474 96 431 113 455 b 191 515 151 492 171 506 b 238 535 211 523 226 530 b 200 553 228 538 216 545 b 153 590 184 562 169 575 b 113 649 138 606 125 626 b 96 736 102 673 96 702 b 115 830 96 768 102 799 b 170 913 127 861 146 888 b 262 972 195 937 225 956 b 388 994 298 987 340 994 b 524 969 441 994 487 986 b 616 907 562 953 592 932 b 667 824 640 882 657 854 b 683 736 678 793 683 764 b 667 649 683 702 678 673 b 627 590 656 625 642 605 b 581 553 612 574 596 562 b 544 535 565 545 553 538 z m 389 483 b 309 471 361 483 334 479 b 242 433 284 463 261 450 b 197 371 223 417 208 396 b 181 282 186 346 181 316 b 199 190 181 247 187 216 b 246 126 211 164 226 143 b 313 88 265 109 288 96 b 390 75 338 79 363 75 b 467 88 416 75 442 79 b 535 126 493 96 516 109 b 583 190 555 143 571 164 b 601 282 595 216 601 247 b 541 431 601 347 581 397 b 389 483 501 466 450 483 z m 389 906 b 319 892 364 906 341 901 b 263 855 297 882 278 870 b 227 801 248 840 236 822 b 214 735 218 780 214 758 b 227 669 214 711 218 689 b 265 619 236 650 248 633 b 321 587 281 606 300 595 b 390 575 342 579 365 575 b 515 619 440 575 482 590 b 565 735 549 649 565 688 b 555 793 565 753 562 773 b 523 849 548 813 537 832 b 468 890 509 865 490 879 b 389 906 446 900 419 906 z "},"9":{"ha":782,"x_min":0,"x_max":0,"o":"m 597 476 b 569 442 591 468 581 457 b 519 399 556 428 540 414 b 446 362 499 385 475 372 b 346 346 417 351 384 346 b 225 371 301 346 261 354 b 133 439 189 388 158 410 b 74 539 107 468 88 501 b 53 658 60 577 53 617 b 74 781 53 700 60 741 b 137 889 89 822 109 857 b 238 965 164 920 198 946 b 376 994 278 985 325 994 b 482 978 416 994 451 989 b 562 938 513 968 539 954 b 618 885 584 922 603 904 b 654 833 633 866 645 849 b 676 790 661 821 668 807 b 697 728 684 774 691 753 b 713 638 704 703 709 673 b 719 514 717 603 719 562 b 715 403 719 477 718 440 b 699 295 713 367 707 331 b 666 192 691 259 680 225 b 611 100 652 159 633 129 b 544 38 591 74 569 53 b 474 3 520 23 497 11 b 408 -13 450 -6 429 -11 b 358 -17 388 -16 371 -17 b 217 13 300 -17 253 -7 b 135 81 182 33 154 56 b 96 153 115 106 102 130 b 86 199 89 176 86 191 b 100 231 86 209 91 220 b 140 249 109 243 123 249 b 183 231 161 249 175 243 b 200 197 191 219 196 207 b 217 159 204 186 209 173 b 246 119 224 145 234 131 b 292 88 258 106 273 96 b 360 75 310 79 333 75 b 408 81 375 75 391 77 b 462 104 426 85 444 93 b 513 151 480 115 497 131 b 557 228 529 171 544 196 b 575 289 564 246 570 267 b 586 356 580 311 583 334 b 593 422 589 379 591 401 b 597 476 595 442 596 461 z m 371 900 b 291 881 341 900 315 894 b 231 829 267 868 247 850 b 192 753 214 808 201 783 b 178 663 182 724 178 694 b 193 567 178 626 183 595 b 235 498 203 540 217 517 b 297 455 252 479 273 465 b 371 440 320 445 345 440 b 435 451 389 440 411 444 b 503 487 459 458 481 470 b 557 554 524 504 542 526 b 579 658 572 582 579 617 b 565 748 579 689 574 719 b 523 825 555 777 541 803 b 458 879 505 847 483 865 b 371 900 432 893 403 900 z "}," ":{"ha":392,"x_min":0,"x_max":0,"o":""},"!":{"ha":463,"x_min":0,"x_max":0,"o":"m 185 361 l 164 765 b 163 805 164 774 164 787 b 163 861 163 823 163 842 l 163 917 b 165 954 163 934 163 947 b 177 983 168 966 172 976 b 194 1001 182 991 188 997 b 214 1009 201 1005 207 1008 b 231 1011 220 1010 226 1011 b 248 1009 235 1011 241 1010 b 268 1001 255 1008 262 1005 b 285 983 275 997 280 991 b 297 954 291 976 294 966 b 299 917 298 947 299 934 b 300 860 300 899 300 880 b 299 803 300 839 300 820 b 299 765 299 785 299 773 l 278 361 b 275 329 277 350 276 339 b 269 302 274 319 272 310 b 256 283 267 294 262 288 b 232 275 250 278 242 275 b 193 302 211 275 198 284 b 185 361 188 320 186 340 z m 231 136 b 285 114 252 136 270 129 b 307 60 300 99 307 81 b 285 6 307 38 300 20 b 231 -17 270 -9 252 -17 b 176 6 209 -17 191 -9 b 154 60 162 20 154 38 b 176 114 154 81 162 99 b 231 136 191 129 209 136 z "},"\"":{"ha":492,"x_min":0,"x_max":0,"o":"m 97 642 l 64 832 l 64 994 l 203 994 l 203 832 l 172 642 z m 322 642 l 289 832 l 289 994 l 428 994 l 428 832 l 396 642 z "},"#":{"ha":767,"x_min":0,"x_max":0,"o":"m 129 272 l 82 272 b 56 273 73 272 64 272 b 34 278 47 273 40 275 b 19 292 28 281 23 285 b 14 319 16 298 14 307 b 19 349 14 332 16 342 b 32 365 22 356 26 361 b 53 370 38 368 44 370 b 82 371 61 371 71 371 l 149 371 l 200 621 l 82 621 b 56 622 73 621 64 621 b 34 626 47 622 40 624 b 19 640 28 629 23 634 b 14 667 16 646 14 655 b 32 713 14 693 20 708 b 82 719 44 717 61 719 l 219 719 l 267 951 b 282 998 271 974 276 989 b 324 1011 288 1007 301 1011 b 361 998 342 1011 355 1007 b 371 972 368 989 371 981 b 369 959 371 968 370 963 b 365 936 369 955 367 947 l 322 719 l 535 719 l 582 951 b 597 998 587 974 592 989 b 640 1011 603 1007 617 1011 b 678 998 659 1011 671 1007 b 688 972 684 989 688 981 b 685 959 688 968 687 963 b 681 936 684 955 682 947 l 638 719 l 688 719 b 735 714 706 719 722 718 b 756 674 749 710 756 697 b 738 627 756 647 750 631 b 688 621 725 623 709 621 l 617 621 l 567 371 l 688 371 b 735 366 706 371 722 369 b 756 326 749 363 756 350 b 738 279 756 300 750 284 b 688 272 725 275 709 272 l 546 272 l 500 42 b 485 -3 495 20 490 5 b 442 -17 479 -12 465 -17 b 404 -3 423 -17 411 -12 b 394 22 398 5 394 14 b 395 35 394 27 395 31 b 400 58 396 38 397 46 l 444 272 l 231 272 l 183 42 b 169 -3 179 20 174 5 b 126 -17 164 -12 150 -17 b 89 -3 108 -17 95 -12 b 79 22 82 5 79 14 b 80 35 79 27 79 31 b 85 58 80 38 82 46 z m 301 621 l 251 371 l 464 371 l 515 621 z "},"$":{"ha":782,"x_min":0,"x_max":0,"o":"m 425 913 l 425 564 b 467 551 434 561 448 557 b 526 530 485 545 505 538 b 587 503 547 522 567 513 b 638 469 607 493 624 481 b 699 384 664 445 685 417 b 719 278 713 351 719 316 b 718 247 719 272 719 262 b 708 194 717 231 714 214 b 681 130 702 174 693 153 b 630 66 669 107 652 86 b 547 14 608 46 581 29 b 425 -15 514 -1 473 -11 l 425 -181 b 416 -244 425 -214 422 -235 b 390 -257 410 -253 401 -257 b 358 -237 372 -257 361 -250 b 354 -178 356 -223 354 -204 l 354 -17 b 210 21 297 -13 249 0 b 117 96 171 42 140 67 b 67 183 94 125 77 154 b 53 257 58 213 53 238 b 72 299 53 275 59 289 b 111 315 84 310 97 315 b 154 297 132 315 147 309 b 169 264 162 284 167 273 b 194 197 177 240 185 217 b 229 142 204 176 215 157 b 281 101 243 126 260 113 b 354 79 301 90 325 83 l 354 465 b 319 475 345 468 333 471 b 275 489 306 479 291 483 b 228 507 259 494 244 500 b 185 528 212 513 198 520 b 127 576 161 542 141 558 b 94 633 113 595 102 614 b 78 691 86 653 81 672 b 74 740 75 710 74 726 b 107 874 74 794 85 839 b 179 954 129 910 153 937 b 278 998 213 977 246 992 b 354 1010 309 1004 335 1008 l 354 1082 b 360 1115 354 1090 356 1101 b 390 1135 363 1128 374 1135 b 410 1128 399 1135 405 1133 b 421 1114 416 1124 419 1119 b 424 1097 423 1108 424 1103 b 425 1083 425 1091 425 1086 l 425 1010 b 467 1003 437 1008 451 1006 b 518 990 484 1001 500 997 b 572 963 536 984 553 975 b 624 918 590 952 607 937 b 669 848 642 897 657 873 b 686 782 680 822 686 800 b 672 747 686 772 681 760 b 628 728 662 734 647 728 b 588 744 609 728 596 733 b 569 779 580 756 574 767 b 549 824 563 794 556 809 b 521 865 541 838 532 852 b 481 896 510 877 497 888 b 425 913 466 904 447 910 z m 353 583 l 354 915 b 310 909 343 915 328 913 b 255 885 291 905 273 897 b 208 833 237 873 221 856 b 188 747 194 811 188 782 b 203 678 188 719 193 696 b 242 632 213 659 226 644 b 294 603 257 620 275 610 b 353 583 314 595 333 589 z m 425 446 l 425 76 b 530 116 470 84 505 97 b 583 176 554 135 572 155 b 603 233 594 197 601 216 b 606 265 605 250 606 261 b 589 342 606 296 600 321 b 546 392 578 362 563 379 b 488 424 528 405 509 415 b 425 446 466 432 445 439 z "},"%":{"ha":1157,"x_min":0,"x_max":0,"o":"m 31 739 b 33 804 31 754 31 775 b 55 890 35 833 42 862 b 115 965 67 919 87 944 b 231 997 142 987 181 997 b 330 975 270 997 303 990 b 392 917 356 960 377 941 b 423 838 406 894 417 867 b 432 750 429 809 432 780 b 428 677 432 731 431 707 b 406 588 426 647 419 617 b 347 513 394 559 374 534 b 231 481 319 491 281 481 b 115 513 181 481 142 491 b 55 588 87 534 67 559 b 33 674 42 616 35 645 b 31 739 31 702 31 724 z m 725 250 b 728 315 725 265 726 287 b 749 401 730 344 737 373 b 809 476 762 430 782 455 b 925 508 836 498 875 508 b 1024 486 965 508 998 501 b 1086 428 1051 471 1071 452 b 1117 349 1101 405 1111 378 b 1126 261 1123 320 1126 291 b 1123 188 1126 243 1125 218 b 1101 99 1121 158 1113 128 b 1041 24 1088 70 1068 45 b 925 -8 1014 2 975 -8 b 809 24 875 -8 836 2 b 749 99 782 45 762 70 b 728 185 737 127 730 156 b 725 250 726 213 725 235 z m 119 739 b 143 597 119 679 127 631 b 232 546 159 563 188 546 b 287 560 254 546 272 550 b 321 599 301 569 313 582 b 338 662 329 616 335 637 b 343 746 341 686 343 714 b 319 885 343 808 335 854 b 232 932 303 916 274 932 b 143 881 188 932 159 915 b 119 739 127 847 119 800 z m 814 250 b 838 108 814 190 822 143 b 926 57 853 74 883 57 b 981 71 949 57 967 62 b 1015 110 996 80 1007 93 b 1033 173 1024 128 1029 148 b 1038 257 1036 197 1038 225 b 1013 397 1038 319 1029 366 b 926 443 997 428 968 443 b 838 392 883 443 853 426 b 814 250 822 359 814 311 z m 228 32 l 858 964 b 885 999 869 980 878 991 b 910 1010 891 1006 900 1010 b 935 998 920 1010 928 1006 b 946 974 942 990 946 982 b 937 949 946 967 943 959 b 919 922 931 938 925 930 l 292 -6 b 267 -33 281 -21 273 -30 b 250 -36 260 -35 255 -36 b 223 -24 239 -36 230 -32 b 213 -4 216 -16 213 -10 b 228 32 213 7 218 19 z "},"&":{"ha":969,"x_min":0,"x_max":0,"o":"m 769 224 b 803 190 783 210 794 198 b 828 165 811 181 820 172 b 858 138 837 157 847 148 b 900 101 868 128 882 116 b 928 72 913 89 922 80 b 936 44 933 65 936 56 b 916 -1 936 24 929 9 b 878 -17 903 -12 890 -17 b 866 -16 874 -17 870 -16 b 849 -10 862 -16 856 -13 b 822 8 842 -6 833 0 b 781 43 811 17 797 28 b 726 94 756 64 738 81 l 696 124 b 651 75 683 108 668 92 b 590 30 634 58 613 43 b 510 -3 567 16 541 5 b 407 -17 480 -12 446 -17 b 259 11 350 -17 300 -7 b 157 81 218 30 184 53 b 97 175 130 109 110 141 b 78 274 84 209 78 242 b 100 378 78 313 85 348 b 156 458 115 409 134 435 b 231 518 179 480 204 500 b 311 565 259 536 285 551 b 234 681 279 607 253 646 b 206 786 215 717 206 752 b 220 865 206 812 210 838 b 265 937 230 891 245 915 b 342 990 286 959 311 976 b 451 1011 373 1004 410 1011 b 564 988 496 1011 533 1003 b 638 932 594 973 619 954 b 679 860 657 910 671 886 b 692 792 688 835 692 812 b 633 653 692 739 672 693 b 483 546 594 614 544 578 b 562 450 516 506 542 474 b 613 390 582 426 599 406 b 649 349 626 375 639 361 b 686 308 660 337 672 323 b 699 337 689 314 693 323 b 719 380 705 350 712 365 b 738 423 726 395 732 409 b 751 451 744 436 749 446 b 800 488 764 475 781 488 b 840 472 816 488 829 482 b 857 432 851 461 857 448 b 847 385 857 420 853 404 b 822 324 840 365 831 345 b 792 265 812 303 802 284 b 769 224 783 247 775 233 z m 374 486 b 311 449 352 474 331 462 b 257 405 291 436 273 421 b 219 352 241 389 228 371 b 204 286 209 333 204 311 b 219 213 204 261 209 237 b 260 147 228 188 242 167 b 324 100 278 128 300 112 b 406 82 349 88 376 82 b 483 97 434 82 460 87 b 542 131 505 106 525 118 b 586 172 559 144 574 157 b 614 206 598 186 607 197 b 555 269 597 223 578 244 b 487 347 532 294 509 320 b 422 424 464 373 443 399 b 374 486 402 449 386 469 z m 419 622 b 480 658 441 634 461 646 b 530 697 499 670 516 683 b 564 742 544 711 556 726 b 576 796 572 759 576 776 b 542 881 576 828 565 856 b 453 917 520 905 490 917 b 401 906 434 917 417 913 b 361 879 386 899 372 890 b 335 841 350 868 341 855 b 326 797 329 827 326 812 b 338 742 326 779 330 760 b 361 700 346 724 354 710 b 372 686 363 698 367 694 b 390 662 378 679 384 671 b 408 638 397 653 403 645 b 419 622 414 630 418 625 z "},"'":{"ha":261,"x_min":0,"x_max":0,"o":"m 92 642 l 61 828 l 61 994 l 200 994 l 200 828 l 168 642 z "},"(":{"ha":478,"x_min":0,"x_max":0,"o":"m 101 360 b 108 475 101 395 103 433 b 134 610 112 517 121 562 b 192 766 147 659 167 711 b 292 942 217 821 250 880 b 322 981 303 958 313 971 b 345 1001 330 990 338 997 b 364 1010 352 1006 358 1009 b 379 1011 369 1011 375 1011 b 394 1010 381 1011 386 1011 b 407 999 403 1009 407 1005 b 405 989 407 995 406 992 b 393 967 403 986 400 979 b 317 806 365 914 340 860 b 258 639 295 752 275 696 b 229 493 244 589 234 540 b 222 360 225 446 222 401 b 226 256 222 329 224 295 b 247 126 229 218 236 175 b 297 -35 258 78 275 24 b 386 -236 318 -95 348 -162 b 396 -253 388 -239 391 -245 b 404 -271 400 -262 403 -268 b 407 -279 406 -274 407 -276 b 401 -287 407 -282 405 -285 b 382 -292 398 -290 391 -292 b 363 -290 375 -292 369 -291 b 340 -278 356 -289 348 -285 b 309 -246 331 -272 321 -261 b 267 -182 297 -231 283 -210 b 200 -61 243 -142 220 -102 b 148 65 180 -20 162 22 b 114 203 134 109 122 155 b 101 360 106 252 101 304 z "},")":{"ha":478,"x_min":0,"x_max":0,"o":"m 376 360 b 370 244 376 325 374 286 b 344 109 366 203 357 158 b 286 -47 330 60 311 9 b 186 -222 261 -102 228 -160 b 133 -281 164 -255 146 -274 b 99 -292 119 -288 108 -292 b 83 -290 97 -292 92 -291 b 71 -279 75 -289 71 -286 b 73 -269 71 -275 72 -272 b 85 -247 74 -267 78 -259 b 160 -87 113 -194 138 -141 b 219 81 183 -33 203 23 b 249 226 234 131 244 179 b 256 360 253 274 256 318 b 251 463 256 390 254 425 b 231 593 249 502 242 545 b 181 755 219 641 203 695 b 92 956 159 815 130 881 b 82 973 90 958 87 964 b 74 990 77 982 75 988 b 71 999 72 993 71 996 b 76 1007 71 1001 73 1004 b 96 1011 80 1010 87 1011 b 115 1010 102 1011 109 1011 b 138 998 122 1009 129 1005 b 169 965 147 991 157 980 b 211 901 180 950 194 929 b 278 781 235 862 257 821 b 330 654 298 740 316 698 b 364 516 344 611 356 565 b 376 360 372 467 376 415 z "},"*":{"ha":564,"x_min":0,"x_max":0,"o":"m 325 992 l 313 828 b 334 838 316 830 323 833 b 368 853 345 842 356 847 b 401 869 380 858 391 864 b 424 879 412 874 419 877 b 448 890 426 881 434 884 b 485 897 461 895 474 897 b 510 888 491 897 500 894 b 525 854 520 881 525 870 b 519 832 525 846 523 838 b 494 813 516 825 507 819 b 437 794 481 807 462 801 b 332 772 411 788 376 781 b 398 699 360 742 382 717 b 435 656 414 681 426 667 b 451 632 443 646 448 638 b 454 617 453 626 454 621 b 441 586 454 605 450 594 b 410 574 432 578 422 574 b 392 578 405 574 399 575 b 361 610 384 581 374 591 b 310 688 340 640 323 666 b 282 738 298 709 288 725 b 238 663 263 706 249 681 b 213 619 228 644 219 630 b 197 597 206 609 201 602 b 186 583 194 591 190 587 b 176 577 184 581 181 579 b 160 574 171 575 165 574 b 126 588 145 574 134 578 b 114 615 118 598 114 607 b 128 648 114 624 119 634 b 161 691 137 661 148 676 b 201 736 174 706 187 721 b 235 772 214 751 225 763 b 215 776 231 773 225 775 b 185 783 206 778 196 780 b 156 789 175 785 165 787 b 138 793 147 791 141 792 b 58 820 97 801 70 810 b 39 854 45 830 39 841 b 53 887 39 869 44 880 b 79 897 63 894 72 897 b 94 896 84 897 89 897 b 119 888 99 895 107 892 b 167 867 130 883 147 876 b 253 828 188 857 217 844 b 249 865 252 837 250 849 b 244 913 247 880 245 896 b 240 960 242 929 241 945 b 238 994 238 975 238 986 b 250 1027 238 1007 242 1018 b 282 1040 258 1036 269 1040 b 310 1030 291 1040 301 1037 b 325 992 320 1023 325 1010 z "},"+":{"ha":810,"x_min":0,"x_max":0,"o":"m 349 161 l 349 433 l 76 433 l 76 547 l 349 547 l 349 819 l 463 819 l 463 547 l 735 547 l 735 433 l 463 433 l 463 161 z "},",":{"ha":333,"x_min":0,"x_max":0,"o":"m 167 -17 b 108 7 142 -16 122 -8 b 86 60 93 22 86 39 b 110 117 86 83 94 102 b 167 139 127 131 145 139 b 230 108 194 139 216 128 b 251 25 244 87 251 59 b 241 -54 251 -3 248 -29 b 214 -119 234 -79 225 -101 b 176 -164 203 -138 190 -153 b 135 -181 163 -175 149 -181 b 112 -169 125 -181 118 -177 b 103 -146 106 -162 103 -154 b 109 -126 103 -137 105 -131 b 131 -104 113 -121 120 -113 b 138 -96 131 -103 134 -100 b 149 -78 141 -91 145 -85 b 161 -51 153 -70 157 -62 b 167 -17 165 -41 167 -30 z "},"-":{"ha":463,"x_min":0,"x_max":0,"o":"m 125 404 l 338 404 b 370 403 348 404 359 404 b 401 397 382 403 392 401 b 424 380 411 394 418 388 b 433 347 430 372 433 361 b 424 315 433 333 430 322 b 401 297 418 307 411 301 b 371 291 392 294 382 291 b 338 290 360 291 349 290 l 125 290 b 92 291 115 290 104 291 b 61 297 81 291 70 294 b 38 315 52 301 44 307 b 29 347 32 322 29 333 b 38 380 29 361 32 372 b 61 397 44 388 52 394 b 92 403 70 401 81 403 b 125 404 103 404 114 404 z "},".":{"ha":333,"x_min":0,"x_max":0,"o":"m 167 136 b 221 114 188 136 206 129 b 243 60 236 99 243 81 b 221 6 243 38 236 20 b 167 -17 206 -9 188 -17 b 113 6 145 -17 127 -9 b 90 60 98 20 90 38 b 113 114 90 81 98 99 b 167 136 127 129 145 136 z "},"/":{"ha":390,"x_min":0,"x_max":0,"o":"m 24 61 l 275 956 b 283 983 278 967 281 976 b 293 999 286 990 289 995 b 308 1008 297 1003 302 1006 b 335 1011 315 1010 324 1011 b 362 1001 344 1011 353 1008 b 375 972 371 994 375 984 b 373 958 375 968 374 963 b 367 933 372 954 369 945 l 115 39 b 107 11 113 28 110 19 b 97 -6 104 4 101 -2 b 82 -15 94 -10 88 -13 b 56 -17 75 -16 67 -17 b 28 -7 46 -17 37 -13 b 15 21 20 0 15 9 b 17 35 15 25 16 30 b 24 61 19 41 21 49 z "},":":{"ha":333,"x_min":0,"x_max":0,"o":"m 167 736 b 221 714 188 736 206 729 b 243 660 236 699 243 681 b 221 606 243 638 236 620 b 167 583 206 591 188 583 b 113 606 145 583 127 591 b 90 660 98 620 90 638 b 113 714 90 681 98 699 b 167 736 127 729 145 736 z m 167 136 b 221 114 188 136 206 129 b 243 60 236 99 243 81 b 221 6 243 38 236 20 b 167 -17 206 -9 188 -17 b 113 6 145 -17 127 -9 b 90 60 98 20 90 38 b 113 114 90 81 98 99 b 167 136 127 129 145 136 z "},";":{"ha":333,"x_min":0,"x_max":0,"o":"m 165 736 b 219 714 187 736 205 729 b 242 660 234 699 242 681 b 219 606 242 638 234 620 b 165 583 205 591 187 583 b 111 606 144 583 126 591 b 89 660 96 620 89 638 b 111 714 89 681 96 699 b 165 736 126 729 144 736 z m 167 -17 b 108 7 142 -16 122 -8 b 86 60 93 22 86 39 b 110 117 86 83 94 102 b 167 139 127 131 145 139 b 230 108 194 139 216 128 b 251 25 244 87 251 59 b 241 -54 251 -3 248 -29 b 214 -119 234 -79 225 -101 b 176 -164 203 -138 190 -153 b 135 -181 163 -175 149 -181 b 112 -169 125 -181 118 -177 b 103 -146 106 -162 103 -154 b 109 -126 103 -137 105 -131 b 131 -104 113 -121 120 -113 b 138 -96 131 -103 134 -100 b 149 -78 141 -91 145 -85 b 161 -51 153 -70 157 -62 b 167 -17 165 -41 167 -30 z "},"<":{"ha":810,"x_min":0,"x_max":0,"o":"m 76 546 l 735 826 l 735 706 l 214 489 l 735 275 l 735 154 l 76 432 z "},"=":{"ha":810,"x_min":0,"x_max":0,"o":"m 735 585 l 76 585 l 76 699 l 735 699 z m 735 283 l 76 283 l 76 397 l 735 397 z "},">":{"ha":810,"x_min":0,"x_max":0,"o":"m 735 435 l 76 154 l 76 275 l 597 492 l 76 706 l 76 826 l 735 549 z "},"?":{"ha":738,"x_min":0,"x_max":0,"o":"m 67 754 b 82 816 67 767 72 788 b 134 902 92 844 109 873 b 231 978 159 931 191 957 b 383 1011 272 1000 322 1011 b 514 988 433 1011 477 1003 b 606 926 551 972 582 951 b 660 840 631 900 649 872 b 678 746 672 809 678 777 b 644 622 678 700 666 658 b 540 501 621 586 587 546 b 475 436 513 475 491 453 b 439 390 459 419 447 404 b 422 348 431 376 425 362 b 414 292 419 334 417 315 b 412 278 414 289 413 284 b 403 259 410 271 408 265 b 386 243 399 253 394 248 b 357 236 379 238 369 236 b 323 245 342 236 331 239 b 306 267 315 251 309 258 b 299 291 302 275 300 283 b 299 308 299 299 299 305 b 307 385 299 337 301 363 b 332 447 313 407 321 428 b 373 503 343 467 357 485 b 431 560 389 522 408 540 b 483 608 450 577 467 594 b 521 651 498 623 511 638 b 544 694 531 665 539 680 b 551 744 549 709 551 726 b 539 806 551 766 547 786 b 503 859 531 826 519 844 b 447 895 487 874 468 886 b 375 908 425 904 401 908 b 292 890 342 908 314 902 b 239 846 271 877 253 863 b 208 794 225 829 215 812 b 193 750 201 776 196 761 b 174 711 188 738 182 725 b 129 690 166 697 151 690 b 88 706 115 690 101 696 b 67 754 74 717 67 733 z m 369 136 b 424 114 391 136 409 129 b 446 60 438 99 446 81 b 424 6 446 38 438 20 b 369 -17 409 -9 391 -17 b 315 6 348 -17 330 -9 b 293 60 300 20 293 38 b 315 114 293 81 300 99 b 369 136 330 129 348 136 z "},"@":{"ha":1403,"x_min":0,"x_max":0,"o":"m 890 610 l 914 715 l 1035 715 l 938 260 b 931 230 936 250 933 241 b 924 199 928 219 925 209 b 919 171 922 188 920 179 b 917 154 917 163 917 157 b 933 120 917 138 922 127 b 964 110 944 113 955 110 b 1036 135 982 110 1006 118 b 1123 210 1066 153 1095 177 b 1196 328 1151 242 1175 281 b 1226 485 1216 374 1226 426 b 1188 659 1226 549 1214 607 b 1084 794 1163 711 1128 756 b 930 881 1040 831 989 860 b 740 911 871 901 808 911 b 504 864 652 911 574 895 b 326 737 435 832 375 790 b 214 551 277 684 240 622 b 175 328 188 480 175 406 b 226 78 175 228 192 144 b 361 -83 261 11 306 -42 b 549 -168 417 -123 479 -151 b 760 -193 619 -185 689 -193 b 953 -171 834 -193 898 -186 b 1092 -117 1007 -156 1054 -138 b 1184 -49 1130 -95 1160 -73 b 1238 13 1208 -26 1225 -5 l 1360 13 b 1317 -56 1348 -12 1333 -34 b 1253 -122 1300 -78 1279 -100 b 1018 -256 1178 -187 1100 -232 b 761 -293 937 -281 851 -293 b 448 -243 639 -293 534 -276 b 235 -108 361 -210 290 -165 b 113 86 179 -52 139 13 b 75 317 88 159 75 236 b 90 461 75 361 80 409 b 136 616 99 513 115 565 b 219 765 157 667 185 717 b 345 891 254 812 296 854 b 519 978 395 928 453 957 b 746 1011 585 1000 661 1011 b 1000 965 843 1011 928 996 b 1181 843 1072 934 1133 893 b 1290 674 1230 793 1266 737 b 1326 482 1314 611 1326 547 b 1302 326 1326 425 1318 372 b 1241 201 1286 279 1266 237 b 1163 107 1216 164 1190 133 b 1086 46 1135 81 1109 61 b 1009 10 1063 31 1037 19 b 918 -4 981 0 950 -4 b 848 8 888 -4 865 0 b 810 36 831 16 818 25 b 793 73 801 47 796 59 b 788 110 790 86 788 99 b 755 76 779 100 768 89 b 708 40 741 63 726 51 b 649 10 691 28 671 18 b 579 -3 628 1 604 -3 b 481 21 544 -3 511 5 b 403 86 451 37 425 58 b 352 183 382 114 365 146 b 333 301 340 220 333 260 b 362 455 333 352 343 403 b 438 594 381 506 406 553 b 550 694 470 635 507 669 b 685 733 593 720 638 733 b 723 731 694 733 707 732 b 775 715 739 729 756 724 b 833 678 794 707 813 694 b 890 610 854 661 873 638 z m 458 293 b 472 206 458 260 463 231 b 506 144 480 181 492 160 b 553 109 521 129 536 117 b 604 97 571 101 588 97 b 694 125 635 97 665 106 b 773 199 723 144 749 168 b 830 308 797 230 816 266 b 851 439 844 349 851 393 b 839 524 851 471 847 500 b 804 585 831 549 819 569 b 753 622 789 602 772 614 b 694 633 734 629 715 633 b 592 597 656 633 621 621 b 517 507 562 572 537 542 b 473 396 497 472 483 435 b 458 293 463 357 458 323 z "},"A":{"ha":956,"x_min":0,"x_max":0,"o":"m 696 288 l 253 288 l 167 65 b 138 4 156 38 147 18 b 90 -17 129 -10 113 -17 b 44 2 72 -17 56 -10 b 26 42 32 15 26 28 b 31 72 26 52 28 62 b 46 111 34 82 39 95 l 361 893 b 382 944 369 913 375 930 b 403 981 388 959 396 972 b 431 1003 411 991 421 998 b 471 1011 442 1009 455 1011 b 508 1003 484 1011 496 1009 b 538 983 520 998 530 992 b 560 945 545 976 553 963 b 582 894 568 927 575 910 l 908 117 b 924 75 916 99 921 85 b 929 44 928 65 929 55 b 911 4 929 31 923 18 b 863 -17 899 -10 883 -17 b 815 5 839 -17 823 -9 b 785 68 806 19 796 40 z m 290 394 l 656 394 l 469 860 z "},"B":{"ha":956,"x_min":0,"x_max":0,"o":"m 538 0 l 228 0 b 168 3 203 0 183 1 b 135 19 153 6 142 11 b 120 52 127 27 122 38 b 117 111 118 66 117 86 l 117 883 b 120 943 117 908 118 928 b 135 976 122 958 127 969 b 168 991 142 984 153 989 b 228 994 183 993 203 994 l 514 994 b 596 991 546 994 574 993 b 652 981 618 989 637 985 b 690 968 667 977 680 973 b 715 954 699 963 708 959 b 803 865 753 932 782 902 b 833 743 823 828 833 788 b 831 708 833 737 833 725 b 815 650 830 691 825 671 b 772 584 806 629 792 607 b 689 525 753 561 725 542 b 742 504 703 520 721 513 b 806 463 764 495 785 481 b 858 392 826 445 844 421 b 881 281 873 362 881 325 b 847 144 881 232 869 187 b 750 46 824 102 792 69 b 663 13 726 33 697 22 b 538 0 629 4 588 0 z m 528 461 l 250 461 l 250 107 l 528 107 b 594 112 554 107 576 109 b 641 124 613 115 628 119 b 671 140 653 129 663 135 b 690 156 678 146 685 151 b 728 208 705 169 718 186 b 744 286 739 231 744 256 b 696 407 744 337 728 377 b 610 451 670 430 641 445 b 528 461 579 458 552 461 z m 250 888 l 250 568 l 504 568 b 585 577 531 568 558 571 b 654 614 613 583 636 595 b 692 667 672 631 684 649 b 703 729 699 685 703 706 b 676 822 703 770 694 801 b 611 869 658 844 636 859 b 533 885 586 878 560 884 b 465 888 505 887 483 888 z "},"C":{"ha":1013,"x_min":0,"x_max":0,"o":"m 940 310 b 919 223 940 288 933 259 b 851 115 904 186 882 150 b 729 22 820 79 779 48 b 547 -17 679 -4 619 -17 b 462 -11 519 -17 491 -15 b 375 8 433 -7 404 -1 b 292 44 346 16 319 28 b 218 101 265 59 240 78 b 113 279 172 150 137 209 b 76 497 88 350 76 422 b 111 709 76 575 88 646 b 208 871 134 772 166 826 b 354 974 249 915 298 950 b 540 1011 411 999 473 1011 b 670 993 588 1011 632 1005 b 772 948 709 981 742 966 b 846 887 801 930 825 909 b 895 822 866 864 883 842 b 923 765 908 801 917 782 b 932 726 929 747 932 735 b 919 688 932 713 928 700 b 878 668 910 675 896 668 b 851 676 868 668 859 671 b 828 695 843 681 835 687 b 810 722 822 703 815 712 b 794 750 804 731 799 741 b 747 816 781 774 766 796 b 688 865 729 836 709 852 b 631 892 673 875 654 883 b 546 904 609 900 580 904 b 435 885 511 904 474 898 b 327 820 396 873 360 851 b 245 694 294 789 267 747 b 213 492 223 641 213 573 b 244 292 213 410 223 344 b 324 169 266 240 292 199 b 429 107 356 139 391 118 b 535 90 467 96 502 90 b 715 147 607 90 667 109 b 824 308 763 185 800 239 b 842 347 828 321 834 334 b 883 365 850 359 864 365 b 922 351 896 365 909 361 b 940 310 934 342 940 328 z "},"D":{"ha":1013,"x_min":0,"x_max":0,"o":"m 474 0 l 231 0 b 167 4 204 0 183 1 b 133 22 152 7 141 13 b 120 61 126 31 122 44 b 118 128 119 78 118 100 l 118 883 b 122 943 118 908 119 928 b 137 976 124 958 129 969 b 171 991 145 984 156 989 b 231 994 186 993 206 994 l 472 994 b 558 992 499 994 528 994 b 649 976 588 990 618 985 b 742 937 680 968 711 955 b 828 861 772 919 801 894 b 914 692 869 811 898 755 b 938 499 930 629 938 564 b 931 392 938 466 935 431 b 905 276 926 353 917 314 b 852 165 892 237 875 200 b 763 72 829 129 800 98 b 688 33 738 56 714 42 b 612 10 663 23 637 16 b 538 1 586 5 562 2 b 474 0 515 0 493 0 z m 251 888 l 251 107 l 456 107 b 541 111 487 107 516 108 b 610 126 566 114 590 119 b 669 156 631 134 651 144 b 721 206 687 169 704 185 b 767 287 741 230 757 257 b 791 374 778 317 786 346 b 800 449 796 403 799 428 b 801 492 801 471 801 485 b 777 668 801 558 793 617 b 721 786 761 719 742 758 b 674 835 706 806 691 822 b 618 866 658 848 639 858 b 545 883 597 874 572 879 b 449 888 518 886 486 888 z "},"E":{"ha":882,"x_min":0,"x_max":0,"o":"m 254 888 l 254 568 l 679 568 b 710 567 689 568 700 568 b 739 562 721 567 731 565 b 760 546 747 559 754 553 b 768 515 765 538 768 528 b 760 484 768 501 765 491 b 739 468 754 477 747 472 b 710 462 731 464 721 462 b 679 461 700 461 689 461 l 254 461 l 254 107 l 736 107 b 767 106 746 107 757 107 b 797 101 778 106 788 104 b 819 85 806 97 814 92 b 828 54 825 78 828 68 b 819 22 828 40 825 30 b 798 6 814 15 807 9 b 768 1 789 3 779 1 b 736 0 757 0 746 0 l 232 0 l 194 0 b 172 2 185 0 178 1 b 156 8 166 3 160 6 b 140 19 151 11 146 15 b 123 51 130 29 124 39 b 121 111 122 63 121 83 l 121 883 b 122 939 121 907 121 926 b 139 974 123 952 129 963 b 170 992 148 984 159 990 b 232 994 182 994 202 994 l 717 994 b 748 994 727 994 737 994 b 778 988 759 993 769 991 b 800 973 787 985 794 980 b 808 942 806 966 808 956 b 800 910 808 928 806 917 b 778 894 794 902 787 897 b 749 888 770 891 760 889 b 717 888 738 888 727 888 z "},"F":{"ha":796,"x_min":0,"x_max":0,"o":"m 250 888 l 250 563 l 593 563 b 623 562 602 563 612 562 b 652 556 634 561 643 559 b 674 540 661 553 668 548 b 682 510 679 533 682 523 b 674 478 682 496 679 485 b 653 463 668 472 661 466 b 624 456 644 459 635 457 b 593 456 614 456 603 456 l 250 456 l 250 93 b 247 37 250 69 249 50 b 232 4 245 23 240 13 b 211 -10 226 -1 219 -6 b 183 -17 203 -15 194 -17 b 133 3 165 -17 148 -10 b 119 37 125 12 120 23 b 117 93 117 50 117 69 l 117 883 b 120 943 117 908 118 928 b 135 976 122 958 127 969 b 168 991 142 984 153 989 b 228 994 183 993 203 994 l 663 994 b 694 994 673 994 683 994 b 723 988 704 993 714 991 b 744 973 732 985 739 980 b 753 942 750 966 753 956 b 744 910 753 928 750 917 b 723 894 739 902 732 897 b 694 888 714 891 704 889 b 663 888 683 888 673 888 z "},"G":{"ha":1085,"x_min":0,"x_max":0,"o":"m 872 183 l 872 399 l 654 399 b 621 399 643 399 632 399 b 591 405 610 400 600 402 b 569 421 582 408 575 413 b 561 451 564 428 561 438 b 569 483 561 465 564 476 b 590 499 575 490 582 495 b 615 505 597 502 606 504 b 640 506 625 505 633 506 l 890 506 b 943 502 912 506 929 504 b 976 488 957 500 968 495 b 994 459 985 481 991 472 b 999 410 997 447 999 430 l 999 192 b 994 142 999 171 997 155 b 965 104 992 129 982 116 b 935 83 964 103 954 96 b 854 42 915 70 888 56 b 733 1 820 27 780 13 b 581 -17 687 -11 636 -17 b 353 24 493 -17 417 -3 b 195 135 289 52 236 88 b 103 297 154 181 123 235 b 74 493 84 359 74 425 b 103 688 74 561 83 626 b 193 853 122 751 152 806 b 349 968 234 901 286 939 b 576 1011 413 997 488 1011 b 776 975 658 1011 724 999 b 897 892 827 951 867 923 b 956 801 926 860 946 830 b 972 742 967 772 972 752 b 958 701 972 727 967 713 b 907 683 948 689 931 683 b 876 695 896 683 885 687 b 842 743 866 703 855 719 b 809 794 833 759 822 776 b 757 847 796 813 778 830 b 678 888 736 863 709 876 b 565 904 647 899 610 904 b 412 874 507 904 456 894 b 301 789 368 853 331 825 b 233 661 271 753 248 710 b 210 501 217 612 210 559 b 214 424 210 477 211 452 b 231 342 217 397 222 369 b 265 259 239 314 250 286 b 319 185 279 232 297 207 b 443 111 355 150 396 125 b 581 90 490 97 536 90 b 728 113 631 90 680 98 b 872 183 776 127 824 151 z "},"H":{"ha":1013,"x_min":0,"x_max":0,"o":"m 246 575 l 767 575 l 767 903 b 770 958 767 927 768 945 b 786 990 772 971 778 982 b 806 1004 791 995 797 1000 b 835 1011 814 1009 824 1011 b 883 990 853 1011 869 1004 b 898 958 892 982 897 971 b 900 903 899 944 900 926 l 900 92 b 898 36 900 68 899 49 b 883 4 897 23 892 13 b 864 -10 879 0 872 -5 b 835 -17 856 -14 846 -17 b 786 3 817 -17 801 -10 b 770 37 778 12 772 23 b 767 92 768 50 767 69 l 767 468 l 246 468 l 246 93 b 243 37 246 69 245 50 b 226 4 241 23 236 13 b 208 -10 222 0 216 -5 b 178 -17 200 -14 190 -17 b 129 3 160 -17 144 -10 b 115 37 121 12 116 23 b 113 93 113 50 113 69 l 113 901 b 115 958 113 925 113 944 b 129 990 116 971 121 982 b 149 1004 134 995 140 1000 b 178 1011 157 1009 167 1011 b 226 990 197 1011 213 1004 b 243 958 236 982 241 971 b 246 901 245 944 246 925 z "},"I":{"ha":406,"x_min":0,"x_max":0,"o":"m 269 901 l 269 93 b 267 37 269 69 269 50 b 251 4 266 23 261 13 b 232 -10 247 0 240 -5 b 203 -17 224 -14 214 -17 b 177 -12 194 -17 186 -15 b 154 3 168 -9 161 -4 b 138 37 145 12 140 23 b 136 93 137 50 136 69 l 136 901 b 138 958 136 925 137 944 b 154 990 140 971 145 982 b 173 1004 159 995 165 1000 b 203 1011 181 1009 191 1011 b 228 1006 211 1011 220 1009 b 251 990 237 1003 245 998 b 267 957 261 982 266 971 b 269 901 269 943 269 925 z "},"J":{"ha":738,"x_min":0,"x_max":0,"o":"m 483 303 l 483 901 b 486 957 483 924 484 942 b 503 992 488 972 494 983 b 522 1005 507 996 514 1001 b 550 1011 529 1009 539 1011 b 597 992 569 1011 584 1005 b 615 957 607 983 613 972 b 617 901 616 942 617 924 l 617 313 b 612 219 617 288 615 256 b 580 111 609 182 598 146 b 493 21 562 76 533 46 b 324 -17 453 -4 397 -17 b 198 1 273 -17 231 -11 b 114 56 165 13 137 31 b 78 103 100 69 88 85 b 55 159 69 122 61 140 b 41 215 49 178 44 197 b 36 265 38 234 36 250 b 44 302 36 281 39 293 b 62 322 49 311 55 318 b 83 331 69 327 76 330 b 99 332 90 331 95 332 b 126 326 110 332 119 330 b 143 310 133 323 138 317 b 154 280 148 302 151 292 l 164 236 b 174 201 166 229 169 217 b 197 152 178 184 186 168 b 244 109 208 136 224 122 b 322 90 264 97 290 90 b 377 99 343 90 361 93 b 419 121 393 104 407 112 b 449 153 431 130 441 141 b 468 189 457 165 463 177 b 481 246 475 207 480 226 b 483 303 483 265 483 284 z "},"K":{"ha":969,"x_min":0,"x_max":0,"o":"m 254 499 l 746 969 b 784 1003 763 987 776 998 b 815 1011 792 1009 802 1011 b 860 992 834 1011 849 1005 b 876 954 871 980 876 967 b 871 929 876 947 875 938 b 838 888 867 920 856 906 l 518 593 l 874 128 b 899 92 879 120 888 109 b 915 44 910 76 915 60 b 895 0 915 26 909 11 b 847 -17 882 -11 866 -17 b 824 -13 838 -17 830 -16 b 804 -1 817 -11 811 -7 b 784 20 798 4 791 11 b 758 54 777 29 769 40 l 428 508 l 254 347 l 254 64 b 248 24 254 47 252 34 b 232 -1 244 13 238 5 b 210 -13 225 -7 218 -11 b 189 -17 203 -16 195 -17 b 138 4 169 -17 151 -10 b 123 38 129 13 124 24 b 121 93 122 53 121 71 l 121 901 b 123 957 121 924 122 942 b 140 992 124 972 130 983 b 159 1005 145 996 151 1001 b 188 1011 167 1009 176 1011 b 235 992 206 1011 222 1005 b 252 957 245 983 251 972 b 254 901 253 942 254 924 z "},"L":{"ha":796,"x_min":0,"x_max":0,"o":"m 250 107 l 671 107 b 703 106 681 107 692 107 b 733 101 714 106 724 104 b 755 85 741 97 749 92 b 764 53 761 77 764 67 b 756 21 764 39 761 28 b 733 6 750 13 743 8 b 703 1 724 3 714 1 b 671 0 693 0 682 0 l 228 0 b 168 3 203 0 183 1 b 135 18 153 6 142 11 b 120 51 127 25 122 37 b 117 111 118 66 117 86 l 117 901 b 119 958 117 925 117 944 b 133 990 120 971 125 982 b 153 1004 138 995 144 1000 b 182 1011 161 1009 171 1011 b 232 990 202 1011 219 1004 b 248 957 241 982 247 971 b 250 901 249 943 250 925 z "},"M":{"ha":1100,"x_min":0,"x_max":0,"o":"m 75 81 l 75 883 b 85 947 75 911 78 932 b 112 980 92 962 101 973 b 145 992 122 987 134 991 b 175 994 157 994 167 994 b 226 993 196 994 213 994 b 259 983 239 992 250 989 b 281 958 268 978 275 969 b 301 908 287 946 294 930 l 508 290 b 533 217 517 266 525 242 b 557 143 542 192 550 167 b 567 178 561 157 564 169 b 578 208 571 187 574 197 b 590 245 581 218 586 231 b 610 303 595 259 601 279 l 815 904 b 834 956 823 926 829 944 b 853 982 839 968 845 976 b 881 992 860 988 870 991 b 931 994 893 994 909 994 b 983 989 953 994 970 993 b 1012 971 996 985 1006 979 b 1023 937 1018 963 1022 951 b 1025 883 1024 922 1025 905 l 1025 68 b 1024 47 1025 63 1025 56 b 1016 19 1023 38 1020 28 b 997 -6 1012 9 1006 1 b 961 -17 989 -13 977 -17 b 924 -6 945 -17 933 -13 b 905 17 916 1 909 9 b 898 44 901 26 898 35 b 897 63 897 53 897 59 l 897 832 l 639 89 b 620 38 631 69 625 52 b 603 6 615 25 609 14 b 583 -12 597 -3 591 -9 b 553 -17 575 -15 565 -17 b 521 -13 540 -17 529 -16 b 499 1 513 -11 505 -6 b 480 33 492 9 486 19 b 458 89 474 47 467 66 l 203 846 l 203 82 b 202 52 203 74 203 64 b 195 19 202 41 199 30 b 176 -6 191 9 184 1 b 139 -17 167 -13 155 -17 b 103 -8 124 -17 112 -14 b 84 15 95 -2 88 6 b 76 47 80 25 77 35 b 75 81 75 58 75 69 z "},"N":{"ha":1013,"x_min":0,"x_max":0,"o":"m 776 197 l 772 904 b 772 951 771 925 771 941 b 781 979 773 960 776 970 b 801 1001 784 987 791 994 b 835 1011 810 1008 822 1011 b 882 992 853 1011 869 1005 b 898 959 891 983 897 972 b 900 904 899 946 900 927 l 900 118 b 897 44 900 84 899 59 b 872 3 894 28 886 15 b 818 -17 856 -10 838 -17 b 790 -12 807 -17 798 -15 b 769 1 783 -10 776 -5 b 747 26 762 8 755 16 b 721 64 740 37 731 49 l 236 788 l 242 90 b 241 43 242 68 241 52 b 233 15 241 34 238 25 b 213 -6 230 8 223 1 b 178 -17 202 -13 191 -17 b 131 3 159 -17 144 -10 b 115 35 121 11 116 22 b 113 90 113 49 113 67 l 113 882 b 113 924 113 899 113 913 b 116 953 114 936 115 946 b 124 974 117 961 120 968 b 139 992 127 980 132 986 b 156 1003 142 994 147 998 b 192 1011 164 1009 176 1011 b 239 994 212 1011 228 1005 b 283 933 250 982 265 962 z "},"O":{"ha":1085,"x_min":0,"x_max":0,"o":"m 1014 497 b 989 312 1014 435 1006 373 b 908 147 972 250 945 195 b 763 28 870 98 822 59 b 547 -17 703 -2 631 -17 b 377 8 482 -17 426 -9 b 251 72 328 24 287 45 b 164 165 216 99 187 130 b 108 275 141 200 122 237 b 79 390 94 313 85 351 b 71 497 74 428 71 464 b 92 668 71 551 78 608 b 168 835 107 728 132 784 b 313 961 204 886 253 928 b 544 1011 374 994 451 1011 b 768 963 633 1011 708 995 b 913 840 828 931 876 890 b 990 674 949 790 975 735 b 1014 497 1006 614 1014 555 z m 878 497 b 861 643 878 553 872 601 b 817 751 850 685 835 721 b 753 826 798 781 777 806 b 681 873 730 846 706 861 b 607 897 656 884 631 893 b 542 904 583 902 561 904 b 411 876 494 904 450 895 b 310 804 372 857 338 833 b 258 733 288 784 271 760 b 227 647 245 705 235 677 b 211 559 219 618 214 588 b 207 481 208 530 207 504 b 233 317 207 419 216 365 b 306 194 251 269 275 228 b 413 117 336 161 372 135 b 542 90 453 99 496 90 b 607 97 561 90 583 93 b 681 122 631 102 656 110 b 753 169 706 133 730 149 b 817 244 777 189 798 214 b 861 351 835 274 850 310 b 878 497 872 393 878 442 z "},"P":{"ha":882,"x_min":0,"x_max":0,"o":"m 254 408 l 254 93 b 253 51 254 77 254 63 b 244 17 252 38 249 27 b 223 -6 241 9 234 2 b 188 -17 212 -13 200 -17 b 138 4 168 -17 151 -10 b 123 39 129 13 124 24 b 121 93 122 54 121 72 l 121 883 b 125 947 121 910 122 931 b 142 980 128 962 134 973 b 180 992 151 987 164 991 b 243 994 196 994 217 994 l 481 994 b 603 984 522 994 563 991 b 714 936 644 977 681 961 b 792 839 747 911 773 879 b 819 706 810 799 819 755 b 812 634 819 682 817 659 b 788 563 807 609 799 586 b 745 501 776 541 762 520 b 685 454 728 482 708 466 b 657 441 677 450 668 446 b 616 426 646 436 632 431 b 558 413 600 421 581 416 b 481 408 536 410 510 408 z m 446 888 l 254 888 l 254 515 l 446 515 b 515 519 464 515 487 517 b 593 542 542 522 568 530 b 657 599 618 555 639 574 b 683 703 675 624 683 658 b 672 774 683 727 679 751 b 635 836 664 798 651 819 b 593 865 623 848 609 858 b 544 881 577 872 561 877 b 492 887 527 884 509 886 b 446 888 475 887 460 888 z "},"Q":{"ha":1085,"x_min":0,"x_max":0,"o":"m 875 108 b 903 88 885 101 895 94 b 930 71 912 82 921 76 b 958 54 939 65 948 60 b 990 36 967 49 978 43 b 1039 4 1014 23 1031 13 b 1051 -25 1047 -4 1051 -14 b 1037 -58 1051 -38 1047 -49 b 1006 -72 1027 -68 1017 -72 b 964 -61 994 -72 981 -69 b 910 -33 947 -54 929 -44 b 850 3 890 -22 870 -10 b 792 43 830 17 810 30 b 758 26 783 38 772 33 b 705 6 743 19 726 12 b 633 -10 684 0 660 -5 b 540 -17 605 -14 575 -17 b 320 30 453 -17 380 -1 b 175 150 260 61 212 101 b 95 315 138 199 111 254 b 71 497 79 376 71 437 b 92 668 71 551 78 608 b 167 835 107 728 132 784 b 312 961 203 886 251 928 b 542 1011 372 994 449 1011 b 711 986 606 1011 663 1003 b 836 920 759 969 801 947 b 923 826 871 893 900 861 b 977 715 946 790 964 753 b 1006 600 991 676 1000 638 b 1014 494 1011 562 1014 527 b 1008 398 1014 463 1012 431 b 985 299 1003 365 996 332 b 943 201 975 266 961 234 b 875 108 925 169 903 138 z m 768 181 b 853 327 809 222 837 271 b 878 499 870 383 878 440 b 844 697 878 578 866 644 b 758 821 821 749 793 790 b 649 885 724 851 688 873 b 542 904 610 898 574 904 b 485 899 527 904 508 902 b 414 877 463 895 439 888 b 340 833 389 866 364 852 b 274 758 315 814 293 789 b 226 648 254 728 238 691 b 207 494 213 605 207 554 b 242 297 207 415 219 349 b 328 172 265 244 294 203 b 437 108 362 142 398 120 b 540 90 475 96 510 90 b 593 94 548 90 565 92 b 690 126 621 97 653 108 b 672 140 683 132 677 137 b 652 153 666 144 660 148 b 622 169 644 157 634 163 b 572 194 609 176 593 184 b 547 210 566 197 557 203 b 532 239 537 218 532 228 b 543 269 532 249 536 259 b 572 285 550 280 560 285 b 612 275 582 285 596 281 b 664 250 628 269 645 260 b 719 217 682 240 701 229 b 768 181 737 205 753 193 z "},"R":{"ha":956,"x_min":0,"x_max":0,"o":"m 253 446 l 253 94 b 251 51 253 74 252 59 b 247 26 250 42 249 34 b 222 -6 243 12 234 1 b 185 -17 209 -13 197 -17 b 148 -5 172 -17 159 -13 b 124 26 136 3 128 13 b 120 56 122 33 121 43 b 119 94 120 70 119 82 l 119 883 b 123 943 119 908 121 928 b 138 976 125 958 130 969 b 171 991 145 984 156 989 b 231 994 186 993 206 994 l 549 994 b 576 994 552 994 562 994 b 627 990 591 993 608 992 b 687 978 646 987 666 983 b 743 954 708 972 726 964 b 837 858 783 930 814 898 b 871 724 859 819 871 774 b 841 599 871 674 861 632 b 781 526 821 565 801 541 b 683 476 747 501 715 485 b 606 458 652 468 626 462 b 654 427 619 451 635 441 b 711 371 674 414 693 395 b 745 326 721 358 733 343 b 769 292 758 309 766 297 l 860 140 b 884 98 870 123 878 109 b 898 72 890 87 895 78 b 904 55 901 65 903 59 b 906 40 905 51 906 46 b 887 -3 906 22 899 7 b 844 -18 874 -13 860 -18 b 818 -14 834 -18 825 -17 b 797 1 811 -11 803 -6 b 775 28 790 8 782 17 b 747 72 768 40 758 55 l 653 222 b 565 348 619 276 589 318 b 497 415 540 378 517 400 b 435 441 476 429 455 438 b 369 446 416 444 394 446 z m 489 892 l 253 892 l 253 553 l 485 553 b 550 556 500 553 522 554 b 633 574 578 557 605 564 b 704 625 660 585 684 602 b 735 725 725 648 735 681 b 671 854 735 779 713 822 b 631 876 660 863 646 871 b 582 887 615 881 599 884 b 532 891 565 889 549 891 b 489 892 515 891 501 892 z "},"S":{"ha":882,"x_min":0,"x_max":0,"o":"m 814 288 b 790 169 814 246 806 206 b 721 72 775 132 751 100 b 606 6 690 44 652 22 b 447 -18 560 -10 507 -18 b 374 -14 423 -18 399 -17 b 299 1 349 -11 324 -6 b 226 31 274 9 250 19 b 164 79 203 44 182 60 b 99 177 136 108 114 141 b 75 276 83 214 75 247 b 92 316 75 291 81 304 b 133 333 103 328 117 333 b 173 314 152 333 165 327 b 203 246 181 301 191 278 b 221 201 206 235 213 220 b 260 147 229 183 242 165 b 329 102 277 130 300 115 b 439 83 358 90 394 83 b 529 95 469 83 500 87 b 608 131 559 103 585 115 b 665 189 631 146 650 166 b 686 269 679 212 686 239 b 665 349 686 302 679 328 b 612 400 650 370 633 387 b 547 429 591 413 569 423 b 486 444 524 436 504 441 b 372 471 440 455 402 463 b 294 492 341 478 316 485 b 240 515 273 499 255 507 b 194 544 224 522 209 532 b 165 571 186 551 176 560 b 135 612 154 582 144 596 b 111 667 125 628 118 647 b 101 739 105 688 101 712 b 129 858 101 784 111 824 b 203 944 148 893 172 921 b 312 994 234 966 271 983 b 440 1011 353 1006 396 1011 b 522 1005 466 1011 493 1009 b 605 983 550 1001 578 994 b 682 940 632 973 658 959 b 743 869 706 922 726 898 b 766 818 752 854 760 837 b 775 767 772 800 775 782 b 759 723 775 752 770 737 b 715 701 748 709 734 701 b 671 723 694 701 679 709 b 650 768 663 737 656 752 b 626 822 643 788 635 806 b 582 869 618 838 603 854 b 517 899 564 882 543 892 b 436 910 492 906 465 910 b 349 897 404 910 375 905 b 284 862 324 888 302 876 b 243 812 266 847 252 831 b 229 753 234 793 229 773 b 250 680 229 723 236 699 b 303 633 264 661 281 645 b 374 603 324 620 348 610 b 450 583 401 595 426 589 b 554 556 491 573 525 564 b 628 533 583 548 608 541 b 682 508 649 525 667 517 b 724 482 697 500 711 491 b 763 441 738 471 752 457 b 792 390 775 425 784 408 b 808 337 799 373 805 355 b 814 288 812 319 814 302 z "},"T":{"ha":810,"x_min":0,"x_max":0,"o":"m 471 888 l 471 93 b 469 38 471 71 470 52 b 453 3 467 23 462 11 b 433 -10 448 -2 442 -6 b 404 -17 425 -15 415 -17 b 357 3 386 -17 370 -10 b 340 37 347 11 341 22 b 338 93 338 51 338 70 l 338 888 l 113 888 b 64 890 92 888 76 888 b 35 903 52 891 42 895 b 22 919 30 907 26 913 b 17 940 19 926 17 933 b 22 960 17 947 18 953 b 33 978 25 967 29 973 b 63 992 41 986 51 991 b 113 994 76 994 92 994 l 697 994 b 746 992 718 994 734 994 b 775 978 758 991 768 986 b 788 961 780 973 784 968 b 793 940 791 955 793 948 b 788 920 793 934 791 927 b 775 903 784 913 780 907 b 746 890 768 895 758 891 b 697 888 734 888 718 888 z "},"U":{"ha":1013,"x_min":0,"x_max":0,"o":"m 246 900 l 246 372 b 250 292 246 351 247 324 b 278 199 253 260 262 229 b 356 122 295 169 321 144 b 508 90 392 101 443 90 b 647 118 567 90 613 100 b 725 188 681 137 707 160 b 759 280 743 216 754 247 b 767 371 764 313 767 343 l 767 900 b 769 956 767 924 767 943 b 785 990 770 970 775 981 b 804 1004 789 995 796 1000 b 833 1011 813 1009 822 1011 b 882 990 853 1011 869 1004 b 898 956 891 981 897 970 b 900 900 899 943 900 924 l 900 383 b 883 235 900 332 894 283 b 824 108 872 188 853 145 b 708 17 796 70 757 40 b 518 -17 658 -5 595 -17 b 342 4 451 -17 393 -10 b 216 72 292 18 250 41 b 139 196 182 104 156 145 b 113 382 121 247 113 309 l 113 900 b 115 956 113 924 113 943 b 131 990 116 970 121 981 b 150 1004 135 995 142 1000 b 179 1011 158 1009 168 1011 b 228 990 199 1011 215 1004 b 244 956 237 981 242 970 b 246 900 245 943 246 924 z "},"V":{"ha":882,"x_min":0,"x_max":0,"o":"m 440 142 l 719 929 b 747 990 729 956 738 976 b 793 1011 755 1004 771 1011 b 838 993 811 1011 825 1005 b 856 954 850 981 856 968 b 852 927 856 944 854 935 b 838 888 850 919 845 906 l 546 100 b 526 50 538 81 532 65 b 506 13 520 35 513 23 b 478 -9 498 3 489 -4 b 439 -17 468 -14 455 -17 b 399 -10 423 -17 410 -14 b 372 12 389 -5 379 2 b 351 49 364 22 357 34 b 331 100 345 63 338 81 l 46 881 b 31 922 38 899 33 913 b 26 950 28 931 26 941 b 44 991 26 964 32 978 b 92 1011 56 1004 72 1011 b 141 988 116 1011 132 1003 b 169 925 150 973 159 952 z "},"W":{"ha":1258,"x_min":0,"x_max":0,"o":"m 921 190 l 1099 919 b 1119 985 1104 945 1111 967 b 1169 1011 1128 1002 1144 1011 b 1217 992 1191 1011 1207 1005 b 1233 953 1228 979 1233 966 b 1228 917 1233 943 1232 931 b 1222 890 1225 904 1223 895 l 1015 96 b 1002 50 1011 79 1006 64 b 986 15 998 36 993 24 b 962 -8 980 5 972 -3 b 925 -17 952 -14 940 -17 b 887 -9 909 -17 897 -14 b 863 13 877 -4 869 3 b 846 47 856 22 850 33 b 832 93 841 61 837 76 l 629 840 l 426 93 b 413 48 422 76 417 61 b 396 13 408 34 402 23 b 372 -9 389 3 381 -4 b 333 -17 362 -14 349 -17 b 296 -9 318 -17 305 -14 b 272 13 287 -4 279 3 b 256 49 266 23 260 35 b 243 96 252 63 248 78 l 36 890 b 30 917 35 894 33 903 b 25 953 27 931 25 943 b 42 992 25 966 31 979 b 88 1011 53 1005 68 1011 b 139 985 113 1011 131 1003 b 160 919 147 968 154 946 l 338 190 l 528 893 b 540 938 531 910 535 925 b 556 970 544 950 549 961 b 583 991 563 979 572 986 b 624 999 593 996 607 999 b 671 992 643 999 659 997 b 699 974 683 988 692 982 b 717 941 706 965 712 954 b 731 893 721 928 726 912 z "},"X":{"ha":839,"x_min":0,"x_max":0,"o":"m 350 519 l 107 876 b 99 888 105 878 102 882 b 88 908 95 894 91 901 b 77 932 84 916 80 924 b 72 954 74 940 72 948 b 89 994 72 969 78 982 b 135 1011 100 1005 115 1011 b 175 994 152 1011 166 1006 b 215 938 184 983 198 964 l 424 617 l 656 946 b 695 997 673 971 686 988 b 732 1011 704 1006 716 1011 b 767 1001 742 1011 754 1008 b 788 960 781 994 788 980 b 783 936 788 953 786 945 b 753 886 779 927 769 910 l 501 528 l 772 122 b 795 83 780 110 787 97 b 807 43 803 68 807 55 b 790 1 807 27 801 13 b 742 -17 778 -11 762 -17 b 720 -13 733 -17 726 -16 b 702 0 714 -11 708 -6 b 682 25 696 6 689 15 b 656 64 675 35 666 48 l 424 419 l 165 49 b 127 -2 149 25 136 8 b 88 -17 118 -12 105 -17 b 45 -1 70 -17 56 -11 b 29 42 34 10 29 24 b 36 71 29 51 31 61 b 65 118 41 81 50 97 z "},"Y":{"ha":854,"x_min":0,"x_max":0,"o":"m 356 426 l 69 871 b 38 927 52 899 41 917 b 33 950 35 937 33 944 b 50 992 33 965 39 979 b 99 1011 61 1005 77 1011 b 120 1008 107 1011 114 1010 b 138 996 126 1005 132 1001 b 155 974 143 990 149 983 b 178 938 161 964 169 952 l 426 544 l 682 942 b 705 976 691 956 699 967 b 722 998 711 986 717 993 b 739 1008 728 1003 733 1006 b 760 1011 744 1010 751 1011 b 803 994 776 1011 791 1006 b 821 953 815 983 821 969 b 811 917 821 941 818 929 b 786 878 805 906 796 893 l 489 426 l 489 93 b 487 38 489 71 488 52 b 469 3 485 23 480 11 b 422 -17 456 -10 441 -17 b 374 3 405 -17 388 -10 b 358 38 364 11 359 23 b 356 93 356 52 356 71 z "},"Z":{"ha":868,"x_min":0,"x_max":0,"o":"m 647 888 l 158 888 b 127 888 148 888 138 888 b 99 894 116 889 107 891 b 78 910 90 897 83 902 b 69 940 72 917 69 927 b 78 972 69 954 72 965 b 99 988 83 978 90 984 b 127 994 107 991 116 993 b 158 994 138 994 148 994 l 715 994 b 745 993 724 994 734 994 b 778 985 757 992 768 990 b 803 965 788 981 797 974 b 814 924 810 955 814 941 b 805 888 814 910 811 898 b 776 847 799 877 789 864 l 186 107 l 744 107 b 779 106 756 107 767 107 b 812 101 791 106 802 104 b 835 85 822 97 829 92 b 844 53 841 77 844 67 b 835 22 844 39 841 28 b 813 6 829 15 822 9 b 784 1 804 3 795 1 b 754 0 773 0 763 0 l 139 0 b 78 1 110 0 90 0 b 46 14 66 2 55 6 b 25 39 38 20 31 29 b 17 71 19 49 17 60 b 27 106 17 84 20 96 b 65 157 34 117 47 134 z "},"[":{"ha":478,"x_min":0,"x_max":0,"o":"m 224 900 l 224 -183 l 378 -183 b 406 -184 387 -183 396 -184 b 431 -189 415 -184 423 -186 b 451 -202 439 -192 446 -196 b 458 -229 456 -208 458 -217 b 451 -257 458 -241 456 -250 b 431 -272 446 -263 439 -268 b 406 -277 423 -275 415 -277 b 378 -278 396 -278 387 -278 l 213 -278 b 158 -276 187 -278 169 -277 b 126 -258 148 -274 138 -269 b 109 -226 116 -249 110 -238 b 107 -167 108 -214 107 -194 l 107 883 l 107 919 b 109 944 107 930 108 938 b 115 960 110 950 113 955 b 126 975 118 964 122 969 b 159 992 137 985 147 991 b 213 994 171 994 188 994 l 378 994 b 405 994 386 994 395 994 b 431 988 415 993 423 991 b 451 974 439 985 446 980 b 458 946 456 967 458 958 b 451 918 458 934 456 925 b 431 904 446 912 439 907 b 406 900 423 901 415 900 l 378 900 z "},"\\":{"ha":390,"x_min":0,"x_max":0,"o":"m 275 39 l 24 933 b 17 959 20 946 18 955 b 15 972 16 963 15 968 b 28 1000 15 983 19 993 b 57 1011 36 1007 46 1011 b 98 999 78 1011 92 1007 b 115 956 104 991 110 977 l 367 61 b 374 35 370 48 373 39 b 375 21 375 30 375 25 b 363 -6 375 11 371 2 b 333 -18 354 -14 344 -18 b 292 -6 312 -18 298 -14 b 275 39 286 3 281 18 z "},"]":{"ha":478,"x_min":0,"x_max":0,"o":"m 254 -183 l 254 900 l 100 900 b 72 901 91 900 81 900 b 47 906 63 901 54 903 b 27 919 39 908 32 913 b 19 946 22 925 19 934 b 27 974 19 958 22 967 b 47 988 32 980 39 985 b 72 994 54 991 63 993 b 100 994 81 994 91 994 l 265 994 b 319 992 291 994 309 994 b 351 975 330 991 340 985 b 369 943 362 966 367 955 b 371 883 370 931 371 911 l 371 -167 b 368 -227 371 -196 370 -216 b 351 -258 366 -238 361 -248 b 319 -276 341 -269 330 -274 b 265 -278 307 -277 289 -278 l 100 -278 b 73 -277 92 -278 83 -278 b 47 -272 63 -277 54 -275 b 27 -257 39 -268 32 -263 b 19 -229 22 -250 19 -241 b 27 -201 19 -217 22 -208 b 47 -187 32 -195 39 -190 b 72 -183 54 -185 63 -183 l 100 -183 z "},"^":{"ha":651,"x_min":0,"x_max":0,"o":"m 161 468 l 36 468 l 276 1011 l 375 1011 l 615 468 l 492 468 l 325 874 z "},"_":{"ha":694,"x_min":0,"x_max":0,"o":"m -8 -276 l -8 -187 l 703 -187 l 703 -276 z "},"`":{"ha":463,"x_min":0,"x_max":0,"o":"m 297 865 b 308 843 303 855 306 848 b 311 829 310 838 311 834 b 303 813 311 825 309 819 b 281 804 298 807 291 804 b 255 811 272 804 264 806 b 224 834 246 816 236 823 b 181 876 212 845 197 859 b 121 940 164 894 144 915 b 92 972 105 957 96 968 b 88 986 89 977 88 981 b 97 995 88 991 91 994 b 129 997 103 997 113 997 l 163 997 b 200 997 178 997 191 997 b 224 990 209 996 217 994 b 242 970 230 985 236 979 b 263 933 247 961 254 949 z "},"a":{"ha":782,"x_min":0,"x_max":0,"o":"m 576 101 b 538 67 567 92 554 81 b 478 28 522 54 502 41 b 397 -3 455 16 428 5 b 292 -17 366 -12 331 -17 b 188 1 252 -17 217 -11 b 115 49 159 13 135 29 b 72 115 96 68 81 90 b 58 189 63 139 58 164 b 83 289 58 230 67 263 b 144 351 100 315 120 335 b 222 384 169 366 194 377 b 294 401 249 391 273 397 b 336 410 303 403 317 406 b 397 421 356 413 376 417 b 458 432 419 425 439 428 b 497 440 477 436 490 438 b 527 449 507 443 517 446 b 565 461 537 451 550 456 b 560 531 564 485 563 508 b 542 590 558 553 552 573 b 494 632 531 608 516 622 b 401 647 472 642 441 647 b 338 642 380 647 359 646 b 280 626 317 639 298 634 b 231 594 262 618 246 607 b 199 547 217 581 206 566 b 178 506 192 531 185 518 b 139 489 170 495 157 489 b 101 503 124 489 111 494 b 85 540 90 513 85 525 b 96 588 85 550 88 566 b 140 653 103 610 118 632 b 234 711 163 675 194 694 b 393 736 274 728 327 736 b 555 713 462 736 516 728 b 643 650 594 698 624 677 b 679 556 663 623 675 592 b 686 439 684 519 686 481 b 685 392 686 430 686 414 b 684 324 685 371 684 348 b 683 256 684 300 683 277 b 682 213 682 235 682 221 b 688 136 682 179 684 154 b 701 93 692 119 697 104 b 709 67 702 89 705 81 b 715 31 713 54 715 42 b 698 -2 715 19 709 8 b 657 -17 686 -12 673 -17 b 626 -6 645 -17 635 -13 b 604 23 618 2 611 11 b 588 61 598 34 592 47 b 576 101 584 75 580 88 z m 567 375 b 533 363 557 371 546 367 b 486 350 520 359 505 355 b 369 326 443 340 404 332 b 275 306 335 320 304 313 b 226 283 255 300 238 293 b 199 253 214 274 205 264 b 185 222 192 243 188 232 b 182 197 183 212 182 204 b 190 157 182 184 184 171 b 213 119 195 143 203 130 b 256 90 224 107 238 97 b 319 78 273 82 294 78 b 380 84 339 78 359 80 b 441 103 401 88 421 94 b 496 135 461 111 479 122 b 536 182 513 148 526 163 b 562 266 550 206 559 234 b 567 375 565 298 567 334 z "},"b":{"ha":854,"x_min":0,"x_max":0,"o":"m 218 108 l 218 65 b 217 44 218 60 218 53 b 211 17 217 35 215 26 b 194 -7 207 7 202 0 b 160 -17 186 -13 175 -17 b 118 0 143 -17 129 -11 b 103 30 110 7 105 17 b 101 79 102 42 101 59 l 101 911 b 102 946 101 922 102 934 b 109 978 103 958 105 969 b 127 1002 113 988 119 996 b 163 1011 135 1008 147 1011 b 197 1002 177 1011 189 1008 b 215 978 206 996 212 988 b 222 946 219 969 221 958 b 222 910 222 934 222 922 l 222 611 b 244 638 225 616 232 625 b 294 681 256 652 273 666 b 372 719 316 695 341 708 b 476 736 402 731 437 736 b 631 700 538 736 590 724 b 728 609 671 676 704 646 b 780 489 753 572 770 532 b 794 367 790 445 794 405 b 781 248 794 331 790 292 b 732 123 772 204 756 162 b 633 24 708 84 675 50 b 474 -17 592 -3 538 -17 b 374 -3 436 -17 403 -12 b 301 31 346 6 322 18 b 251 72 281 44 264 57 b 218 108 237 86 226 98 z m 450 78 b 524 92 473 78 498 83 b 596 141 551 102 575 118 b 649 230 617 164 635 193 b 671 365 664 266 671 312 b 656 474 671 404 666 441 b 613 563 647 508 632 538 b 544 621 594 588 571 607 b 454 642 518 635 488 642 b 387 631 436 642 413 638 b 310 588 360 623 335 609 b 247 501 286 567 265 538 b 221 353 230 463 221 414 b 242 223 221 301 228 258 b 295 138 256 188 273 160 b 369 92 317 116 341 101 b 450 78 396 82 423 78 z "},"c":{"ha":782,"x_min":0,"x_max":0,"o":"m 717 211 b 701 158 717 201 712 183 b 649 82 691 133 674 108 b 553 13 625 56 593 33 b 407 -17 514 -7 465 -17 b 285 -1 360 -17 319 -12 b 200 38 252 9 223 22 b 144 88 177 53 158 70 b 110 138 129 105 118 122 b 74 224 97 160 85 189 b 58 358 64 260 58 305 b 74 488 58 400 63 443 b 128 610 84 532 102 573 b 233 701 154 647 189 677 b 401 736 277 724 333 736 b 508 724 442 736 478 732 b 585 691 538 715 564 704 b 640 647 607 678 625 663 b 678 599 655 630 668 614 b 695 567 684 589 690 579 b 703 532 700 556 703 544 b 686 494 703 516 697 503 b 649 479 675 484 663 479 b 637 480 645 479 641 479 b 624 485 633 480 628 482 b 608 500 619 489 614 494 b 590 528 603 506 597 516 b 570 558 586 535 579 545 b 535 597 561 571 550 584 b 481 628 521 609 503 620 b 403 642 459 637 433 642 b 240 567 335 642 281 617 b 179 364 200 518 179 450 b 238 153 179 274 199 204 b 400 78 278 103 331 78 b 508 104 439 78 475 87 b 585 181 541 122 566 147 b 592 194 586 183 588 188 b 603 213 595 200 599 206 b 613 233 606 220 610 227 b 621 244 616 239 619 243 b 637 260 625 250 631 255 b 661 267 643 264 651 267 b 699 252 674 267 687 262 b 717 211 711 242 717 229 z "},"d":{"ha":854,"x_min":0,"x_max":0,"o":"m 636 108 b 603 72 628 98 617 86 b 553 31 590 57 573 44 b 480 -3 532 18 508 6 b 381 -17 452 -12 419 -17 b 220 24 315 -17 261 -3 b 122 123 179 50 146 84 b 73 248 98 162 82 204 b 60 367 64 292 60 331 b 74 489 60 405 65 445 b 126 609 84 532 101 572 b 224 700 150 646 183 676 b 378 736 264 724 316 736 b 483 719 418 736 453 731 b 560 681 513 708 538 695 b 610 638 581 666 598 652 b 632 611 622 625 629 616 l 632 910 b 633 946 632 922 632 934 b 639 978 633 958 635 969 b 657 1002 643 988 649 996 b 692 1011 665 1008 677 1011 b 726 1002 706 1011 718 1008 b 745 978 735 996 741 988 b 752 946 749 969 752 958 b 753 911 753 934 753 922 l 753 79 b 751 30 753 59 752 42 b 736 0 749 17 744 7 b 694 -17 725 -11 711 -17 b 660 -7 680 -17 668 -13 b 643 17 653 0 647 7 b 637 44 639 26 637 35 b 636 65 636 53 636 60 z m 404 78 b 485 92 431 78 458 82 b 559 138 513 101 537 116 b 613 223 581 160 599 188 b 633 353 626 258 633 301 b 607 501 633 414 625 463 b 544 588 589 538 568 567 b 467 631 519 609 494 623 b 400 642 441 638 419 642 b 310 621 367 642 337 635 b 241 563 283 607 260 588 b 198 474 222 538 208 508 b 183 365 188 441 183 404 b 205 230 183 312 191 266 b 258 141 219 193 237 164 b 329 92 280 118 303 102 b 404 78 355 83 380 78 z "},"e":{"ha":782,"x_min":0,"x_max":0,"o":"m 617 336 l 185 336 b 206 213 186 288 193 247 b 256 131 219 179 235 152 b 327 86 277 110 301 95 b 410 72 353 77 381 72 b 485 83 439 72 465 76 b 540 113 506 91 524 100 b 580 154 555 125 568 138 b 613 201 591 170 602 186 b 631 224 617 208 623 216 b 664 238 638 233 649 238 b 697 224 677 238 688 233 b 710 192 705 214 710 204 b 702 158 710 181 707 169 b 686 128 697 147 692 137 b 653 83 678 115 667 100 b 600 36 640 67 622 51 b 519 -1 578 21 551 9 b 404 -17 487 -12 449 -17 b 251 13 345 -17 294 -7 b 144 92 208 32 172 59 b 81 213 116 126 95 166 b 61 361 68 259 61 308 b 82 508 61 413 68 462 b 144 627 96 553 117 593 b 250 707 172 661 207 688 b 401 736 293 726 343 736 b 524 717 449 736 489 730 b 611 667 558 704 587 687 b 669 599 635 646 655 624 b 703 525 684 574 696 549 b 719 459 711 501 717 479 b 724 414 722 439 724 424 b 714 369 724 394 720 379 b 688 346 707 358 699 350 b 653 338 678 341 666 338 b 617 336 641 337 629 336 z m 186 419 l 600 419 b 592 483 598 440 596 461 b 564 556 589 504 580 529 b 499 622 548 582 526 604 b 397 647 471 639 437 647 b 333 637 373 647 352 644 b 282 611 314 630 297 621 b 244 576 267 601 255 589 b 219 539 234 563 226 551 b 195 475 207 518 199 496 b 186 419 191 454 188 435 z "},"f":{"ha":419,"x_min":0,"x_max":0,"o":"m 135 719 l 135 788 b 142 879 135 824 137 854 b 165 940 146 904 154 925 b 201 977 175 955 188 967 b 245 999 215 987 230 994 b 290 1008 260 1003 275 1006 b 332 1011 305 1010 319 1011 b 392 1006 353 1011 373 1009 b 433 996 410 1003 424 1000 b 453 984 438 994 444 990 b 465 953 461 978 465 968 b 453 920 465 940 461 929 b 425 907 446 911 436 907 b 412 908 422 907 418 907 b 392 910 406 909 399 910 b 373 913 385 911 379 912 b 360 914 367 913 363 914 b 303 904 336 914 317 911 b 272 877 290 898 280 889 b 258 834 265 866 260 851 b 256 776 256 817 256 798 l 256 719 l 331 719 b 354 719 338 719 346 719 b 378 714 363 718 370 717 b 397 701 385 711 391 707 b 404 676 402 696 404 688 b 397 650 404 665 402 656 b 377 636 391 644 385 639 b 353 631 369 633 361 632 b 331 631 344 631 337 631 l 256 631 l 256 82 b 253 31 256 62 255 45 b 238 0 251 18 246 7 b 220 -12 233 -5 227 -9 b 194 -17 213 -15 205 -17 b 151 0 177 -17 163 -11 b 137 32 143 8 138 19 b 135 82 135 45 135 62 l 135 631 l 69 631 b 53 631 66 631 60 631 b 31 636 45 632 38 633 b 11 650 23 639 17 644 b 3 676 6 656 3 665 b 11 701 3 688 6 696 b 31 714 17 707 23 711 b 54 719 39 717 47 718 b 72 719 62 719 68 719 z "},"g":{"ha":854,"x_min":0,"x_max":0,"o":"m 635 606 l 635 661 b 636 681 635 666 635 672 b 643 706 637 689 639 697 b 660 727 647 714 653 721 b 693 736 668 733 679 736 b 727 727 708 736 719 733 b 744 703 735 721 741 713 b 751 669 748 694 750 682 b 751 628 751 655 751 642 l 751 78 b 744 -42 751 33 749 -6 b 725 -126 740 -77 733 -105 b 655 -222 708 -167 685 -199 b 560 -272 625 -244 593 -261 b 465 -292 526 -283 495 -290 b 399 -296 436 -295 413 -296 b 244 -272 336 -296 284 -288 b 151 -215 205 -255 173 -237 b 104 -152 128 -194 113 -173 b 92 -107 96 -131 92 -116 b 106 -72 92 -95 97 -83 b 147 -56 116 -61 130 -56 b 165 -58 155 -56 161 -56 b 179 -67 170 -59 175 -62 b 195 -86 184 -71 189 -78 b 218 -121 201 -94 209 -106 b 240 -149 224 -130 231 -140 b 274 -175 248 -159 260 -168 b 324 -194 288 -182 304 -189 b 399 -201 344 -199 369 -201 b 526 -179 449 -201 491 -194 b 601 -115 562 -164 587 -143 b 617 -76 608 -102 613 -89 b 626 -31 622 -62 625 -47 b 630 25 628 -15 629 4 b 631 101 630 46 631 72 b 594 68 621 92 609 81 b 542 31 580 55 562 43 b 473 1 522 20 499 10 b 385 -11 447 -7 417 -11 b 258 11 336 -11 293 -4 b 169 69 222 26 192 45 b 112 147 145 92 126 119 b 79 232 97 176 87 204 b 65 308 72 260 67 285 b 61 361 62 331 61 349 b 78 495 61 406 67 450 b 135 616 90 540 109 580 b 233 703 161 652 194 681 b 379 736 273 725 322 736 b 478 722 417 736 450 731 b 551 687 507 712 531 700 b 602 644 572 673 589 659 b 635 606 616 630 626 617 z m 407 83 b 484 97 432 83 458 88 b 556 143 510 106 534 122 b 610 226 578 164 596 192 b 631 354 624 261 631 303 b 614 478 631 401 625 443 b 567 568 603 514 587 544 b 497 623 547 592 524 610 b 407 642 469 635 439 642 b 341 631 388 642 366 638 b 268 591 316 624 291 611 b 209 506 245 571 225 543 b 185 360 193 469 185 420 b 203 232 185 310 191 267 b 253 146 216 197 233 168 b 325 98 274 124 298 108 b 407 83 352 88 379 83 z "},"h":{"ha":796,"x_min":0,"x_max":0,"o":"m 699 463 l 699 83 b 697 33 699 60 698 44 b 686 6 696 23 693 14 b 665 -10 681 -1 675 -6 b 636 -17 656 -15 646 -17 b 606 -8 626 -17 616 -14 b 583 17 595 -3 588 6 b 578 42 581 24 579 32 b 578 83 578 51 578 65 l 578 433 b 574 504 578 454 577 477 b 556 569 572 531 566 553 b 501 620 543 592 524 609 b 428 638 477 632 453 638 b 328 611 394 638 360 629 b 257 539 297 594 273 569 b 244 510 252 530 248 520 b 233 473 240 501 236 488 b 226 414 231 458 228 438 b 224 322 225 390 224 359 l 224 82 b 222 33 224 62 223 45 b 207 1 220 20 215 10 b 189 -10 202 -2 196 -6 b 161 -17 181 -15 172 -17 b 127 -8 146 -17 135 -14 b 110 16 119 -2 113 6 b 103 49 106 26 104 37 b 103 83 103 61 103 72 l 103 911 b 103 947 103 923 103 935 b 110 978 104 958 106 969 b 127 1002 113 988 119 996 b 161 1011 135 1008 146 1011 b 197 1002 177 1011 189 1008 b 216 979 206 996 212 988 b 223 947 220 970 222 959 b 224 911 223 935 224 923 l 224 617 b 263 662 236 632 249 647 b 312 700 278 676 294 689 b 373 726 330 711 350 720 b 450 736 396 733 421 736 b 565 713 494 736 533 728 b 649 649 597 698 625 676 b 677 601 661 635 670 619 b 692 548 684 583 689 565 b 698 499 696 531 697 515 b 699 463 698 484 699 472 z "},"i":{"ha":333,"x_min":0,"x_max":0,"o":"m 228 638 l 228 82 b 226 41 228 63 227 49 b 222 22 225 33 224 27 b 199 -7 218 9 210 0 b 167 -17 189 -13 178 -17 b 132 -8 152 -17 140 -14 b 114 16 124 -2 118 6 b 107 48 110 26 108 36 b 106 82 106 59 106 71 l 106 638 b 108 688 106 659 106 675 b 122 718 110 700 115 710 b 168 736 134 730 150 736 b 202 728 184 736 195 733 b 219 708 209 722 215 716 b 227 676 224 701 227 690 b 228 638 228 663 228 650 z m 233 924 b 214 876 233 905 227 889 b 167 856 201 862 185 856 b 119 876 148 856 132 862 b 100 924 106 889 100 905 b 119 971 100 942 106 958 b 167 990 132 984 148 990 b 214 971 185 990 201 984 b 233 924 227 958 233 942 z "},"j":{"ha":333,"x_min":0,"x_max":0,"o":"m 228 638 l 228 -39 b 226 -112 228 -69 227 -93 b 221 -161 224 -132 223 -148 b 213 -192 219 -174 216 -184 b 203 -214 210 -200 206 -207 b 167 -256 193 -231 181 -245 b 124 -279 153 -266 139 -274 b 82 -290 110 -285 96 -288 b 44 -293 68 -292 56 -293 b 15 -292 37 -293 27 -293 b -23 -283 2 -291 -10 -288 b -56 -264 -35 -279 -46 -272 b -69 -228 -65 -256 -69 -244 b -68 -215 -69 -225 -69 -221 b -62 -199 -67 -210 -65 -204 b -46 -185 -59 -194 -53 -190 b -15 -179 -38 -181 -28 -179 b 10 -181 -11 -179 -2 -180 b 35 -183 23 -183 31 -183 b 68 -177 48 -183 59 -181 b 90 -155 77 -173 85 -166 b 103 -111 96 -144 100 -130 b 107 -42 106 -93 107 -69 l 107 638 b 108 681 107 657 107 672 b 117 710 109 691 112 700 b 135 727 120 715 127 721 b 167 736 144 733 155 736 b 201 727 181 736 193 733 b 220 703 210 721 216 713 b 227 672 224 694 227 683 b 228 638 228 660 228 649 z m 100 924 b 120 971 100 942 107 958 b 168 990 134 984 150 990 b 215 971 187 990 202 984 b 235 924 228 958 235 942 b 215 876 235 905 228 889 b 168 856 202 862 187 856 b 120 876 150 856 134 862 b 100 924 107 889 100 905 z "},"k":{"ha":738,"x_min":0,"x_max":0,"o":"m 339 374 l 233 276 l 233 85 b 233 49 233 73 233 61 b 226 16 232 37 230 26 b 207 -8 222 6 215 -2 b 171 -17 199 -14 187 -17 b 137 -8 156 -17 145 -14 b 119 15 129 -3 123 5 b 113 48 116 24 114 35 b 113 89 113 60 113 74 l 113 894 b 113 933 113 906 113 919 b 120 972 114 947 116 960 b 138 1000 124 983 130 993 b 174 1011 146 1007 158 1011 b 208 1001 188 1011 199 1008 b 229 974 218 994 225 985 b 233 946 231 967 232 958 b 233 906 233 934 233 920 l 233 414 l 522 692 b 565 731 544 712 558 725 b 592 739 573 736 581 739 b 632 722 607 739 621 733 b 649 685 643 710 649 698 b 638 657 649 675 645 665 b 610 628 631 649 622 639 l 422 451 l 654 117 b 686 65 672 92 682 74 b 692 39 690 55 692 46 b 671 -1 692 22 685 9 b 631 -17 657 -12 644 -17 b 595 -3 617 -17 605 -12 b 561 42 585 6 574 21 z "},"l":{"ha":333,"x_min":0,"x_max":0,"o":"m 228 911 l 228 82 b 225 32 228 61 227 44 b 211 1 223 20 219 10 b 193 -11 206 -3 200 -7 b 167 -17 186 -15 177 -17 b 132 -8 152 -17 140 -14 b 114 15 124 -2 118 6 b 108 47 110 25 108 35 b 107 82 107 59 107 71 l 107 911 b 109 962 107 932 108 949 b 122 992 110 974 115 984 b 140 1005 127 996 133 1001 b 167 1011 148 1009 156 1011 b 211 993 182 1011 197 1005 b 225 962 219 985 223 974 b 228 911 227 949 228 932 z "},"m":{"ha":1157,"x_min":0,"x_max":0,"o":"m 1067 494 l 1067 83 b 1065 33 1067 62 1066 45 b 1051 1 1063 20 1059 10 b 1033 -11 1046 -3 1040 -7 b 1007 -17 1026 -15 1017 -17 b 972 -7 991 -17 979 -13 b 953 17 964 0 958 8 b 947 50 949 27 947 38 b 946 85 946 62 946 74 l 946 454 b 944 508 946 470 945 488 b 930 566 942 529 938 548 b 892 612 922 584 909 599 b 817 631 874 624 849 631 b 735 612 790 631 763 624 b 672 556 708 599 687 581 b 644 484 656 531 647 507 b 640 418 642 461 640 439 l 640 83 b 638 33 640 62 640 45 b 625 1 637 20 632 10 b 607 -11 620 -3 614 -7 b 581 -17 600 -15 591 -17 b 535 1 564 -17 549 -11 b 522 33 527 10 523 20 b 519 83 520 45 519 62 l 519 468 b 517 513 519 479 519 494 b 503 567 516 531 511 549 b 465 612 496 584 483 599 b 392 631 448 624 423 631 b 301 607 359 631 329 623 b 243 547 274 591 254 571 b 217 463 228 519 219 490 b 213 374 214 435 213 405 l 213 83 b 210 33 213 62 212 45 b 197 1 209 20 205 10 b 179 -11 193 -3 187 -7 b 153 -17 172 -15 163 -17 b 107 1 136 -17 121 -11 b 94 33 100 10 95 20 b 92 83 92 45 92 62 l 92 638 b 92 672 92 649 92 660 b 99 704 93 684 95 695 b 115 727 102 713 108 721 b 146 736 122 733 132 736 b 180 724 160 736 171 732 b 196 700 189 715 194 707 b 199 676 198 693 199 684 b 200 619 200 667 200 648 b 286 702 221 652 250 679 b 418 736 322 725 366 736 b 451 734 426 736 438 735 b 495 726 465 733 480 730 b 542 708 510 722 526 716 b 585 675 557 700 572 689 b 609 641 596 663 604 652 b 622 610 614 630 619 620 b 649 646 629 619 638 631 b 692 688 660 661 674 675 b 757 722 710 700 732 712 b 844 736 782 731 811 736 b 897 731 861 736 879 734 b 952 715 916 728 934 722 b 1002 683 970 707 987 696 b 1040 635 1017 670 1030 654 b 1063 558 1053 608 1061 582 b 1067 494 1066 533 1067 512 z "},"n":{"ha":796,"x_min":0,"x_max":0,"o":"m 699 460 l 699 82 b 697 31 699 62 698 45 b 682 0 695 18 690 7 b 639 -17 669 -11 655 -17 b 594 0 621 -17 606 -11 b 580 31 586 7 581 18 b 578 82 578 45 578 62 l 578 425 b 572 510 578 460 576 488 b 556 561 569 531 563 548 b 501 613 543 584 525 602 b 429 631 478 625 454 631 b 329 603 394 631 361 622 b 257 531 298 585 274 561 b 242 502 251 521 247 512 b 232 464 238 492 235 480 b 226 404 229 448 227 428 b 224 311 224 380 224 349 l 224 82 b 221 31 224 62 223 45 b 206 0 219 18 214 7 b 163 -17 193 -11 178 -17 b 119 0 147 -17 132 -11 b 105 31 111 7 106 18 b 103 82 103 45 103 62 l 103 640 b 105 689 103 660 103 676 b 118 719 106 702 111 712 b 135 731 123 723 128 727 b 161 736 142 734 151 736 b 191 728 172 736 182 733 b 208 710 200 722 206 716 b 215 695 211 705 213 700 b 219 676 217 690 218 684 b 220 650 219 669 220 660 b 221 613 221 640 221 627 b 254 652 230 625 241 638 b 301 692 267 666 283 680 b 364 724 319 705 340 715 b 449 736 388 732 416 736 b 565 713 493 736 532 728 b 651 647 597 698 626 676 b 679 601 663 633 673 618 b 693 551 686 585 690 568 b 698 501 696 534 697 517 b 699 460 698 484 699 471 z "},"o":{"ha":796,"x_min":0,"x_max":0,"o":"m 736 360 b 708 189 736 293 727 236 b 634 72 690 142 665 103 b 526 5 603 42 567 19 b 397 -17 486 -9 443 -17 b 249 13 341 -17 291 -7 b 142 91 206 32 171 58 b 79 206 114 124 93 162 b 58 346 65 250 58 297 b 148 636 58 473 88 569 b 397 736 208 703 291 736 b 527 715 443 736 486 729 b 635 647 568 700 604 678 b 709 531 666 617 691 578 b 736 360 727 483 736 426 z m 613 360 b 554 568 613 450 593 519 b 399 642 515 617 463 642 b 238 565 329 642 276 616 b 182 360 201 513 182 445 b 239 153 182 273 201 204 b 399 78 277 103 330 78 b 557 154 467 78 520 103 b 613 360 594 205 613 274 z "},"p":{"ha":854,"x_min":0,"x_max":0,"o":"m 218 611 b 251 648 226 621 237 634 b 301 689 264 662 281 676 b 374 722 322 702 346 713 b 474 736 403 731 436 736 b 588 717 517 736 555 730 b 673 667 621 705 649 688 b 732 597 697 647 716 623 b 769 514 748 570 760 543 b 789 429 779 485 785 457 b 794 353 793 401 794 376 b 780 231 794 315 790 274 b 728 110 770 187 753 147 b 631 19 704 74 671 44 b 476 -17 590 -5 538 -17 b 372 0 437 -17 402 -11 b 294 39 341 11 316 24 b 244 81 273 54 256 68 b 222 108 232 95 225 104 l 222 -190 b 222 -226 222 -202 222 -214 b 215 -259 221 -238 219 -249 b 197 -283 212 -269 206 -277 b 163 -292 189 -289 177 -292 b 127 -283 147 -292 135 -289 b 109 -259 119 -277 113 -269 b 102 -226 105 -249 103 -238 b 101 -192 102 -214 101 -203 l 101 640 b 103 690 101 661 102 677 b 118 719 105 702 110 712 b 160 736 129 731 143 736 b 194 726 175 736 186 733 b 211 703 202 720 207 712 b 217 676 215 694 217 684 b 218 654 218 667 218 660 z m 450 642 b 369 628 423 642 396 637 b 295 581 341 619 317 603 b 242 496 273 559 256 531 b 221 367 228 461 221 418 b 247 218 221 306 230 256 b 310 130 265 180 286 151 b 387 88 335 109 360 95 b 454 78 413 81 436 78 b 544 99 488 78 518 85 b 613 157 571 113 594 132 b 656 245 632 182 647 211 b 671 354 666 279 671 315 b 649 490 671 408 664 453 b 596 578 635 526 617 556 b 524 627 575 601 551 617 b 450 642 498 637 473 642 z "},"q":{"ha":854,"x_min":0,"x_max":0,"o":"m 635 611 l 635 654 b 635 676 635 660 635 667 b 642 703 636 684 638 694 b 659 726 645 712 651 720 b 693 736 667 733 678 736 b 735 719 710 736 724 731 b 749 690 743 712 748 702 b 751 640 751 677 751 661 l 751 -192 b 751 -226 751 -203 751 -214 b 744 -259 750 -238 748 -249 b 725 -283 740 -269 733 -277 b 690 -292 717 -289 705 -292 b 656 -283 675 -292 664 -289 b 638 -259 647 -277 641 -269 b 631 -226 634 -249 632 -238 b 631 -190 631 -214 631 -202 l 631 108 b 608 81 628 104 620 95 b 558 39 596 68 580 54 b 481 0 537 24 511 11 b 376 -17 451 -11 416 -17 b 222 19 314 -17 263 -5 b 124 110 181 44 149 74 b 73 231 100 147 83 187 b 58 353 63 274 58 315 b 64 429 58 376 60 401 b 83 514 68 457 74 485 b 121 597 93 543 105 570 b 180 667 137 623 156 647 b 265 717 203 688 232 705 b 379 736 297 730 336 736 b 478 722 417 736 450 731 b 551 689 507 713 531 702 b 602 648 572 676 589 662 b 635 611 616 634 626 621 z m 403 642 b 328 627 379 642 354 637 b 257 578 302 617 278 601 b 203 490 236 556 218 526 b 182 354 189 453 182 408 b 197 245 182 315 187 279 b 240 157 206 211 221 182 b 308 99 259 132 281 113 b 399 78 335 85 365 78 b 466 88 417 78 440 81 b 542 130 492 95 518 109 b 606 218 567 151 588 180 b 632 367 623 256 632 306 b 611 496 632 418 625 461 b 558 581 597 531 579 559 b 484 628 536 603 511 619 b 403 642 457 637 430 642 z "},"r":{"ha":521,"x_min":0,"x_max":0,"o":"m 107 82 l 107 660 b 108 685 107 668 107 677 b 113 710 108 694 110 703 b 129 729 116 718 122 725 b 160 736 137 734 147 736 b 190 729 173 736 183 734 b 205 710 197 725 202 718 b 210 685 208 703 210 694 b 211 660 211 677 211 668 l 211 604 b 247 656 223 623 235 640 b 283 698 258 672 270 686 b 328 726 296 709 311 719 b 386 736 344 733 364 736 b 433 731 401 736 417 734 b 480 715 450 727 466 722 b 515 689 494 708 506 699 b 529 654 525 679 529 667 b 512 613 529 637 523 623 b 481 599 500 603 490 599 b 460 602 473 599 466 600 b 439 609 453 604 446 607 b 414 616 431 611 423 614 b 381 619 405 618 394 619 b 302 595 348 619 322 611 b 256 529 282 579 267 557 b 233 432 244 501 237 469 b 228 314 230 395 228 356 l 228 53 b 221 16 228 37 225 25 b 205 -5 216 7 211 0 b 185 -15 199 -10 192 -13 b 168 -17 178 -16 173 -17 b 125 0 150 -17 136 -11 b 109 31 116 7 110 18 b 107 82 108 44 107 61 z "},"s":{"ha":708,"x_min":0,"x_max":0,"o":"m 649 210 b 640 148 649 194 646 173 b 599 73 634 122 620 97 b 508 10 578 48 548 27 b 346 -17 467 -8 413 -17 b 210 3 291 -17 246 -10 b 118 60 175 16 144 35 b 77 113 104 74 91 91 b 57 182 64 134 57 157 b 72 217 57 195 62 206 b 110 232 82 227 95 232 b 145 218 125 232 137 227 b 165 185 153 209 160 198 b 228 103 179 152 200 125 b 354 69 257 81 299 69 b 480 105 410 69 452 81 b 522 185 508 128 522 155 b 506 240 522 207 517 225 b 467 276 496 254 482 266 b 413 299 451 285 433 293 b 357 314 393 304 375 309 b 265 339 320 323 289 331 b 203 360 240 346 219 353 b 162 379 186 366 172 373 b 131 401 151 386 141 393 b 87 455 114 415 99 433 b 68 531 74 477 68 502 b 96 626 68 563 77 595 b 174 701 114 658 140 683 b 244 727 194 713 218 721 b 338 736 271 733 302 736 b 480 713 397 736 444 728 b 563 659 516 697 543 679 b 601 601 582 639 595 620 b 611 563 608 582 611 569 b 610 550 611 560 611 556 b 603 533 609 544 606 539 b 588 519 599 528 594 523 b 560 513 581 515 572 513 b 524 525 543 513 531 517 b 500 567 517 533 509 547 b 447 625 490 589 472 608 b 340 650 422 642 387 650 b 228 624 296 650 259 641 b 183 549 198 606 183 581 b 192 510 183 535 186 522 b 224 478 198 499 209 488 b 288 449 240 468 261 458 b 390 422 314 441 349 431 b 477 400 418 417 447 409 b 560 363 507 391 535 378 b 624 302 586 347 607 327 b 649 210 640 278 649 247 z "},"t":{"ha":419,"x_min":0,"x_max":0,"o":"m 125 719 l 125 842 b 126 898 125 869 125 887 b 135 928 127 909 130 919 b 153 947 138 934 145 941 b 185 956 162 953 173 956 b 219 946 200 956 211 952 b 238 921 228 939 234 931 b 245 887 242 911 245 899 b 246 849 246 874 246 862 l 246 719 l 310 719 b 334 719 317 719 325 719 b 358 714 343 718 351 717 b 377 701 366 711 372 707 b 385 676 382 696 385 688 b 363 642 385 661 378 649 b 314 632 349 635 332 632 l 246 632 l 246 204 b 247 154 246 186 246 169 b 256 116 248 139 251 127 b 278 91 261 105 269 97 b 318 82 288 85 301 82 b 333 83 321 82 326 82 b 354 86 340 84 347 85 b 375 89 362 87 369 88 b 389 90 381 90 386 90 b 419 79 401 90 411 87 b 431 47 427 72 431 61 b 420 18 431 35 427 25 b 391 0 413 11 403 5 b 347 -10 378 -5 364 -8 b 294 -12 331 -12 313 -12 b 197 8 252 -12 219 -6 b 147 58 174 21 157 38 b 128 124 136 78 130 100 b 125 194 126 149 125 172 l 125 632 l 79 632 b 48 638 65 632 55 634 b 32 653 41 642 36 647 b 26 668 28 658 26 663 b 25 676 25 673 25 675 b 33 701 25 688 28 696 b 52 714 39 707 45 711 b 74 719 59 717 66 718 b 90 719 81 719 87 719 z "},"u":{"ha":796,"x_min":0,"x_max":0,"o":"m 96 253 l 96 636 b 98 688 96 657 97 675 b 113 718 99 700 104 711 b 157 736 125 730 139 736 b 200 719 173 736 187 731 b 215 688 208 711 213 700 b 217 636 216 675 217 657 l 217 300 b 219 227 217 276 218 252 b 240 161 221 203 228 181 b 296 108 254 138 273 120 b 368 89 319 95 343 89 b 469 117 403 89 437 98 b 540 189 501 135 525 159 b 552 215 544 197 548 206 b 563 251 556 223 560 236 b 569 313 565 267 568 288 b 572 411 571 338 572 370 l 572 636 b 574 687 572 656 573 673 b 589 718 576 700 581 711 b 606 731 594 723 599 727 b 632 736 613 734 622 736 b 676 719 648 736 663 731 b 691 688 685 711 690 700 b 693 636 692 675 693 657 l 693 79 b 691 31 693 60 692 44 b 676 0 690 18 685 7 b 659 -12 672 -5 666 -9 b 635 -17 652 -15 644 -17 b 603 -8 623 -17 612 -14 b 586 10 595 -3 589 3 b 578 43 581 19 579 30 b 576 108 577 56 576 78 b 544 69 567 97 556 84 b 497 28 531 55 516 41 b 432 -3 479 16 457 5 b 343 -17 407 -12 377 -17 b 284 -11 325 -17 305 -15 b 224 7 263 -7 243 -1 b 169 40 204 15 186 26 b 131 89 153 53 140 69 b 101 174 115 120 105 149 b 96 253 98 199 96 225 z "},"v":{"ha":724,"x_min":0,"x_max":0,"o":"m 363 138 l 558 661 b 583 717 567 685 575 704 b 625 736 592 730 606 736 b 669 717 644 736 659 730 b 685 683 680 705 685 694 b 681 658 685 674 684 666 b 667 619 679 651 674 638 l 447 72 b 415 8 436 45 425 24 b 363 -17 404 -9 387 -17 b 309 8 338 -17 320 -9 b 276 72 298 24 288 45 l 57 619 b 42 658 50 638 45 651 b 39 683 40 666 39 674 b 54 718 39 694 44 706 b 99 736 64 730 79 736 b 140 717 118 736 132 730 b 165 661 149 704 157 685 z "},"w":{"ha":1042,"x_min":0,"x_max":0,"o":"m 521 557 l 389 83 b 377 44 385 69 381 56 b 362 13 373 32 368 22 b 339 -8 356 4 348 -3 b 304 -17 330 -14 318 -17 b 249 8 277 -17 259 -8 b 219 79 240 25 230 49 l 35 625 b 24 661 30 642 27 654 b 21 683 22 669 21 676 b 36 719 21 696 26 708 b 76 736 46 731 60 736 b 120 716 98 736 112 729 b 143 660 128 703 136 684 l 303 142 l 443 644 b 468 710 450 671 459 693 b 521 736 477 728 495 736 b 574 710 547 736 564 728 b 599 644 583 693 591 671 l 739 142 l 899 660 b 922 716 906 684 914 703 b 965 736 929 729 944 736 b 1005 719 981 736 994 731 b 1021 683 1016 708 1021 696 b 1018 661 1021 676 1020 669 b 1007 625 1016 654 1013 642 l 822 79 b 792 8 812 49 802 25 b 738 -17 783 -8 764 -17 b 703 -8 724 -17 712 -14 b 680 13 694 -3 686 4 b 665 44 674 22 669 32 b 653 83 660 56 656 69 z "},"x":{"ha":708,"x_min":0,"x_max":0,"o":"m 354 293 l 165 32 b 135 -4 154 16 144 4 b 97 -17 125 -12 113 -17 b 56 -1 80 -17 66 -11 b 40 35 45 10 40 22 b 44 53 40 39 41 45 b 65 89 46 60 53 72 l 281 376 l 90 624 b 84 632 89 625 87 627 b 74 648 81 637 78 642 b 65 667 71 654 68 660 b 61 685 63 673 61 679 b 74 718 61 695 66 706 b 118 736 83 730 98 736 b 155 723 134 736 146 732 b 186 685 164 714 174 701 l 354 463 l 519 685 b 563 730 538 711 553 726 b 590 736 574 734 583 736 b 631 721 607 736 621 731 b 647 688 642 711 647 700 b 643 667 647 682 646 675 b 615 624 640 658 631 644 l 428 382 l 638 96 b 658 66 644 88 651 78 b 668 35 665 54 668 44 b 651 -2 668 20 662 8 b 613 -17 639 -12 626 -17 b 584 -10 604 -17 595 -15 b 540 35 573 -6 559 9 z "},"y":{"ha":708,"x_min":0,"x_max":0,"o":"m 292 0 l 46 624 b 35 656 41 637 38 647 b 31 681 32 664 31 672 b 47 718 31 694 36 706 b 90 736 58 730 73 736 b 133 716 111 736 125 729 b 157 665 142 703 150 686 l 354 128 l 558 658 b 574 696 564 673 569 686 b 588 720 578 706 583 714 b 603 733 592 726 597 730 b 625 736 608 735 616 736 b 666 718 644 736 657 730 b 679 686 675 706 679 695 b 675 662 679 679 678 671 b 663 626 672 653 668 641 l 374 -114 b 335 -195 361 -145 348 -172 b 292 -251 323 -218 309 -236 b 237 -282 276 -265 258 -275 b 163 -292 216 -288 191 -292 b 124 -290 150 -292 138 -291 b 87 -281 111 -288 98 -285 b 58 -262 75 -276 66 -270 b 46 -229 50 -254 46 -243 b 58 -197 46 -218 50 -207 b 93 -181 66 -186 77 -181 b 106 -181 96 -181 100 -181 b 124 -183 111 -182 117 -182 b 142 -184 130 -183 136 -184 b 154 -185 148 -184 152 -185 b 219 -158 184 -185 205 -176 b 254 -96 232 -141 244 -120 z "},"z":{"ha":708,"x_min":0,"x_max":0,"o":"m 183 94 l 610 94 l 638 94 b 665 90 648 94 657 93 b 684 77 672 88 679 83 b 692 50 689 71 692 62 b 684 21 692 37 689 27 b 665 6 679 14 672 9 b 638 1 657 3 648 1 b 610 0 628 0 619 0 l 114 0 l 86 0 b 55 4 76 0 66 1 b 28 19 44 7 35 12 b 17 53 20 27 17 38 b 24 81 17 61 19 71 b 51 119 29 92 38 105 l 408 518 b 447 561 424 536 437 550 b 469 590 456 572 464 582 b 482 609 475 597 479 604 b 490 625 485 614 488 619 l 158 625 b 112 626 142 625 126 625 b 74 631 97 626 85 628 b 49 644 64 633 55 638 b 40 672 43 651 40 660 b 47 700 40 684 43 694 b 66 714 52 706 58 711 b 92 719 74 717 82 718 b 119 719 101 719 110 719 l 540 719 b 581 719 554 719 568 719 b 616 713 594 718 605 716 b 642 696 627 709 635 703 b 651 664 648 688 651 678 b 642 633 651 653 648 643 b 606 589 635 624 623 609 z "},"{":{"ha":463,"x_min":0,"x_max":0,"o":"m 151 360 b 234 304 188 345 215 326 b 276 223 253 282 267 255 b 292 109 286 191 291 153 b 293 -46 293 65 293 13 b 298 -116 293 -75 295 -98 b 315 -158 301 -134 307 -148 b 345 -179 322 -169 333 -175 b 392 -185 358 -183 373 -185 b 419 -196 401 -186 410 -189 b 432 -233 428 -202 432 -215 b 419 -281 432 -257 428 -273 b 372 -292 411 -288 395 -292 b 263 -264 325 -292 288 -282 b 205 -195 237 -245 217 -222 b 183 -107 192 -168 185 -138 b 179 -21 180 -75 179 -47 b 176 120 178 36 177 83 b 164 213 174 158 170 189 b 133 269 157 238 147 256 b 74 299 119 282 100 292 b 43 321 56 303 46 311 b 39 360 40 331 39 344 b 43 399 39 375 40 388 b 74 421 46 409 56 416 b 133 451 100 428 119 438 b 165 506 147 464 158 483 b 177 596 172 530 176 560 b 179 729 178 632 179 676 b 183 830 179 763 181 796 b 207 921 186 864 194 894 b 267 986 220 948 240 969 b 381 1011 294 1003 331 1011 b 395 1010 384 1011 389 1011 b 413 1006 401 1010 407 1008 b 426 992 418 1003 423 998 b 432 964 430 985 432 976 b 419 915 432 938 428 922 b 375 904 410 908 395 904 b 330 892 356 904 341 900 b 306 860 319 884 311 874 b 295 815 300 847 297 832 b 293 765 294 799 293 782 b 291 607 293 703 292 650 b 276 495 290 563 284 526 b 234 417 267 464 253 438 b 151 360 215 395 188 376 z "},"|":{"ha":361,"x_min":0,"x_max":0,"o":"m 128 -224 l 128 943 b 128 969 128 952 128 961 b 133 992 129 978 131 985 b 147 1006 136 998 141 1003 b 175 1011 154 1009 163 1011 b 226 994 204 1011 221 1006 b 235 943 232 983 235 966 l 235 -224 b 228 -272 235 -243 232 -259 b 186 -292 223 -285 209 -292 b 152 -287 171 -292 160 -290 b 135 -275 144 -285 138 -281 b 128 -253 131 -269 129 -262 b 128 -224 128 -245 128 -235 z "},"}":{"ha":463,"x_min":0,"x_max":0,"o":"m 313 360 b 230 415 276 375 249 393 b 188 497 211 438 197 465 b 172 610 178 528 173 566 b 171 765 171 654 171 706 b 166 835 171 794 169 817 b 149 878 163 853 157 868 b 119 899 141 888 131 895 b 72 904 106 902 91 904 b 45 915 63 905 54 909 b 32 953 36 922 32 934 b 44 1000 32 977 36 993 b 92 1011 53 1007 69 1011 b 201 983 139 1011 175 1002 b 259 915 227 965 247 942 b 281 826 272 887 279 858 b 285 740 284 795 285 766 b 288 599 286 684 287 637 b 300 506 290 562 294 531 b 331 450 306 482 317 463 b 390 421 344 437 364 427 b 421 399 408 416 418 409 b 425 360 424 388 425 375 b 421 321 425 344 424 331 b 390 299 418 311 408 303 b 331 268 364 291 344 281 b 299 213 317 255 306 237 b 287 124 292 190 288 160 b 285 -10 285 88 285 43 b 281 -110 285 -43 283 -77 b 257 -201 278 -144 270 -175 b 197 -267 244 -228 224 -250 b 83 -292 170 -283 132 -292 b 69 -291 80 -292 75 -291 b 51 -286 63 -291 57 -289 b 38 -272 46 -283 41 -279 b 32 -244 34 -266 32 -256 b 45 -195 32 -219 36 -202 b 89 -185 54 -188 69 -185 b 134 -173 108 -185 123 -181 b 158 -141 145 -165 153 -154 b 169 -96 164 -128 167 -112 b 171 -46 170 -79 171 -62 b 173 113 171 16 172 69 b 188 224 174 156 179 193 b 230 303 197 255 211 281 b 313 360 249 324 276 343 z "},"~":{"ha":810,"x_min":0,"x_max":0,"o":"m 58 378 l 58 517 b 103 556 72 532 87 546 b 151 581 119 567 135 575 b 201 594 168 587 184 592 b 247 599 217 597 232 599 b 314 591 263 599 285 596 b 432 551 343 586 382 573 b 481 531 451 543 468 536 b 517 517 495 525 507 520 b 547 509 528 513 538 510 b 576 507 556 508 566 507 b 639 519 599 507 619 511 b 692 548 658 528 676 537 b 731 579 707 559 721 569 b 751 600 742 589 749 596 l 751 457 b 678 404 731 438 706 421 b 564 379 649 388 611 379 b 481 390 534 379 507 383 b 399 421 456 398 428 408 b 313 456 366 436 338 447 b 235 469 288 465 262 469 b 179 461 214 469 196 467 b 133 440 163 456 147 448 b 93 410 118 431 105 421 b 58 378 81 399 69 388 z "},"":{"ha":463,"x_min":0,"x_max":0,"o":"m 278 358 l 299 -46 b 299 -85 299 -54 299 -67 b 300 -142 300 -103 300 -122 b 299 -199 300 -162 300 -181 b 297 -235 299 -216 298 -228 b 285 -264 294 -247 291 -256 b 268 -281 280 -271 275 -277 b 249 -290 262 -285 255 -288 b 232 -292 242 -291 237 -292 b 215 -290 227 -292 222 -291 b 194 -281 208 -288 201 -285 b 177 -264 188 -277 182 -271 b 165 -235 172 -256 168 -247 b 163 -197 163 -227 163 -215 l 163 -140 b 163 -83 163 -120 163 -101 b 164 -46 164 -66 164 -53 l 185 358 b 188 390 186 369 187 380 b 193 417 188 400 190 409 b 206 437 196 425 200 432 b 231 444 212 442 220 444 b 256 437 242 444 250 442 b 269 417 262 432 267 425 b 275 390 272 409 274 400 b 278 358 276 380 277 369 z m 232 583 b 178 606 211 583 193 591 b 156 660 163 620 156 638 b 178 714 156 681 163 699 b 232 736 193 729 211 736 b 286 714 253 736 271 729 b 308 660 301 699 308 681 b 286 606 308 638 301 620 b 232 583 271 591 253 583 z "},"":{"ha":782,"x_min":0,"x_max":0,"o":"m 511 614 l 350 82 b 404 78 365 79 383 78 b 469 88 428 78 450 81 b 519 112 488 94 505 102 b 558 145 534 122 547 133 b 586 183 568 158 578 170 b 602 212 592 193 597 202 b 618 239 607 222 613 231 b 636 259 624 247 630 254 b 661 267 643 264 651 267 b 701 249 678 267 691 261 b 717 214 712 238 717 226 b 706 168 717 199 713 184 b 682 124 699 152 691 138 b 655 90 673 111 664 99 b 636 69 646 80 640 73 b 545 9 613 46 583 26 b 394 -17 508 -8 457 -17 b 353 -15 378 -17 364 -16 b 322 -10 342 -13 331 -12 l 265 -194 b 249 -240 260 -212 254 -227 b 221 -258 243 -252 234 -258 b 197 -247 211 -258 203 -255 b 189 -224 192 -240 189 -232 b 191 -203 189 -216 190 -209 b 200 -171 192 -197 195 -187 l 254 8 b 153 78 213 26 179 49 b 94 169 128 106 108 137 b 65 267 79 202 70 234 b 58 357 61 300 58 330 b 73 488 58 401 63 445 b 126 606 83 530 100 569 b 164 651 137 620 149 635 b 219 692 179 666 197 680 b 297 724 241 705 267 715 b 407 736 328 732 364 736 b 447 735 423 736 436 736 b 474 731 457 734 466 732 l 533 924 b 553 969 540 944 546 959 b 579 985 559 980 568 985 b 601 976 588 985 595 982 b 611 956 608 970 611 963 b 606 927 611 948 609 939 b 600 906 603 916 601 908 l 542 714 b 622 665 574 700 601 684 b 671 610 642 646 659 627 b 696 561 683 592 691 576 b 703 531 700 546 703 536 b 688 496 703 519 698 507 b 649 479 677 485 664 479 b 624 485 641 479 633 481 b 590 528 614 490 603 504 b 546 588 574 557 559 578 b 511 614 533 599 521 607 z m 286 110 l 444 638 b 429 641 440 639 435 641 b 406 642 424 641 416 642 b 326 628 380 642 353 637 b 253 581 300 619 275 603 b 200 494 232 559 214 531 b 179 360 186 458 179 413 b 203 219 179 312 187 265 b 286 110 219 173 246 137 z "},"":{"ha":782,"x_min":0,"x_max":0,"o":"m 269 542 l 432 542 b 459 541 440 542 449 541 b 485 536 469 541 478 539 b 505 522 493 533 500 529 b 513 496 510 516 513 507 b 505 469 513 485 510 476 b 486 456 500 463 494 458 b 461 451 479 453 470 451 b 435 450 452 450 443 450 l 290 450 b 294 406 292 437 294 422 b 296 360 295 389 296 374 b 289 276 296 328 294 300 b 272 210 284 251 278 229 b 250 161 265 191 257 175 b 229 124 243 147 236 135 b 271 130 238 125 251 128 b 338 133 290 132 313 133 b 374 132 350 133 363 133 b 410 128 386 131 398 130 b 450 120 422 126 435 123 b 501 108 465 117 482 113 b 537 101 511 106 522 104 b 585 97 551 99 567 97 b 601 98 591 97 597 97 b 617 101 606 98 611 100 b 640 109 623 103 631 106 b 678 122 650 112 662 117 b 695 128 684 124 690 126 b 714 131 700 130 706 131 b 751 115 730 131 742 125 b 765 76 761 104 765 91 b 747 35 765 61 759 47 b 701 6 735 24 720 14 b 640 -11 683 -2 663 -7 b 576 -17 618 -15 597 -17 b 551 -16 568 -17 559 -16 b 519 -12 542 -16 531 -14 b 476 -3 507 -11 493 -8 b 413 14 459 1 438 6 b 352 30 388 20 368 26 b 310 40 336 34 322 37 b 281 44 299 42 289 43 b 257 44 272 44 264 44 b 203 38 237 44 219 42 b 154 19 187 33 171 27 b 121 4 140 13 129 8 b 100 -4 113 0 106 -2 b 87 -8 94 -6 90 -7 b 76 -8 84 -8 80 -8 b 41 7 66 -8 54 -3 b 21 53 28 17 21 32 b 22 67 21 58 21 63 b 28 79 23 70 25 75 b 44 97 32 84 37 90 b 72 124 51 103 60 113 b 130 193 96 148 116 171 b 163 255 144 215 155 236 b 177 308 170 274 175 291 b 181 350 179 324 181 338 b 176 406 181 371 179 390 b 167 450 174 422 170 437 l 90 450 b 65 451 82 450 73 450 b 40 456 56 451 48 453 b 22 469 33 458 27 463 b 15 496 18 476 15 485 b 22 522 15 507 18 516 b 40 536 27 529 33 533 b 63 541 47 539 54 541 b 85 542 71 541 78 542 l 142 542 b 124 606 134 567 128 588 b 113 653 119 623 115 639 b 106 690 110 667 108 679 b 104 725 105 701 104 713 b 126 837 104 765 111 802 b 187 928 140 872 160 902 b 283 989 213 954 245 974 b 411 1011 321 1004 364 1011 b 547 986 464 1011 509 1003 b 641 924 585 969 616 949 b 696 844 666 899 684 872 b 714 769 708 817 714 792 b 696 727 714 752 708 738 b 654 711 684 716 670 711 b 610 730 633 711 618 717 b 593 768 603 742 597 755 b 571 821 588 786 580 803 b 535 869 562 838 550 854 b 484 903 521 883 504 895 b 414 917 464 912 441 917 b 280 865 358 917 314 899 b 229 732 246 830 229 786 b 231 694 229 719 230 706 b 238 655 233 682 235 669 b 251 606 241 641 246 624 b 269 542 256 588 262 567 z "},"":{"ha":767,"x_min":0,"x_max":0,"o":"m 143 650 l 99 697 b 72 728 85 713 76 723 b 67 746 69 732 67 738 b 78 773 67 756 70 765 b 108 801 85 781 95 790 b 131 807 112 805 119 807 b 147 802 137 807 143 805 b 176 776 152 799 162 790 l 224 732 b 291 765 245 744 267 755 b 383 779 315 774 345 779 b 476 765 421 779 452 774 b 543 732 499 755 522 744 l 590 776 b 620 802 605 790 615 799 b 639 807 625 805 631 807 b 658 800 644 807 651 805 b 678 783 666 795 672 790 b 694 763 684 777 690 770 b 700 743 698 755 700 749 b 694 727 700 737 698 731 b 668 697 691 723 682 713 l 624 650 b 656 585 636 630 647 608 b 671 492 666 562 671 531 b 656 400 671 454 666 423 b 624 335 647 377 636 355 l 668 288 b 694 257 682 272 691 262 b 700 239 698 252 700 246 b 689 212 700 229 696 220 b 658 183 681 204 671 194 b 649 178 656 181 653 180 b 636 176 646 177 642 176 b 619 182 630 176 624 178 b 590 208 615 186 605 194 l 543 253 b 476 220 522 241 499 230 b 383 206 452 210 421 206 b 291 219 345 206 315 210 b 224 253 267 229 245 240 l 176 208 b 147 182 162 194 152 186 b 128 176 141 178 135 176 b 108 183 122 176 116 179 b 88 200 101 188 94 194 b 73 221 82 206 77 213 b 67 240 69 228 67 235 b 72 258 67 248 69 253 b 99 288 76 262 85 272 l 143 335 b 110 400 131 355 120 377 b 96 492 101 423 96 454 b 110 585 96 531 101 562 b 143 650 120 608 131 630 z m 207 492 b 221 424 207 468 212 445 b 258 368 230 402 243 384 b 314 331 274 352 293 340 b 382 317 335 321 358 317 b 451 331 406 317 429 321 b 508 368 472 340 491 352 b 546 424 524 384 537 402 b 560 492 555 445 560 468 b 546 560 560 516 555 538 b 508 616 537 581 524 600 b 451 654 491 632 472 645 b 382 668 429 663 406 668 b 314 654 358 668 335 663 b 258 617 293 645 274 632 b 221 561 243 601 230 582 b 207 492 212 540 207 517 z "},"":{"ha":767,"x_min":0,"x_max":0,"o":"m 324 221 l 111 221 b 63 226 93 221 77 223 b 43 265 50 230 43 243 b 62 310 43 289 49 304 b 111 318 74 315 91 318 l 324 318 l 324 415 l 111 415 l 85 415 b 63 419 76 415 69 416 b 49 431 57 421 52 425 b 43 458 45 437 43 446 b 60 506 43 485 49 501 b 111 513 72 510 89 513 l 274 513 l 46 910 b 28 947 36 926 30 939 b 25 965 26 954 25 961 b 39 997 25 977 30 988 b 82 1011 48 1006 63 1011 b 128 995 103 1011 119 1006 b 160 950 138 984 149 969 l 331 644 b 347 616 337 633 342 624 b 358 592 351 608 355 600 l 369 569 b 382 540 373 561 377 551 b 392 562 386 549 389 556 b 402 581 394 568 398 574 b 417 608 406 588 411 597 b 439 650 422 618 430 632 l 599 949 b 629 993 609 966 619 981 b 682 1011 639 1005 657 1011 b 722 1001 695 1011 708 1008 b 742 968 735 995 742 984 b 736 941 742 957 740 948 l 719 910 l 493 513 l 657 513 b 705 506 675 513 691 510 b 725 465 718 502 725 488 b 721 434 725 451 724 441 b 708 419 718 427 714 422 b 686 415 702 417 694 415 l 657 415 l 444 415 l 444 318 l 657 318 b 705 310 675 318 691 316 b 725 269 718 305 725 292 b 706 227 725 245 719 231 b 657 221 694 223 677 221 l 444 221 l 444 85 b 443 33 444 63 444 45 b 431 3 442 20 438 10 b 413 -10 426 -2 420 -6 b 385 -17 405 -15 396 -17 b 340 1 367 -17 352 -11 b 326 33 332 10 327 20 b 324 85 324 45 324 63 z "},"":{"ha":361,"x_min":0,"x_max":0,"o":"m 235 943 l 235 543 b 228 494 235 524 232 507 b 186 475 223 481 209 475 b 152 479 171 475 160 476 b 135 492 144 482 138 486 b 128 513 131 497 129 504 b 128 543 128 522 128 532 l 128 943 b 128 969 128 952 128 961 b 133 992 129 978 131 985 b 147 1006 136 998 141 1003 b 175 1011 154 1009 163 1011 b 226 994 204 1011 221 1006 b 235 943 232 983 235 966 z m 235 175 l 235 -224 b 228 -272 235 -243 232 -259 b 186 -292 223 -285 209 -292 b 152 -287 171 -292 160 -290 b 135 -275 144 -285 138 -281 b 128 -253 131 -269 129 -262 b 128 -224 128 -245 128 -235 l 128 175 b 128 202 128 184 128 193 b 133 224 129 211 131 218 b 147 239 136 230 141 235 b 175 244 154 243 163 244 b 226 227 204 244 221 239 b 235 175 232 216 235 198 z "},"":{"ha":782,"x_min":0,"x_max":0,"o":"m 567 117 b 599 92 576 110 587 102 b 635 55 612 81 624 69 b 665 3 647 41 657 23 b 676 -67 672 -16 676 -40 b 654 -161 676 -102 669 -133 b 594 -232 639 -189 619 -212 b 507 -277 569 -251 540 -266 b 401 -293 474 -288 438 -293 b 250 -262 339 -293 289 -283 b 160 -192 211 -242 181 -219 b 116 -115 138 -166 124 -140 b 104 -64 108 -90 104 -73 b 119 -26 104 -52 109 -39 b 164 -7 130 -13 144 -7 b 200 -20 178 -7 190 -11 b 228 -67 210 -29 219 -44 b 247 -113 233 -82 240 -98 b 277 -154 255 -128 265 -142 b 325 -183 290 -166 306 -176 b 399 -194 344 -191 369 -194 b 477 -181 430 -194 456 -190 b 527 -149 498 -172 515 -162 b 553 -109 540 -136 548 -122 b 560 -74 557 -96 560 -84 b 550 -29 560 -57 556 -42 b 520 10 544 -16 534 -3 b 469 49 507 23 490 36 b 396 97 449 63 425 79 b 274 174 346 129 305 154 b 200 223 243 194 219 210 b 158 252 181 235 168 245 b 135 272 149 259 141 266 b 113 294 129 278 122 285 b 88 328 104 304 96 315 b 67 375 80 342 73 357 b 58 433 61 393 58 412 b 77 515 58 465 65 492 b 121 572 90 537 104 556 b 172 608 138 587 155 599 b 214 628 190 616 204 623 b 187 649 206 633 197 641 b 156 683 176 658 166 669 b 130 732 145 697 137 713 b 119 797 123 750 119 772 b 133 868 119 819 124 843 b 177 938 141 893 156 916 b 260 990 198 959 225 976 b 386 1011 294 1004 336 1011 b 510 988 434 1011 476 1003 b 596 933 545 973 574 954 b 644 865 618 911 634 888 b 660 807 655 842 660 823 b 642 769 660 792 654 779 b 603 753 631 758 618 753 b 564 769 585 753 572 758 b 542 807 556 781 548 793 b 519 847 535 821 528 834 b 488 880 511 859 501 870 b 444 903 476 890 461 897 b 385 913 428 909 408 913 b 315 901 357 913 334 909 b 269 871 296 893 281 883 b 246 833 258 859 250 846 b 239 800 241 820 239 809 b 248 758 239 784 242 770 b 275 722 254 745 263 733 b 319 687 287 710 302 698 b 381 649 337 675 357 663 b 633 488 503 575 587 521 b 662 465 642 482 651 474 b 691 429 672 455 682 443 b 714 381 700 415 707 399 b 724 318 720 362 724 341 b 706 235 724 286 718 258 b 663 176 694 212 679 192 b 611 139 646 161 629 148 b 567 117 594 130 579 122 z m 286 572 b 250 556 276 568 264 562 b 210 531 236 549 223 541 b 177 495 197 522 186 509 b 164 444 168 481 164 464 b 176 394 164 426 168 409 b 222 345 185 380 200 363 b 313 282 244 327 275 306 b 461 190 352 258 401 227 b 503 199 473 192 487 195 b 551 216 520 202 535 208 b 590 247 566 224 579 234 b 606 296 600 259 606 275 b 586 356 606 317 599 337 b 544 403 573 374 559 390 b 522 422 537 409 530 416 b 486 447 515 428 503 436 b 415 493 469 458 446 474 b 286 572 384 513 341 539 z "},"":{"ha":463,"x_min":0,"x_max":0,"o":"m 182 889 b 163 842 182 870 176 855 b 117 824 151 830 135 824 b 70 842 98 824 83 830 b 51 889 58 855 51 870 b 70 935 51 907 58 923 b 117 954 83 948 98 954 b 163 935 135 954 151 948 b 182 889 176 923 182 907 z m 411 889 b 392 842 411 870 405 855 b 346 824 380 830 364 824 b 299 842 327 824 312 830 b 281 889 287 855 281 870 b 299 935 281 907 287 923 b 346 954 312 948 327 954 b 392 935 364 954 380 948 b 411 889 405 923 411 907 z "},"":{"ha":1028,"x_min":0,"x_max":0,"o":"m 678 417 l 761 392 b 725 308 754 359 742 331 b 667 251 708 285 689 266 b 595 217 646 235 622 224 b 515 206 569 209 542 206 b 407 226 476 206 440 212 b 322 283 374 239 345 258 b 266 375 298 308 279 339 b 246 499 253 411 246 452 b 318 709 246 588 270 658 b 519 786 366 760 433 786 b 663 748 572 786 620 773 b 751 626 705 722 735 682 l 671 607 b 656 636 667 615 662 625 b 628 671 650 647 641 659 b 581 699 615 682 599 691 b 517 711 562 707 541 711 b 434 692 484 711 457 705 b 379 642 411 679 393 662 b 349 572 365 621 355 598 b 339 496 342 546 339 521 b 353 402 339 460 344 428 b 390 337 362 376 374 354 b 444 299 405 320 423 307 b 510 286 465 290 487 286 b 547 290 519 286 531 288 b 597 308 563 293 579 299 b 644 347 614 316 630 329 b 678 417 659 364 670 387 z m 514 1011 b 713 971 584 1011 650 998 b 876 862 775 944 829 908 b 986 699 922 816 959 762 b 1026 500 1013 637 1026 570 b 986 301 1026 430 1013 363 b 876 138 959 239 923 185 b 713 28 830 91 776 55 b 514 -12 651 1 584 -12 b 314 28 443 -12 376 1 b 151 138 252 55 198 91 b 42 300 105 184 69 238 b 1 500 15 362 1 429 b 42 700 1 571 15 638 b 152 863 69 762 105 816 b 315 972 199 909 253 945 b 514 1011 377 998 444 1011 z m 514 925 b 349 892 456 925 400 914 b 213 801 297 869 252 839 b 122 667 175 763 144 719 b 88 500 99 615 88 559 b 121 333 88 441 99 385 b 212 198 143 281 173 236 b 347 107 250 159 295 129 b 514 74 399 85 455 74 b 681 107 573 74 629 85 b 816 198 732 129 778 159 b 907 333 854 236 885 281 b 940 500 929 385 940 441 b 906 667 940 559 929 615 b 815 801 884 719 853 763 b 679 892 776 839 731 869 b 514 925 627 914 572 925 z "},"":{"ha":507,"x_min":0,"x_max":0,"o":"m 449 825 l 449 690 b 451 652 449 673 450 660 b 460 625 453 644 456 635 b 469 585 466 606 469 592 b 456 558 469 575 465 566 b 424 547 446 551 436 547 b 401 555 415 547 408 550 b 385 573 395 560 389 566 b 374 594 380 580 376 587 b 368 613 371 602 369 608 b 345 595 363 608 355 602 b 309 574 335 588 323 581 b 258 556 295 567 278 561 b 190 549 238 551 215 549 b 120 560 163 549 140 552 b 71 590 100 567 84 577 b 42 631 58 602 48 616 b 32 679 35 647 32 663 b 52 748 32 708 39 731 b 104 789 66 765 83 779 b 176 812 125 799 149 807 b 256 825 202 817 229 821 b 292 831 270 827 283 829 b 317 836 302 832 310 834 b 337 842 324 838 331 840 b 357 850 343 845 350 847 b 353 884 356 862 355 873 b 342 913 352 895 348 904 b 313 933 335 921 326 928 b 261 940 301 938 283 940 b 181 927 226 940 199 936 b 143 894 163 918 150 907 b 123 860 136 880 129 868 b 92 847 117 851 106 847 b 62 858 80 847 70 851 b 50 885 54 866 50 875 b 58 918 50 893 53 904 b 88 960 63 932 73 946 b 150 996 102 974 123 986 b 254 1011 177 1006 212 1011 b 363 997 300 1011 337 1006 b 421 956 388 987 408 973 b 444 897 434 939 442 919 b 449 825 447 874 449 850 z m 357 776 b 335 770 351 775 344 772 b 308 764 327 768 317 766 b 279 758 298 762 288 760 b 256 754 270 756 262 755 b 158 731 211 747 179 739 b 128 683 138 722 128 706 b 147 643 128 670 134 657 b 208 622 159 629 180 622 b 269 631 228 622 248 625 b 322 660 290 637 307 647 b 350 703 336 672 345 686 b 357 776 355 721 357 745 z "},"":{"ha":782,"x_min":0,"x_max":0,"o":"m 510 351 l 649 122 b 660 101 652 116 656 109 b 665 79 663 94 665 87 b 652 50 665 68 661 58 b 622 38 643 42 633 38 b 598 44 614 38 606 40 b 565 83 590 49 579 62 l 428 300 l 411 328 b 403 350 406 337 403 344 b 410 374 403 357 405 366 b 428 403 416 383 421 393 l 567 622 b 600 660 581 644 592 656 b 619 665 608 663 615 665 b 652 653 632 665 643 661 b 665 622 661 644 665 634 b 659 601 665 615 663 608 b 646 578 655 594 650 586 z m 213 351 l 351 122 b 363 101 355 116 359 109 b 368 79 366 94 368 87 b 355 50 368 68 364 58 b 325 38 346 42 336 38 b 301 44 317 38 309 40 b 268 83 293 49 282 62 l 131 300 l 114 328 b 106 350 108 337 106 344 b 113 374 106 357 108 366 b 131 403 118 383 124 393 l 269 622 b 303 660 283 644 294 656 b 322 665 311 663 318 665 b 355 653 335 665 346 661 b 368 622 364 644 368 634 b 362 601 368 615 366 608 b 349 578 358 594 353 586 z "},"":{"ha":810,"x_min":0,"x_max":0,"o":"m 621 288 l 621 585 l 76 585 l 76 699 l 735 699 l 735 288 z "},"":{"ha":1028,"x_min":0,"x_max":0,"o":"m 289 217 l 289 767 l 479 767 b 577 762 512 767 544 765 b 661 728 610 759 638 747 b 699 680 677 715 690 699 b 714 618 709 661 714 640 b 706 569 714 602 711 586 b 678 520 700 552 691 535 b 630 481 666 505 650 492 b 557 463 610 471 586 464 b 581 451 565 460 573 456 b 608 430 589 447 598 440 b 641 390 617 420 628 407 b 685 324 653 374 668 351 l 751 217 l 643 217 l 594 303 b 551 376 578 332 563 357 b 514 421 538 395 526 410 b 476 444 502 432 489 440 b 431 450 463 448 448 450 l 378 450 l 378 217 z m 378 692 l 378 526 l 486 526 b 524 528 496 526 509 527 b 568 537 540 529 554 532 b 604 561 582 542 594 550 b 619 610 614 572 619 588 b 605 657 619 630 615 646 b 569 681 595 668 583 676 b 524 690 556 686 541 689 b 479 692 508 691 493 692 z m 514 1011 b 713 971 584 1011 650 998 b 876 862 775 944 829 908 b 986 699 922 816 959 762 b 1026 500 1013 637 1026 570 b 986 301 1026 430 1013 363 b 876 138 959 239 923 185 b 713 28 830 91 776 55 b 514 -12 651 1 584 -12 b 314 28 443 -12 376 1 b 151 138 252 55 198 91 b 42 300 105 184 69 238 b 1 500 15 362 1 429 b 42 700 1 571 15 638 b 152 863 69 762 105 816 b 315 972 199 909 253 945 b 514 1011 377 998 444 1011 z m 514 925 b 349 892 456 925 400 914 b 213 801 297 869 252 839 b 122 667 175 763 144 719 b 88 500 99 615 88 559 b 121 333 88 441 99 385 b 212 198 143 281 173 236 b 347 107 250 159 295 129 b 514 74 399 85 455 74 b 681 107 573 74 629 85 b 816 198 732 129 778 159 b 907 333 854 236 885 281 b 940 500 929 385 940 441 b 906 667 940 559 929 615 b 815 801 884 719 853 763 b 679 892 776 839 731 869 b 514 925 627 914 572 925 z "},"":{"ha":463,"x_min":0,"x_max":0,"o":"m 88 933 l 375 933 b 423 927 394 933 409 931 b 443 886 436 923 443 909 b 426 839 443 859 437 844 b 375 832 414 834 397 832 l 88 832 b 61 833 78 832 69 832 b 40 838 53 833 46 835 b 25 851 34 840 29 845 b 19 879 21 858 19 867 b 37 926 19 906 25 922 b 88 933 48 931 65 933 z "},"":{"ha":550,"x_min":0,"x_max":0,"o":"m 88 824 b 102 897 88 850 92 874 b 142 956 112 919 125 939 b 202 997 159 973 179 987 b 275 1011 225 1006 249 1011 b 348 997 301 1011 325 1006 b 408 956 371 987 391 973 b 448 897 425 939 438 919 b 463 824 458 874 463 850 b 448 749 463 797 458 772 b 408 690 438 727 425 707 b 348 649 391 672 371 659 b 275 635 325 640 301 635 b 202 649 249 635 225 640 b 142 690 179 659 159 672 b 102 749 125 707 112 727 b 88 824 92 772 88 797 z m 161 824 b 194 742 161 791 172 764 b 275 708 217 719 244 708 b 356 742 306 708 333 719 b 389 824 378 764 389 791 b 356 904 389 855 378 882 b 275 938 334 926 307 938 b 194 904 243 938 216 926 b 161 824 172 882 161 855 z "},"":{"ha":810,"x_min":0,"x_max":0,"o":"m 735 0 l 76 0 l 76 114 l 735 114 z m 349 176 l 349 449 l 76 449 l 76 563 l 349 563 l 349 835 l 463 835 l 463 563 l 735 563 l 735 449 l 463 449 l 463 176 z "},"":{"ha":463,"x_min":0,"x_max":0,"o":"m 186 563 l 371 563 b 391 562 376 563 383 562 b 413 558 399 561 406 560 b 431 547 420 555 426 552 b 439 525 436 541 439 534 b 433 504 439 516 437 509 b 419 494 430 500 425 496 b 402 490 414 491 408 490 b 388 489 396 489 391 489 l 88 489 b 74 490 85 489 80 489 b 54 494 67 490 61 491 b 38 505 48 496 42 500 b 31 528 33 510 31 518 b 47 572 31 543 36 557 b 85 615 57 587 70 601 b 131 653 100 629 115 642 b 174 683 147 665 162 675 b 256 740 207 706 234 724 b 306 781 277 755 294 769 b 333 814 319 793 328 804 b 340 849 338 824 340 836 b 306 910 340 875 329 896 b 235 931 284 924 260 931 b 165 913 205 931 182 925 b 131 875 147 900 136 888 b 107 831 120 853 113 838 b 79 819 101 823 92 819 b 55 826 73 819 65 822 b 40 856 45 830 40 840 b 51 899 40 869 44 883 b 86 945 59 916 70 931 b 147 981 102 959 122 972 b 233 996 171 991 200 996 b 338 978 277 996 312 990 b 397 937 363 967 383 953 b 423 888 410 921 419 904 b 429 850 427 872 429 859 b 417 793 429 829 425 810 b 381 745 408 776 397 760 b 327 700 366 730 348 715 b 260 653 306 685 284 669 b 197 609 238 638 217 623 b 146 564 176 595 159 580 b 169 563 158 563 166 563 z "},"":{"ha":463,"x_min":0,"x_max":0,"o":"m 340 764 b 435 643 403 744 435 703 b 423 585 435 624 431 604 b 387 533 415 565 403 548 b 325 495 371 517 350 505 b 236 481 300 485 270 481 b 165 488 208 481 185 483 b 115 506 146 492 129 498 b 81 531 101 513 90 521 b 57 558 71 540 63 549 b 36 601 45 575 38 589 b 33 621 34 613 33 620 b 46 645 33 631 38 639 b 74 654 54 651 63 654 b 101 644 87 654 96 651 b 115 621 106 637 111 629 b 152 569 123 601 135 584 b 228 546 169 553 194 546 b 313 576 264 546 292 556 b 343 642 333 596 343 618 b 317 701 343 664 334 684 b 243 726 300 718 275 726 b 217 725 238 726 230 726 b 190 724 204 724 195 724 b 167 731 183 724 175 726 b 154 756 158 736 154 744 b 161 776 154 764 156 771 b 176 786 166 781 171 784 b 192 790 182 788 187 789 b 203 790 197 790 201 790 b 269 801 231 790 254 794 b 303 824 285 808 297 816 b 316 849 310 833 315 841 b 318 863 317 856 318 861 b 295 910 318 879 310 895 b 228 933 280 926 257 933 b 184 926 210 933 196 931 b 154 908 172 922 163 916 b 134 884 146 901 139 893 b 119 857 129 875 124 866 b 102 841 115 849 109 843 b 85 838 95 839 89 838 b 54 851 69 838 59 842 b 47 872 50 861 47 868 b 57 907 47 881 50 893 b 88 948 63 921 74 934 b 144 982 103 961 121 973 b 228 996 168 991 195 996 b 305 985 256 996 282 992 b 361 956 328 977 346 968 b 395 913 376 944 387 929 b 407 863 403 897 407 880 b 399 823 407 847 404 834 b 381 795 394 812 388 803 b 360 776 374 787 367 781 b 340 764 352 771 346 767 z "},"":{"ha":463,"x_min":0,"x_max":0,"o":"m 168 865 l 203 933 b 224 970 211 949 218 961 b 242 990 229 979 235 985 b 265 997 248 994 256 996 b 303 997 275 997 287 997 l 336 997 b 369 995 352 997 363 997 b 378 986 375 994 378 991 b 373 972 378 981 376 977 b 344 940 370 968 360 957 b 284 877 320 915 300 894 b 242 835 268 860 254 846 b 210 811 230 824 219 816 b 185 804 202 806 193 804 b 162 813 175 804 167 807 b 154 829 157 819 154 825 b 157 843 154 834 155 838 b 168 865 159 848 163 855 z "},"":{"ha":767,"x_min":0,"x_max":0,"o":"m 208 83 l 208 -221 b 197 -268 208 -237 204 -252 b 150 -292 189 -284 173 -292 b 108 -275 135 -292 121 -286 b 94 -237 100 -267 95 -254 b 92 -167 92 -221 92 -197 l 92 636 b 93 681 92 656 92 670 b 101 710 94 691 97 700 b 120 727 105 715 111 721 b 153 736 129 733 140 736 b 196 719 169 736 183 731 b 210 687 204 711 209 700 b 213 636 212 673 213 656 l 213 368 b 216 278 213 332 214 302 b 226 217 218 254 222 233 b 242 175 230 200 235 186 b 264 144 248 164 256 154 b 313 108 277 130 293 118 b 379 94 332 99 354 94 b 451 110 400 94 424 100 b 524 175 479 120 503 142 b 549 271 538 199 547 231 b 553 414 552 311 553 358 l 553 636 b 556 687 553 656 554 673 b 571 718 557 700 563 711 b 614 736 583 730 597 736 b 644 728 624 736 634 734 b 664 710 653 723 660 717 b 673 683 669 700 672 691 b 674 638 673 674 674 659 l 674 79 b 673 46 674 68 673 57 b 667 15 672 35 670 25 b 649 -8 663 6 657 -2 b 615 -17 641 -14 630 -17 b 581 -7 600 -17 589 -13 b 564 17 573 0 568 8 b 558 50 560 27 558 38 b 557 85 557 62 557 74 b 538 53 551 75 545 65 b 506 20 530 42 520 31 b 457 -6 493 9 476 1 b 385 -17 438 -13 413 -17 b 316 -8 358 -17 335 -14 b 267 16 297 -2 281 6 b 233 49 254 26 243 37 b 208 83 224 61 216 72 z "},"":{"ha":753,"x_min":0,"x_max":0,"o":"m 275 -276 l 275 432 b 153 460 228 435 187 444 b 68 522 119 477 90 497 b 18 608 46 547 29 576 b 1 708 7 640 1 673 b 10 786 1 734 4 760 b 38 858 16 812 26 836 b 85 919 51 881 66 901 b 151 963 103 937 125 951 b 247 990 188 978 220 988 b 322 994 274 993 299 994 l 751 994 l 751 878 l 654 878 l 654 -276 l 538 -276 l 538 878 l 392 878 l 392 -276 z "},"":{"ha":333,"x_min":0,"x_max":0,"o":"m 243 489 b 221 435 243 468 236 450 b 167 413 206 420 188 413 b 113 435 145 413 127 420 b 90 489 98 450 90 468 b 113 543 90 510 98 528 b 167 565 127 558 145 565 b 221 543 188 565 206 558 b 243 489 236 528 243 510 z "},"":{"ha":463,"x_min":0,"x_max":0,"o":"m 133 -60 b 136 -40 133 -55 134 -48 b 147 -13 138 -31 141 -22 b 167 10 152 -4 159 3 b 203 19 176 16 188 19 b 236 1 222 19 233 13 b 240 -57 239 -11 240 -30 b 315 -83 269 -61 294 -69 b 347 -151 337 -96 347 -119 b 336 -194 347 -166 344 -181 b 301 -231 329 -208 317 -221 b 239 -257 286 -242 265 -250 b 144 -267 213 -263 181 -267 b 123 -266 140 -267 133 -266 b 94 -262 113 -266 103 -264 b 69 -251 84 -259 76 -256 b 58 -231 62 -247 58 -240 b 67 -212 58 -226 61 -220 b 107 -201 72 -205 86 -201 b 151 -201 120 -201 134 -201 b 196 -194 167 -200 182 -198 b 231 -178 210 -191 222 -185 b 246 -147 241 -172 246 -161 b 224 -111 246 -131 239 -119 b 183 -99 210 -103 196 -99 b 147 -91 168 -99 155 -96 b 133 -60 138 -86 133 -75 z "},"":{"ha":463,"x_min":0,"x_max":0,"o":"m 315 940 l 315 536 b 315 519 315 531 315 526 b 310 501 314 513 313 507 b 297 487 307 496 303 491 b 272 481 292 483 283 481 b 247 487 261 481 253 483 b 233 502 241 491 236 496 b 227 522 229 508 228 515 b 226 543 227 530 226 537 l 226 868 b 175 835 207 854 190 843 b 138 816 160 826 148 820 b 112 808 127 812 119 809 b 96 806 105 806 100 806 b 74 814 88 806 81 808 b 63 839 66 819 63 828 b 72 860 63 848 66 855 b 103 876 78 866 88 871 b 126 886 107 878 115 881 b 161 905 136 891 148 897 b 201 933 174 913 187 922 b 238 969 214 943 226 956 b 253 988 243 977 248 983 b 275 994 259 992 266 994 b 299 988 285 994 293 992 b 310 973 304 984 308 979 b 315 955 313 967 314 961 b 315 940 315 949 315 944 z "},"":{"ha":507,"x_min":0,"x_max":0,"o":"m 478 779 b 460 674 478 738 472 703 b 410 603 448 645 431 621 b 339 562 390 584 366 571 b 253 549 312 553 283 549 b 156 566 216 549 183 554 b 85 614 128 578 104 594 b 42 685 66 634 52 658 b 28 772 33 713 28 742 b 88 948 28 847 48 906 b 253 1011 127 990 182 1011 b 338 998 282 1011 311 1007 b 410 956 366 989 390 975 b 460 884 431 937 448 913 b 478 779 472 855 478 820 z m 383 779 b 350 893 383 826 372 864 b 254 936 328 922 296 936 b 156 893 212 936 179 922 b 122 779 134 864 122 826 b 156 666 122 732 134 694 b 254 624 179 638 212 624 b 350 666 296 624 328 638 b 383 779 372 694 383 732 z "},"":{"ha":782,"x_min":0,"x_max":0,"o":"m 272 351 l 136 578 b 123 601 131 586 127 594 b 117 622 119 608 117 615 b 130 653 117 634 121 644 b 163 665 139 661 150 665 b 182 660 167 665 174 663 b 215 622 190 656 201 644 l 354 403 b 372 374 361 393 366 383 b 379 350 377 366 379 357 b 371 328 379 344 376 337 l 354 300 l 217 83 b 184 44 203 62 192 49 b 160 38 176 40 168 38 b 130 50 149 38 139 42 b 117 79 121 58 117 68 b 122 101 117 87 119 94 b 133 122 126 109 130 116 z m 569 351 l 433 578 b 420 601 429 586 424 594 b 414 622 416 608 414 615 b 427 653 414 634 418 644 b 460 665 436 661 447 665 b 479 660 464 665 471 663 b 513 622 488 656 499 644 l 651 403 b 669 374 658 393 664 383 b 676 350 674 366 676 357 b 668 328 676 344 674 337 l 651 300 l 514 83 b 481 44 500 62 489 49 b 457 38 473 40 465 38 b 427 50 446 38 436 42 b 414 79 418 58 414 68 b 419 101 414 87 416 94 b 431 122 423 109 427 116 z "},"":{"ha":1157,"x_min":0,"x_max":0,"o":"m 972 115 l 768 115 b 742 116 760 115 751 116 b 718 121 734 116 725 118 b 700 133 711 124 705 128 b 693 158 695 139 693 147 b 698 176 693 166 695 172 b 718 200 701 181 708 189 l 964 482 b 992 508 977 496 986 504 b 1013 513 998 511 1005 513 b 1050 493 1034 513 1046 506 b 1056 456 1054 480 1056 468 l 1056 185 l 1088 185 b 1104 184 1092 185 1098 184 b 1123 180 1111 184 1117 182 b 1138 169 1129 178 1134 174 b 1144 149 1142 165 1144 158 b 1138 129 1144 140 1142 134 b 1123 119 1134 125 1129 121 b 1105 116 1117 118 1111 116 b 1090 115 1099 116 1094 115 l 1056 115 l 1056 47 b 1055 29 1056 42 1055 36 b 1050 11 1054 23 1053 17 b 1038 -3 1047 6 1043 1 b 1014 -8 1032 -6 1024 -8 b 990 -3 1004 -8 996 -6 b 978 11 985 1 981 6 b 973 29 975 17 973 23 b 972 47 972 36 972 42 z m 794 185 l 972 185 l 972 389 z m 315 940 l 315 536 b 315 519 315 531 315 526 b 310 501 314 513 313 507 b 297 487 307 496 303 491 b 272 481 292 483 283 481 b 247 487 261 481 253 483 b 233 502 241 491 236 496 b 227 522 229 508 228 515 b 226 543 227 530 226 537 l 226 868 b 175 835 207 854 190 843 b 138 816 160 826 148 820 b 112 808 127 812 119 809 b 96 806 105 806 100 806 b 74 814 88 806 81 808 b 63 839 66 819 63 828 b 72 860 63 848 66 855 b 103 876 78 866 88 871 b 126 886 107 878 115 881 b 161 905 136 891 148 897 b 201 933 174 913 187 922 b 238 969 214 943 226 956 b 253 988 243 977 248 983 b 275 994 259 992 266 994 b 299 988 285 994 293 992 b 310 973 304 984 308 979 b 315 955 313 967 314 961 b 315 940 315 949 315 944 z m 228 32 l 858 964 b 885 999 869 980 878 991 b 910 1010 891 1006 900 1010 b 935 998 920 1010 928 1006 b 946 974 942 990 946 982 b 937 949 946 967 943 959 b 919 922 931 938 925 930 l 292 -6 b 267 -33 281 -21 273 -30 b 250 -36 260 -35 255 -36 b 223 -24 239 -36 230 -32 b 213 -4 216 -16 213 -10 b 228 32 213 7 218 19 z "},"":{"ha":1157,"x_min":0,"x_max":0,"o":"m 881 74 l 1065 74 b 1085 73 1071 74 1078 73 b 1108 69 1093 72 1101 71 b 1126 58 1115 66 1121 63 b 1133 36 1131 53 1133 45 b 1128 15 1133 27 1131 20 b 1114 5 1124 11 1119 7 b 1097 1 1108 3 1103 1 b 1082 0 1091 0 1086 0 l 782 0 b 768 1 779 0 775 0 b 749 5 762 1 755 3 b 732 16 742 7 737 11 b 725 39 727 21 725 29 b 741 83 725 54 730 69 b 779 126 752 98 764 113 b 826 165 794 140 809 153 b 868 194 842 176 856 186 b 950 251 901 217 929 235 b 1001 292 971 266 988 280 b 1027 325 1013 304 1022 315 b 1035 360 1032 335 1035 347 b 1001 421 1035 387 1023 407 b 929 442 978 435 954 442 b 859 424 900 442 876 436 b 825 386 842 412 831 399 b 801 342 815 364 807 349 b 774 331 796 334 787 331 b 749 337 767 331 759 333 b 735 367 740 341 735 351 b 746 410 735 380 738 394 b 781 456 753 427 765 442 b 841 492 796 471 816 483 b 928 507 866 502 894 507 b 1032 490 971 507 1006 501 b 1091 448 1058 478 1078 464 b 1117 399 1104 432 1113 416 b 1124 361 1122 383 1124 370 b 1111 304 1124 340 1119 321 b 1076 256 1103 288 1091 272 b 1022 211 1060 241 1042 226 b 954 164 1001 196 978 181 b 891 120 933 149 912 134 b 840 75 870 106 853 91 b 864 74 852 74 860 74 z m 315 940 l 315 536 b 315 519 315 531 315 526 b 310 501 314 513 313 507 b 297 487 307 496 303 491 b 272 481 292 483 283 481 b 247 487 261 481 253 483 b 233 502 241 491 236 496 b 227 522 229 508 228 515 b 226 543 227 530 226 537 l 226 868 b 175 835 207 854 190 843 b 138 816 160 826 148 820 b 112 808 127 812 119 809 b 96 806 105 806 100 806 b 74 814 88 806 81 808 b 63 839 66 819 63 828 b 72 860 63 848 66 855 b 103 876 78 866 88 871 b 126 886 107 878 115 881 b 161 905 136 891 148 897 b 201 933 174 913 187 922 b 238 969 214 943 226 956 b 253 988 243 977 248 983 b 275 994 259 992 266 994 b 299 988 285 994 293 992 b 310 973 304 984 308 979 b 315 955 313 967 314 961 b 315 940 315 949 315 944 z m 228 32 l 858 964 b 885 999 869 980 878 991 b 910 1010 891 1006 900 1010 b 935 998 920 1010 928 1006 b 946 974 942 990 946 982 b 937 949 946 967 943 959 b 919 922 931 938 925 930 l 292 -6 b 267 -33 281 -21 273 -30 b 250 -36 260 -35 255 -36 b 223 -24 239 -36 230 -32 b 213 -4 216 -16 213 -10 b 228 32 213 7 218 19 z "},"":{"ha":1157,"x_min":0,"x_max":0,"o":"m 972 115 l 768 115 b 742 116 760 115 751 116 b 718 121 734 116 725 118 b 700 133 711 124 705 128 b 693 158 695 139 693 147 b 698 176 693 166 695 172 b 718 200 701 181 708 189 l 964 482 b 992 508 977 496 986 504 b 1013 513 998 511 1005 513 b 1050 493 1034 513 1046 506 b 1056 456 1054 480 1056 468 l 1056 185 l 1088 185 b 1104 184 1092 185 1098 184 b 1123 180 1111 184 1117 182 b 1138 169 1129 178 1134 174 b 1144 149 1142 165 1144 158 b 1138 129 1144 140 1142 134 b 1123 119 1134 125 1129 121 b 1105 116 1117 118 1111 116 b 1090 115 1099 116 1094 115 l 1056 115 l 1056 47 b 1055 29 1056 42 1055 36 b 1050 11 1054 23 1053 17 b 1038 -3 1047 6 1043 1 b 1014 -8 1032 -6 1024 -8 b 990 -3 1004 -8 996 -6 b 978 11 985 1 981 6 b 973 29 975 17 973 23 b 972 47 972 36 972 42 z m 794 185 l 972 185 l 972 389 z m 340 764 b 435 643 403 744 435 703 b 423 585 435 624 431 604 b 387 533 415 565 403 548 b 325 495 371 517 350 505 b 236 481 300 485 270 481 b 165 488 208 481 185 483 b 115 506 146 492 129 498 b 81 531 101 513 90 521 b 57 558 71 540 63 549 b 36 601 45 575 38 589 b 33 621 34 613 33 620 b 46 645 33 631 38 639 b 74 654 54 651 63 654 b 101 644 87 654 96 651 b 115 621 106 637 111 629 b 152 569 123 601 135 584 b 228 546 169 553 194 546 b 313 576 264 546 292 556 b 343 642 333 596 343 618 b 317 701 343 664 334 684 b 243 726 300 718 275 726 b 217 725 238 726 230 726 b 190 724 204 724 195 724 b 167 731 183 724 175 726 b 154 756 158 736 154 744 b 161 776 154 764 156 771 b 176 786 166 781 171 784 b 192 790 182 788 187 789 b 203 790 197 790 201 790 b 269 801 231 790 254 794 b 303 824 285 808 297 816 b 316 849 310 833 315 841 b 318 863 317 856 318 861 b 295 910 318 879 310 895 b 228 933 280 926 257 933 b 184 926 210 933 196 931 b 154 908 172 922 163 916 b 134 884 146 901 139 893 b 119 857 129 875 124 866 b 102 841 115 849 109 843 b 85 838 95 839 89 838 b 54 851 69 838 59 842 b 47 872 50 861 47 868 b 57 907 47 881 50 893 b 88 948 63 921 74 934 b 144 982 103 961 121 973 b 228 996 168 991 195 996 b 305 985 256 996 282 992 b 361 956 328 977 346 968 b 395 913 376 944 387 929 b 407 863 403 897 407 880 b 399 823 407 847 404 834 b 381 795 394 812 388 803 b 360 776 374 787 367 781 b 340 764 352 771 346 767 z m 243 32 l 875 964 b 901 999 885 980 894 991 b 926 1010 908 1006 916 1010 b 952 998 937 1010 945 1006 b 963 974 959 990 963 982 b 953 949 963 967 959 959 b 936 922 947 938 942 930 l 307 -6 b 283 -33 297 -21 289 -30 b 267 -36 277 -35 271 -36 b 238 -24 255 -36 245 -32 b 228 -4 231 -16 228 -10 b 232 14 228 2 229 8 b 243 32 235 19 238 25 z "},"":{"ha":738,"x_min":0,"x_max":0,"o":"m 671 -35 b 656 -97 671 -48 666 -68 b 603 -183 645 -125 628 -153 b 506 -259 579 -212 547 -237 b 354 -292 466 -281 415 -292 b 224 -268 304 -292 261 -284 b 131 -206 187 -252 156 -232 b 77 -121 107 -181 89 -152 b 60 -26 66 -89 60 -58 b 94 97 60 20 71 61 b 197 218 116 133 151 174 b 263 283 225 245 247 267 b 299 329 278 300 290 315 b 315 372 307 343 313 357 b 324 428 318 386 321 405 b 326 442 324 431 324 435 b 334 460 327 448 330 454 b 351 476 338 466 344 472 b 381 483 358 481 368 483 b 415 474 395 483 407 480 b 432 453 422 468 428 461 b 438 428 436 444 438 436 b 439 411 439 421 439 415 b 431 335 439 382 436 357 b 406 272 425 313 417 292 b 365 216 394 253 381 234 b 307 160 348 198 329 179 b 255 110 288 141 270 125 b 217 68 240 96 227 82 b 194 25 206 54 199 40 b 186 -25 189 10 186 -6 b 199 -87 186 -46 190 -67 b 235 -140 207 -107 219 -124 b 290 -176 250 -155 269 -167 b 363 -189 312 -184 336 -189 b 445 -170 396 -189 423 -183 b 499 -126 467 -158 485 -143 b 530 -74 513 -110 523 -92 b 544 -31 537 -56 542 -42 b 563 8 549 -19 555 -6 b 608 29 571 22 586 29 b 650 13 622 29 636 24 b 671 -35 664 3 671 -13 z m 368 583 b 314 606 347 583 329 591 b 292 660 299 620 292 638 b 314 714 292 681 299 699 b 368 736 329 729 347 736 b 422 714 389 736 407 729 b 444 660 437 699 444 681 b 422 606 444 638 437 620 b 368 583 407 591 389 583 z "},"":{"ha":956,"x_min":0,"x_max":0,"o":"m 696 288 l 253 288 l 167 65 b 138 4 156 38 147 18 b 90 -17 129 -10 113 -17 b 44 2 72 -17 56 -10 b 26 42 32 15 26 28 b 31 72 26 52 28 62 b 46 111 34 82 39 95 l 361 893 b 382 944 369 913 375 930 b 403 981 388 959 396 972 b 431 1003 411 991 421 998 b 471 1011 442 1009 455 1011 b 508 1003 484 1011 496 1009 b 538 983 520 998 530 992 b 560 945 545 976 553 963 b 582 894 568 927 575 910 l 908 117 b 924 75 916 99 921 85 b 929 44 928 65 929 55 b 911 4 929 31 923 18 b 863 -17 899 -10 883 -17 b 815 5 839 -17 823 -9 b 785 68 806 19 796 40 z m 290 394 l 656 394 l 469 860 z m 565 1125 b 576 1103 571 1115 575 1107 b 579 1089 578 1098 579 1094 b 572 1073 579 1084 577 1079 b 549 1064 566 1067 559 1064 b 523 1071 540 1064 532 1066 b 492 1094 514 1075 504 1083 b 449 1136 480 1104 465 1119 b 389 1200 432 1154 412 1175 b 360 1232 373 1217 364 1227 b 356 1246 357 1237 356 1241 b 365 1255 356 1250 359 1253 b 397 1257 371 1256 381 1257 l 431 1257 b 468 1256 446 1257 459 1257 b 492 1249 477 1256 485 1253 b 510 1230 498 1245 504 1239 b 531 1193 515 1221 522 1209 z "},"":{"ha":956,"x_min":0,"x_max":0,"o":"m 696 288 l 253 288 l 167 65 b 138 4 156 38 147 18 b 90 -17 129 -10 113 -17 b 44 2 72 -17 56 -10 b 26 42 32 15 26 28 b 31 72 26 52 28 62 b 46 111 34 82 39 95 l 361 893 b 382 944 369 913 375 930 b 403 981 388 959 396 972 b 431 1003 411 991 421 998 b 471 1011 442 1009 455 1011 b 508 1003 484 1011 496 1009 b 538 983 520 998 530 992 b 560 945 545 976 553 963 b 582 894 568 927 575 910 l 908 117 b 924 75 916 99 921 85 b 929 44 928 65 929 55 b 911 4 929 31 923 18 b 863 -17 899 -10 883 -17 b 815 5 839 -17 823 -9 b 785 68 806 19 796 40 z m 290 394 l 656 394 l 469 860 z m 415 1125 l 450 1193 b 471 1230 458 1209 465 1221 b 489 1249 476 1239 482 1245 b 513 1256 495 1253 503 1256 b 550 1257 522 1257 534 1257 l 583 1257 b 616 1255 599 1257 610 1256 b 625 1246 622 1253 625 1250 b 620 1232 625 1241 623 1237 b 592 1200 617 1227 607 1217 b 531 1137 568 1175 547 1154 b 489 1094 515 1120 501 1106 b 458 1071 477 1083 466 1075 b 432 1064 449 1066 440 1064 b 409 1073 422 1064 414 1067 b 401 1089 404 1079 401 1084 b 404 1103 401 1094 402 1098 b 415 1125 406 1107 410 1115 z "},"":{"ha":956,"x_min":0,"x_max":0,"o":"m 696 288 l 253 288 l 167 65 b 138 4 156 38 147 18 b 90 -17 129 -10 113 -17 b 44 2 72 -17 56 -10 b 26 42 32 15 26 28 b 31 72 26 52 28 62 b 46 111 34 82 39 95 l 361 893 b 382 944 369 913 375 930 b 403 981 388 959 396 972 b 431 1003 411 991 421 998 b 471 1011 442 1009 455 1011 b 508 1003 484 1011 496 1009 b 538 983 520 998 530 992 b 560 945 545 976 553 963 b 582 894 568 927 575 910 l 908 117 b 924 75 916 99 921 85 b 929 44 928 65 929 55 b 911 4 929 31 923 18 b 863 -17 899 -10 883 -17 b 815 5 839 -17 823 -9 b 785 68 806 19 796 40 z m 290 394 l 656 394 l 469 860 z m 479 1200 l 417 1119 b 398 1095 409 1109 403 1101 b 383 1081 393 1089 388 1084 b 368 1075 379 1078 374 1076 b 347 1074 363 1074 356 1074 l 301 1074 b 289 1076 296 1074 292 1075 b 283 1085 285 1078 283 1081 b 292 1102 283 1088 286 1094 b 307 1121 298 1110 303 1116 l 363 1192 b 394 1232 375 1208 386 1222 b 419 1255 403 1242 411 1250 b 445 1265 427 1260 435 1263 b 482 1268 455 1267 467 1268 b 515 1265 495 1268 506 1267 b 539 1254 523 1263 531 1260 b 563 1231 546 1249 554 1241 b 594 1192 571 1220 581 1207 l 653 1118 b 671 1094 663 1106 669 1098 b 674 1085 673 1091 674 1088 b 665 1076 674 1080 671 1077 b 651 1074 660 1074 655 1074 l 615 1074 b 592 1076 604 1074 596 1075 b 574 1085 584 1077 578 1080 b 543 1119 569 1089 559 1101 z "},"":{"ha":956,"x_min":0,"x_max":0,"o":"m 696 288 l 253 288 l 167 65 b 138 4 156 38 147 18 b 90 -17 129 -10 113 -17 b 44 2 72 -17 56 -10 b 26 42 32 15 26 28 b 31 72 26 52 28 62 b 46 111 34 82 39 95 l 361 893 b 382 944 369 913 375 930 b 403 981 388 959 396 972 b 431 1003 411 991 421 998 b 471 1011 442 1009 455 1011 b 508 1003 484 1011 496 1009 b 538 983 520 998 530 992 b 560 945 545 976 553 963 b 582 894 568 927 575 910 l 908 117 b 924 75 916 99 921 85 b 929 44 928 65 929 55 b 911 4 929 31 923 18 b 863 -17 899 -10 883 -17 b 815 5 839 -17 823 -9 b 785 68 806 19 796 40 z m 290 394 l 656 394 l 469 860 z m 310 1086 b 285 1097 302 1086 294 1090 b 272 1132 277 1103 272 1115 b 278 1167 272 1143 274 1155 b 297 1199 283 1179 289 1190 b 327 1223 306 1209 316 1217 b 367 1232 339 1229 352 1232 b 430 1222 387 1232 408 1228 b 476 1204 452 1215 467 1209 b 523 1187 496 1197 511 1191 b 551 1178 534 1183 544 1180 b 567 1174 558 1176 563 1175 b 578 1174 570 1174 574 1174 b 604 1181 590 1174 599 1176 b 619 1204 610 1186 615 1194 b 630 1226 622 1212 626 1219 b 650 1236 634 1233 641 1236 b 673 1224 657 1236 665 1232 b 685 1192 681 1216 685 1206 b 680 1163 685 1184 683 1175 b 664 1130 677 1152 671 1141 b 633 1103 656 1119 646 1110 b 585 1092 620 1095 604 1092 b 572 1092 580 1092 576 1092 b 554 1096 567 1093 562 1094 b 525 1104 547 1098 537 1100 b 476 1121 513 1108 497 1113 b 457 1128 472 1123 465 1125 b 429 1138 449 1132 439 1135 b 399 1147 419 1141 409 1144 b 375 1150 390 1149 381 1150 b 348 1138 362 1150 353 1146 b 333 1108 343 1130 338 1120 b 326 1095 331 1106 329 1101 b 310 1086 322 1089 317 1086 z "},"":{"ha":956,"x_min":0,"x_max":0,"o":"m 696 288 l 253 288 l 167 65 b 138 4 156 38 147 18 b 90 -17 129 -10 113 -17 b 44 2 72 -17 56 -10 b 26 42 32 15 26 28 b 31 72 26 52 28 62 b 46 111 34 82 39 95 l 361 893 b 382 944 369 913 375 930 b 403 981 388 959 396 972 b 431 1003 411 991 421 998 b 471 1011 442 1009 455 1011 b 508 1003 484 1011 496 1009 b 538 983 520 998 530 992 b 560 945 545 976 553 963 b 582 894 568 927 575 910 l 908 117 b 924 75 916 99 921 85 b 929 44 928 65 929 55 b 911 4 929 31 923 18 b 863 -17 899 -10 883 -17 b 815 5 839 -17 823 -9 b 785 68 806 19 796 40 z m 290 394 l 656 394 l 469 860 z m 429 1149 b 410 1102 429 1130 423 1115 b 364 1083 398 1090 382 1083 b 317 1102 345 1083 330 1090 b 299 1149 305 1115 299 1130 b 317 1195 299 1167 305 1183 b 364 1214 330 1208 345 1214 b 410 1195 382 1214 398 1208 b 429 1149 423 1183 429 1167 z m 658 1149 b 640 1102 658 1130 652 1115 b 593 1083 627 1090 612 1083 b 547 1102 575 1083 559 1090 b 528 1149 534 1115 528 1130 b 547 1195 528 1167 534 1183 b 593 1214 559 1208 575 1214 b 640 1195 612 1214 627 1208 b 658 1149 652 1183 658 1167 z "},"":{"ha":956,"x_min":0,"x_max":0,"o":"m 696 288 l 253 288 l 167 65 b 138 4 156 38 147 18 b 90 -17 129 -10 113 -17 b 44 2 72 -17 56 -10 b 26 42 32 15 26 28 b 31 72 26 52 28 62 b 46 111 34 82 39 95 l 361 893 b 382 944 369 913 375 930 b 403 981 388 959 396 972 b 431 1003 411 991 421 998 b 471 1011 442 1009 455 1011 b 508 1003 484 1011 496 1009 b 538 983 520 998 530 992 b 560 945 545 976 553 963 b 582 894 568 927 575 910 l 908 117 b 924 75 916 99 921 85 b 929 44 928 65 929 55 b 911 4 929 31 923 18 b 863 -17 899 -10 883 -17 b 815 5 839 -17 823 -9 b 785 68 806 19 796 40 z m 290 394 l 656 394 l 469 860 z m 607 1171 b 597 1122 607 1153 604 1137 b 569 1081 591 1106 581 1093 b 528 1053 557 1070 544 1060 b 478 1043 512 1047 495 1043 b 428 1053 460 1043 444 1047 b 387 1081 412 1060 398 1070 b 360 1122 375 1093 366 1106 b 350 1171 353 1137 350 1153 b 360 1221 350 1188 353 1205 b 388 1263 367 1237 377 1250 b 429 1290 400 1275 413 1284 b 479 1300 445 1297 462 1300 b 528 1290 497 1300 513 1297 b 569 1262 544 1283 557 1273 b 597 1221 580 1250 590 1237 b 607 1171 603 1205 607 1188 z m 551 1171 b 531 1223 551 1191 544 1209 b 478 1244 517 1237 499 1244 b 426 1223 457 1244 440 1237 b 406 1171 413 1209 406 1191 b 427 1119 406 1150 413 1133 b 478 1099 441 1106 458 1099 b 530 1119 498 1099 516 1106 b 551 1171 544 1133 551 1150 z "},"":{"ha":1389,"x_min":0,"x_max":0,"o":"m 261 281 l 165 72 b 144 27 157 54 150 39 b 126 0 138 16 132 6 b 108 -13 121 -6 115 -11 b 82 -17 101 -16 92 -17 b 50 -9 69 -17 58 -14 b 31 8 42 -4 35 2 b 21 28 26 15 23 21 b 18 42 19 34 18 39 b 24 70 18 52 20 61 b 42 111 27 79 33 93 l 422 915 b 445 961 431 935 439 950 b 465 985 451 972 458 980 b 494 993 473 989 482 992 b 546 994 506 994 524 994 l 1219 994 b 1251 994 1230 994 1240 994 b 1280 988 1261 993 1271 991 b 1301 972 1289 984 1296 978 b 1310 940 1307 965 1310 954 b 1301 909 1310 926 1307 916 b 1280 894 1296 902 1289 897 b 1251 888 1271 891 1261 889 b 1219 888 1240 888 1230 888 l 797 888 l 797 568 l 1185 568 b 1216 567 1195 568 1205 568 b 1245 561 1227 567 1236 565 b 1267 545 1254 557 1261 552 b 1275 514 1272 538 1275 528 b 1267 483 1275 500 1272 490 b 1245 467 1261 476 1254 471 b 1216 462 1236 464 1227 462 b 1185 461 1205 461 1195 461 l 797 461 l 797 107 l 1235 107 b 1267 106 1245 107 1256 107 b 1297 101 1278 106 1288 104 b 1318 85 1305 97 1313 92 b 1326 54 1324 78 1326 68 b 1318 23 1326 40 1324 30 b 1297 7 1313 16 1305 11 b 1267 1 1288 3 1278 1 b 1235 0 1257 0 1246 0 l 776 0 b 718 3 752 0 733 1 b 684 17 703 5 692 9 b 668 50 676 24 671 35 b 664 111 665 65 664 85 l 664 281 z m 310 388 l 664 388 l 664 890 l 540 890 z "},"":{"ha":1013,"x_min":0,"x_max":0,"o":"m 547 -17 l 538 -51 b 572 -60 547 -53 558 -56 b 613 -77 586 -63 600 -69 b 646 -108 625 -85 637 -95 b 660 -158 655 -121 660 -138 b 629 -231 660 -190 650 -214 b 560 -269 609 -248 586 -261 b 485 -283 534 -277 509 -281 b 438 -285 461 -284 445 -285 b 418 -284 434 -285 427 -284 b 390 -280 409 -284 399 -282 b 364 -269 380 -278 371 -274 b 353 -247 356 -264 353 -256 b 373 -222 353 -234 359 -226 b 433 -214 386 -219 406 -216 b 503 -210 464 -213 487 -212 b 543 -192 520 -208 533 -202 b 558 -157 553 -181 558 -170 b 538 -118 558 -141 551 -128 b 500 -103 524 -108 511 -103 b 488 -105 498 -103 494 -103 b 476 -107 482 -106 478 -107 b 451 -95 469 -107 461 -103 b 438 -65 442 -87 438 -77 b 448 -43 438 -57 441 -50 b 486 -14 455 -37 468 -27 b 331 24 425 -6 373 6 b 218 103 289 41 251 68 b 113 279 172 150 137 209 b 76 497 88 350 76 422 b 111 708 76 575 88 645 b 207 870 134 771 166 825 b 353 974 248 915 297 950 b 540 1011 410 999 473 1011 b 670 993 588 1011 632 1005 b 772 948 709 981 742 966 b 846 887 801 930 825 909 b 895 822 866 864 883 842 b 923 765 908 801 917 782 b 932 726 929 747 932 735 b 919 688 932 713 928 700 b 878 668 910 675 896 668 b 851 676 868 668 859 671 b 828 695 843 681 835 687 b 810 722 822 703 815 712 b 794 750 804 731 799 741 b 747 816 781 774 766 796 b 688 865 729 836 709 852 b 631 892 673 875 654 883 b 546 904 609 900 580 904 b 435 885 511 904 474 898 b 327 820 396 873 360 851 b 245 694 294 789 267 747 b 213 492 223 641 213 573 b 244 292 213 410 223 344 b 324 169 266 240 292 199 b 429 107 356 139 391 118 b 535 90 467 96 502 90 b 715 147 607 90 667 109 b 824 308 763 185 800 239 b 842 347 828 321 834 334 b 883 365 850 359 864 365 b 923 350 898 365 911 360 b 940 311 934 340 940 327 b 931 258 940 297 937 279 b 902 188 925 236 916 213 b 851 115 889 164 872 139 b 777 49 831 91 806 69 b 676 1 748 29 714 13 b 547 -17 638 -11 595 -17 z "},"":{"ha":882,"x_min":0,"x_max":0,"o":"m 254 888 l 254 568 l 679 568 b 710 567 689 568 700 568 b 739 562 721 567 731 565 b 760 546 747 559 754 553 b 768 515 765 538 768 528 b 760 484 768 501 765 491 b 739 468 754 477 747 472 b 710 462 731 464 721 462 b 679 461 700 461 689 461 l 254 461 l 254 107 l 736 107 b 767 106 746 107 757 107 b 797 101 778 106 788 104 b 819 85 806 97 814 92 b 828 54 825 78 828 68 b 819 22 828 40 825 30 b 798 6 814 15 807 9 b 768 1 789 3 779 1 b 736 0 757 0 746 0 l 232 0 l 194 0 b 172 2 185 0 178 1 b 156 8 166 3 160 6 b 140 19 151 11 146 15 b 123 51 130 29 124 39 b 121 111 122 63 121 83 l 121 883 b 122 939 121 907 121 926 b 139 974 123 952 129 963 b 170 992 148 984 159 990 b 232 994 182 994 202 994 l 717 994 b 748 994 727 994 737 994 b 778 988 759 993 769 991 b 800 973 787 985 794 980 b 808 942 806 966 808 956 b 800 910 808 928 806 917 b 778 894 794 902 787 897 b 749 888 770 891 760 889 b 717 888 738 888 727 888 z m 507 1125 b 518 1103 513 1115 516 1107 b 521 1089 520 1098 521 1094 b 513 1073 521 1084 518 1079 b 490 1064 508 1067 500 1064 b 465 1071 482 1064 473 1066 b 433 1094 456 1075 445 1083 b 390 1136 421 1104 407 1119 b 331 1200 374 1154 354 1175 b 302 1232 315 1217 305 1227 b 297 1246 299 1237 297 1241 b 306 1255 297 1250 300 1253 b 339 1257 312 1256 323 1257 l 372 1257 b 410 1256 388 1257 400 1257 b 433 1249 419 1256 427 1253 b 451 1230 440 1245 446 1239 b 472 1193 457 1221 464 1209 z "},"":{"ha":882,"x_min":0,"x_max":0,"o":"m 254 888 l 254 568 l 679 568 b 710 567 689 568 700 568 b 739 562 721 567 731 565 b 760 546 747 559 754 553 b 768 515 765 538 768 528 b 760 484 768 501 765 491 b 739 468 754 477 747 472 b 710 462 731 464 721 462 b 679 461 700 461 689 461 l 254 461 l 254 107 l 736 107 b 767 106 746 107 757 107 b 797 101 778 106 788 104 b 819 85 806 97 814 92 b 828 54 825 78 828 68 b 819 22 828 40 825 30 b 798 6 814 15 807 9 b 768 1 789 3 779 1 b 736 0 757 0 746 0 l 232 0 l 194 0 b 172 2 185 0 178 1 b 156 8 166 3 160 6 b 140 19 151 11 146 15 b 123 51 130 29 124 39 b 121 111 122 63 121 83 l 121 883 b 122 939 121 907 121 926 b 139 974 123 952 129 963 b 170 992 148 984 159 990 b 232 994 182 994 202 994 l 717 994 b 748 994 727 994 737 994 b 778 988 759 993 769 991 b 800 973 787 985 794 980 b 808 942 806 966 808 956 b 800 910 808 928 806 917 b 778 894 794 902 787 897 b 749 888 770 891 760 889 b 717 888 738 888 727 888 z m 378 1125 l 413 1193 b 433 1230 421 1209 428 1221 b 451 1249 439 1239 445 1245 b 475 1256 458 1253 466 1256 b 513 1257 484 1257 497 1257 l 546 1257 b 578 1255 562 1257 572 1256 b 588 1246 584 1253 588 1250 b 583 1232 588 1241 586 1237 b 554 1200 579 1227 570 1217 b 494 1137 530 1175 510 1154 b 451 1094 478 1120 463 1106 b 420 1071 439 1083 429 1075 b 394 1064 411 1066 403 1064 b 372 1073 384 1064 377 1067 b 364 1089 366 1079 364 1084 b 367 1103 364 1094 365 1098 b 378 1125 369 1107 372 1115 z "},"":{"ha":882,"x_min":0,"x_max":0,"o":"m 254 888 l 254 568 l 679 568 b 710 567 689 568 700 568 b 739 562 721 567 731 565 b 760 546 747 559 754 553 b 768 515 765 538 768 528 b 760 484 768 501 765 491 b 739 468 754 477 747 472 b 710 462 731 464 721 462 b 679 461 700 461 689 461 l 254 461 l 254 107 l 736 107 b 767 106 746 107 757 107 b 797 101 778 106 788 104 b 819 85 806 97 814 92 b 828 54 825 78 828 68 b 819 22 828 40 825 30 b 798 6 814 15 807 9 b 768 1 789 3 779 1 b 736 0 757 0 746 0 l 232 0 l 194 0 b 172 2 185 0 178 1 b 156 8 166 3 160 6 b 140 19 151 11 146 15 b 123 51 130 29 124 39 b 121 111 122 63 121 83 l 121 883 b 122 939 121 907 121 926 b 139 974 123 952 129 963 b 170 992 148 984 159 990 b 232 994 182 994 202 994 l 717 994 b 748 994 727 994 737 994 b 778 988 759 993 769 991 b 800 973 787 985 794 980 b 808 942 806 966 808 956 b 800 910 808 928 806 917 b 778 894 794 902 787 897 b 749 888 770 891 760 889 b 717 888 738 888 727 888 z m 442 1200 l 379 1119 b 360 1095 372 1109 366 1101 b 346 1081 355 1089 350 1084 b 331 1075 341 1078 336 1076 b 310 1074 325 1074 318 1074 l 264 1074 b 251 1076 258 1074 254 1075 b 246 1085 248 1078 246 1081 b 255 1102 246 1088 249 1094 b 269 1121 261 1110 266 1116 l 325 1192 b 357 1232 338 1208 349 1222 b 381 1255 365 1242 373 1250 b 408 1265 389 1260 398 1263 b 444 1268 417 1267 430 1268 b 477 1265 457 1268 468 1267 b 501 1254 486 1263 494 1260 b 525 1231 509 1249 517 1241 b 557 1192 533 1220 544 1207 l 615 1118 b 633 1094 625 1106 631 1098 b 636 1085 635 1091 636 1088 b 628 1076 636 1080 633 1077 b 614 1074 622 1074 618 1074 l 578 1074 b 554 1076 567 1074 559 1075 b 536 1085 547 1077 541 1080 b 506 1119 531 1089 521 1101 z "},"":{"ha":882,"x_min":0,"x_max":0,"o":"m 254 888 l 254 568 l 679 568 b 710 567 689 568 700 568 b 739 562 721 567 731 565 b 760 546 747 559 754 553 b 768 515 765 538 768 528 b 760 484 768 501 765 491 b 739 468 754 477 747 472 b 710 462 731 464 721 462 b 679 461 700 461 689 461 l 254 461 l 254 107 l 736 107 b 767 106 746 107 757 107 b 797 101 778 106 788 104 b 819 85 806 97 814 92 b 828 54 825 78 828 68 b 819 22 828 40 825 30 b 798 6 814 15 807 9 b 768 1 789 3 779 1 b 736 0 757 0 746 0 l 232 0 l 194 0 b 172 2 185 0 178 1 b 156 8 166 3 160 6 b 140 19 151 11 146 15 b 123 51 130 29 124 39 b 121 111 122 63 121 83 l 121 883 b 122 939 121 907 121 926 b 139 974 123 952 129 963 b 170 992 148 984 159 990 b 232 994 182 994 202 994 l 717 994 b 748 994 727 994 737 994 b 778 988 759 993 769 991 b 800 973 787 985 794 980 b 808 942 806 966 808 956 b 800 910 808 928 806 917 b 778 894 794 902 787 897 b 749 888 770 891 760 889 b 717 888 738 888 727 888 z m 392 1149 b 373 1102 392 1130 385 1115 b 326 1083 360 1090 345 1083 b 280 1102 308 1083 292 1090 b 261 1149 267 1115 261 1130 b 280 1195 261 1167 267 1183 b 326 1214 292 1208 308 1214 b 373 1195 345 1214 360 1208 b 392 1149 385 1183 392 1167 z m 621 1149 b 602 1102 621 1130 615 1115 b 556 1083 590 1090 574 1083 b 509 1102 537 1083 522 1090 b 490 1149 497 1115 490 1130 b 509 1195 490 1167 497 1183 b 556 1214 522 1208 537 1214 b 602 1195 574 1214 590 1208 b 621 1149 615 1183 621 1167 z "},"":{"ha":406,"x_min":0,"x_max":0,"o":"m 269 901 l 269 93 b 267 37 269 69 269 50 b 251 4 266 23 261 13 b 232 -10 247 0 240 -5 b 203 -17 224 -14 214 -17 b 177 -12 194 -17 186 -15 b 154 3 168 -9 161 -4 b 138 37 145 12 140 23 b 136 93 137 50 136 69 l 136 901 b 138 958 136 925 137 944 b 154 990 140 971 145 982 b 173 1004 159 995 165 1000 b 203 1011 181 1009 191 1011 b 228 1006 211 1011 220 1009 b 251 990 237 1003 245 998 b 267 957 261 982 266 971 b 269 901 269 943 269 925 z m 292 1125 b 303 1103 297 1115 301 1107 b 306 1089 305 1098 306 1094 b 298 1073 306 1084 303 1079 b 275 1064 293 1067 285 1064 b 249 1071 267 1064 258 1066 b 218 1094 241 1075 230 1083 b 175 1136 206 1104 192 1119 b 115 1200 158 1154 138 1175 b 87 1232 100 1217 90 1227 b 82 1246 84 1237 82 1241 b 91 1255 82 1250 85 1253 b 124 1257 97 1256 108 1257 l 157 1257 b 194 1256 173 1257 185 1257 b 218 1249 204 1256 212 1253 b 236 1230 225 1245 231 1239 b 257 1193 242 1221 249 1209 z "},"":{"ha":406,"x_min":0,"x_max":0,"o":"m 269 901 l 269 93 b 267 37 269 69 269 50 b 251 4 266 23 261 13 b 232 -10 247 0 240 -5 b 203 -17 224 -14 214 -17 b 177 -12 194 -17 186 -15 b 154 3 168 -9 161 -4 b 138 37 145 12 140 23 b 136 93 137 50 136 69 l 136 901 b 138 958 136 925 137 944 b 154 990 140 971 145 982 b 173 1004 159 995 165 1000 b 203 1011 181 1009 191 1011 b 228 1006 211 1011 220 1009 b 251 990 237 1003 245 998 b 267 957 261 982 266 971 b 269 901 269 943 269 925 z m 142 1125 l 176 1193 b 197 1230 185 1209 192 1221 b 215 1249 203 1239 209 1245 b 239 1256 222 1253 230 1256 b 276 1257 248 1257 261 1257 l 310 1257 b 342 1255 325 1257 336 1256 b 351 1246 348 1253 351 1250 b 347 1232 351 1241 350 1237 b 318 1200 343 1227 334 1217 b 258 1137 294 1175 274 1154 b 215 1094 241 1120 227 1106 b 184 1071 203 1083 193 1075 b 158 1064 175 1066 167 1064 b 135 1073 148 1064 141 1067 b 128 1089 130 1079 128 1084 b 131 1103 128 1094 129 1098 b 142 1125 132 1107 136 1115 z "},"":{"ha":406,"x_min":0,"x_max":0,"o":"m 269 901 l 269 93 b 267 37 269 69 269 50 b 251 4 266 23 261 13 b 232 -10 247 0 240 -5 b 203 -17 224 -14 214 -17 b 177 -12 194 -17 186 -15 b 154 3 168 -9 161 -4 b 138 37 145 12 140 23 b 136 93 137 50 136 69 l 136 901 b 138 958 136 925 137 944 b 154 990 140 971 145 982 b 173 1004 159 995 165 1000 b 203 1011 181 1009 191 1011 b 228 1006 211 1011 220 1009 b 251 990 237 1003 245 998 b 267 957 261 982 266 971 b 269 901 269 943 269 925 z m 206 1200 l 143 1119 b 124 1095 136 1109 129 1101 b 110 1081 119 1089 114 1084 b 94 1075 105 1078 100 1076 b 74 1074 89 1074 82 1074 l 28 1074 b 15 1076 22 1074 18 1075 b 10 1085 12 1078 10 1081 b 19 1102 10 1088 13 1094 b 33 1121 25 1110 30 1116 l 89 1192 b 121 1232 102 1208 113 1222 b 145 1255 129 1242 137 1250 b 172 1265 153 1260 162 1263 b 208 1268 181 1267 194 1268 b 241 1265 221 1268 232 1267 b 265 1254 250 1263 258 1260 b 289 1231 273 1249 281 1241 b 321 1192 297 1220 308 1207 l 379 1118 b 397 1094 389 1106 395 1098 b 400 1085 399 1091 400 1088 b 392 1076 400 1080 397 1077 b 378 1074 386 1074 381 1074 l 342 1074 b 318 1076 331 1074 323 1075 b 300 1085 311 1077 305 1080 b 269 1119 295 1089 285 1101 z "},"":{"ha":406,"x_min":0,"x_max":0,"o":"m 269 901 l 269 93 b 267 37 269 69 269 50 b 251 4 266 23 261 13 b 232 -10 247 0 240 -5 b 203 -17 224 -14 214 -17 b 177 -12 194 -17 186 -15 b 154 3 168 -9 161 -4 b 138 37 145 12 140 23 b 136 93 137 50 136 69 l 136 901 b 138 958 136 925 137 944 b 154 990 140 971 145 982 b 173 1004 159 995 165 1000 b 203 1011 181 1009 191 1011 b 228 1006 211 1011 220 1009 b 251 990 237 1003 245 998 b 267 957 261 982 266 971 b 269 901 269 943 269 925 z m 156 1149 b 137 1102 156 1130 149 1115 b 90 1083 124 1090 109 1083 b 44 1102 72 1083 56 1090 b 25 1149 31 1115 25 1130 b 44 1195 25 1167 31 1183 b 90 1214 56 1208 72 1214 b 137 1195 109 1214 124 1208 b 156 1149 149 1183 156 1167 z m 385 1149 b 366 1102 385 1130 378 1115 b 319 1083 353 1090 338 1083 b 273 1102 301 1083 285 1090 b 254 1149 260 1115 254 1130 b 273 1195 254 1167 260 1183 b 319 1214 285 1208 301 1214 b 366 1195 338 1214 353 1208 b 385 1149 378 1183 385 1167 z "},"":{"ha":1013,"x_min":0,"x_max":0,"o":"m 118 453 l 75 453 b 28 458 57 453 42 455 b 7 497 14 462 7 475 b 28 536 7 519 14 532 b 75 542 42 540 57 542 l 118 542 l 118 883 b 122 943 118 908 119 928 b 137 976 124 958 129 969 b 171 991 145 984 156 989 b 231 994 186 993 206 994 l 472 994 b 558 992 499 994 528 994 b 649 976 588 990 618 985 b 742 937 680 968 711 955 b 828 861 772 919 801 894 b 914 692 869 811 898 755 b 938 499 930 629 938 564 b 929 382 938 466 935 427 b 894 245 924 337 912 291 b 814 117 876 199 849 156 b 674 26 779 77 732 47 b 638 15 661 22 649 18 b 602 8 628 13 616 10 b 553 3 589 6 572 5 b 481 1 534 2 510 1 b 371 0 451 0 414 0 l 214 0 b 158 6 190 0 171 2 b 130 27 145 10 136 17 b 119 67 124 37 120 50 b 118 128 119 83 118 104 z m 458 453 l 251 453 l 251 107 l 457 107 b 542 111 488 107 517 108 b 610 126 567 114 590 119 b 669 156 631 134 651 144 b 721 206 687 169 704 185 b 767 287 741 230 757 257 b 791 374 778 317 786 346 b 800 449 796 403 799 428 b 801 492 801 471 801 485 b 777 668 801 558 793 617 b 721 786 761 719 742 758 b 674 835 706 806 691 822 b 618 866 658 848 639 858 b 545 883 597 874 572 879 b 449 888 518 886 486 888 l 251 888 l 251 542 l 458 542 b 506 536 476 542 492 540 b 526 497 519 532 526 519 b 506 458 526 475 519 462 b 458 453 492 455 476 453 z "},"":{"ha":1013,"x_min":0,"x_max":0,"o":"m 776 197 l 772 904 b 772 951 771 925 771 941 b 781 979 773 960 776 970 b 801 1001 784 987 791 994 b 835 1011 810 1008 822 1011 b 882 992 853 1011 869 1005 b 898 959 891 983 897 972 b 900 904 899 946 900 927 l 900 118 b 897 44 900 84 899 59 b 872 3 894 28 886 15 b 818 -17 856 -10 838 -17 b 790 -12 807 -17 798 -15 b 769 1 783 -10 776 -5 b 747 26 762 8 755 16 b 721 64 740 37 731 49 l 236 788 l 242 90 b 241 43 242 68 241 52 b 233 15 241 34 238 25 b 213 -6 230 8 223 1 b 178 -17 202 -13 191 -17 b 131 3 159 -17 144 -10 b 115 35 121 11 116 22 b 113 90 113 49 113 67 l 113 882 b 113 924 113 899 113 913 b 116 953 114 936 115 946 b 124 974 117 961 120 968 b 139 992 127 980 132 986 b 156 1003 142 994 147 998 b 192 1011 164 1009 176 1011 b 239 994 212 1011 228 1005 b 283 933 250 982 265 962 z m 338 1086 b 313 1097 330 1086 322 1090 b 300 1132 304 1103 300 1115 b 306 1167 300 1143 302 1155 b 325 1199 310 1179 317 1190 b 355 1223 333 1209 343 1217 b 394 1232 366 1229 380 1232 b 458 1222 415 1232 436 1228 b 504 1204 479 1215 495 1209 b 551 1187 524 1197 539 1191 b 578 1178 562 1183 572 1180 b 594 1174 585 1176 591 1175 b 606 1174 598 1174 602 1174 b 632 1181 618 1174 626 1176 b 647 1204 638 1186 643 1194 b 658 1226 650 1212 653 1219 b 678 1236 662 1233 669 1236 b 701 1224 685 1236 693 1232 b 713 1192 709 1216 713 1206 b 708 1163 713 1184 711 1175 b 692 1130 704 1152 699 1141 b 661 1103 684 1119 674 1110 b 613 1092 648 1095 632 1092 b 599 1092 608 1092 603 1092 b 582 1096 595 1093 589 1094 b 553 1104 575 1098 565 1100 b 504 1121 541 1108 525 1113 b 485 1128 500 1123 493 1125 b 457 1138 476 1132 467 1135 b 427 1147 447 1141 437 1144 b 403 1150 417 1149 409 1150 b 376 1138 390 1150 381 1146 b 361 1108 371 1130 366 1120 b 353 1095 359 1106 357 1101 b 338 1086 350 1089 345 1086 z "},"":{"ha":1085,"x_min":0,"x_max":0,"o":"m 1014 497 b 989 312 1014 435 1006 373 b 908 147 972 250 945 195 b 763 28 870 98 822 59 b 547 -17 703 -2 631 -17 b 377 8 482 -17 426 -9 b 251 72 328 24 287 45 b 164 165 216 99 187 130 b 108 275 141 200 122 237 b 79 390 94 313 85 351 b 71 497 74 428 71 464 b 92 668 71 551 78 608 b 168 835 107 728 132 784 b 313 961 204 886 253 928 b 544 1011 374 994 451 1011 b 768 963 633 1011 708 995 b 913 840 828 931 876 890 b 990 674 949 790 975 735 b 1014 497 1006 614 1014 555 z m 878 497 b 861 643 878 553 872 601 b 817 751 850 685 835 721 b 753 826 798 781 777 806 b 681 873 730 846 706 861 b 607 897 656 884 631 893 b 542 904 583 902 561 904 b 411 876 494 904 450 895 b 310 804 372 857 338 833 b 258 733 288 784 271 760 b 227 647 245 705 235 677 b 211 559 219 618 214 588 b 207 481 208 530 207 504 b 233 317 207 419 216 365 b 306 194 251 269 275 228 b 413 117 336 161 372 135 b 542 90 453 99 496 90 b 607 97 561 90 583 93 b 681 122 631 102 656 110 b 753 169 706 133 730 149 b 817 244 777 189 798 214 b 861 351 835 274 850 310 b 878 497 872 393 878 442 z m 608 1125 b 619 1103 614 1115 618 1107 b 622 1089 621 1098 622 1094 b 615 1073 622 1084 620 1079 b 592 1064 609 1067 602 1064 b 566 1071 583 1064 575 1066 b 535 1094 557 1075 547 1083 b 492 1136 523 1104 508 1119 b 432 1200 475 1154 455 1175 b 403 1232 416 1217 407 1227 b 399 1246 400 1237 399 1241 b 408 1255 399 1250 402 1253 b 440 1257 414 1256 425 1257 l 474 1257 b 511 1256 489 1257 502 1257 b 535 1249 520 1256 528 1253 b 553 1230 541 1245 547 1239 b 574 1193 558 1221 565 1209 z "},"":{"ha":1085,"x_min":0,"x_max":0,"o":"m 1014 497 b 989 312 1014 435 1006 373 b 908 147 972 250 945 195 b 763 28 870 98 822 59 b 547 -17 703 -2 631 -17 b 377 8 482 -17 426 -9 b 251 72 328 24 287 45 b 164 165 216 99 187 130 b 108 275 141 200 122 237 b 79 390 94 313 85 351 b 71 497 74 428 71 464 b 92 668 71 551 78 608 b 168 835 107 728 132 784 b 313 961 204 886 253 928 b 544 1011 374 994 451 1011 b 768 963 633 1011 708 995 b 913 840 828 931 876 890 b 990 674 949 790 975 735 b 1014 497 1006 614 1014 555 z m 878 497 b 861 643 878 553 872 601 b 817 751 850 685 835 721 b 753 826 798 781 777 806 b 681 873 730 846 706 861 b 607 897 656 884 631 893 b 542 904 583 902 561 904 b 411 876 494 904 450 895 b 310 804 372 857 338 833 b 258 733 288 784 271 760 b 227 647 245 705 235 677 b 211 559 219 618 214 588 b 207 481 208 530 207 504 b 233 317 207 419 216 365 b 306 194 251 269 275 228 b 413 117 336 161 372 135 b 542 90 453 99 496 90 b 607 97 561 90 583 93 b 681 122 631 102 656 110 b 753 169 706 133 730 149 b 817 244 777 189 798 214 b 861 351 835 274 850 310 b 878 497 872 393 878 442 z m 479 1125 l 514 1193 b 535 1230 522 1209 529 1221 b 553 1249 540 1239 546 1245 b 576 1256 559 1253 567 1256 b 614 1257 586 1257 598 1257 l 647 1257 b 680 1255 663 1257 674 1256 b 689 1246 686 1253 689 1250 b 684 1232 689 1241 687 1237 b 656 1200 681 1227 671 1217 b 595 1137 631 1175 611 1154 b 553 1094 579 1120 565 1106 b 522 1071 541 1083 530 1075 b 496 1064 513 1066 504 1064 b 473 1073 486 1064 478 1067 b 465 1089 468 1079 465 1084 b 468 1103 465 1094 466 1098 b 479 1125 470 1107 474 1115 z "},"":{"ha":1085,"x_min":0,"x_max":0,"o":"m 1014 497 b 989 312 1014 435 1006 373 b 908 147 972 250 945 195 b 763 28 870 98 822 59 b 547 -17 703 -2 631 -17 b 377 8 482 -17 426 -9 b 251 72 328 24 287 45 b 164 165 216 99 187 130 b 108 275 141 200 122 237 b 79 390 94 313 85 351 b 71 497 74 428 71 464 b 92 668 71 551 78 608 b 168 835 107 728 132 784 b 313 961 204 886 253 928 b 544 1011 374 994 451 1011 b 768 963 633 1011 708 995 b 913 840 828 931 876 890 b 990 674 949 790 975 735 b 1014 497 1006 614 1014 555 z m 878 497 b 861 643 878 553 872 601 b 817 751 850 685 835 721 b 753 826 798 781 777 806 b 681 873 730 846 706 861 b 607 897 656 884 631 893 b 542 904 583 902 561 904 b 411 876 494 904 450 895 b 310 804 372 857 338 833 b 258 733 288 784 271 760 b 227 647 245 705 235 677 b 211 559 219 618 214 588 b 207 481 208 530 207 504 b 233 317 207 419 216 365 b 306 194 251 269 275 228 b 413 117 336 161 372 135 b 542 90 453 99 496 90 b 607 97 561 90 583 93 b 681 122 631 102 656 110 b 753 169 706 133 730 149 b 817 244 777 189 798 214 b 861 351 835 274 850 310 b 878 497 872 393 878 442 z m 543 1200 l 481 1119 b 462 1095 473 1109 467 1101 b 447 1081 457 1089 452 1084 b 432 1075 443 1078 438 1076 b 411 1074 426 1074 419 1074 l 365 1074 b 353 1076 360 1074 356 1075 b 347 1085 349 1078 347 1081 b 356 1102 347 1088 350 1094 b 371 1121 362 1110 367 1116 l 426 1192 b 458 1232 439 1208 450 1222 b 483 1255 467 1242 475 1250 b 509 1265 491 1260 499 1263 b 546 1268 519 1267 531 1268 b 578 1265 559 1268 570 1267 b 603 1254 587 1263 595 1260 b 626 1231 610 1249 618 1241 b 658 1192 635 1220 645 1207 l 717 1118 b 735 1094 727 1106 733 1098 b 738 1085 737 1091 738 1088 b 729 1076 738 1080 735 1077 b 715 1074 724 1074 719 1074 l 679 1074 b 656 1076 668 1074 660 1075 b 638 1085 648 1077 642 1080 b 607 1119 633 1089 623 1101 z "},"":{"ha":1085,"x_min":0,"x_max":0,"o":"m 1014 497 b 989 312 1014 435 1006 373 b 908 147 972 250 945 195 b 763 28 870 98 822 59 b 547 -17 703 -2 631 -17 b 377 8 482 -17 426 -9 b 251 72 328 24 287 45 b 164 165 216 99 187 130 b 108 275 141 200 122 237 b 79 390 94 313 85 351 b 71 497 74 428 71 464 b 92 668 71 551 78 608 b 168 835 107 728 132 784 b 313 961 204 886 253 928 b 544 1011 374 994 451 1011 b 768 963 633 1011 708 995 b 913 840 828 931 876 890 b 990 674 949 790 975 735 b 1014 497 1006 614 1014 555 z m 878 497 b 861 643 878 553 872 601 b 817 751 850 685 835 721 b 753 826 798 781 777 806 b 681 873 730 846 706 861 b 607 897 656 884 631 893 b 542 904 583 902 561 904 b 411 876 494 904 450 895 b 310 804 372 857 338 833 b 258 733 288 784 271 760 b 227 647 245 705 235 677 b 211 559 219 618 214 588 b 207 481 208 530 207 504 b 233 317 207 419 216 365 b 306 194 251 269 275 228 b 413 117 336 161 372 135 b 542 90 453 99 496 90 b 607 97 561 90 583 93 b 681 122 631 102 656 110 b 753 169 706 133 730 149 b 817 244 777 189 798 214 b 861 351 835 274 850 310 b 878 497 872 393 878 442 z m 374 1086 b 349 1097 366 1086 358 1090 b 336 1132 341 1103 336 1115 b 342 1167 336 1143 338 1155 b 361 1199 347 1179 353 1190 b 391 1223 369 1209 379 1217 b 431 1232 403 1229 416 1232 b 494 1222 451 1232 472 1228 b 540 1204 516 1215 531 1209 b 587 1187 560 1197 575 1191 b 615 1178 598 1183 608 1180 b 631 1174 622 1176 627 1175 b 642 1174 634 1174 638 1174 b 668 1181 654 1174 663 1176 b 683 1204 674 1186 679 1194 b 694 1226 686 1212 690 1219 b 714 1236 698 1233 705 1236 b 737 1224 721 1236 729 1232 b 749 1192 745 1216 749 1206 b 744 1163 749 1184 747 1175 b 728 1130 741 1152 735 1141 b 697 1103 720 1119 710 1110 b 649 1092 684 1095 668 1092 b 635 1092 644 1092 640 1092 b 618 1096 631 1093 625 1094 b 589 1104 611 1098 601 1100 b 540 1121 577 1108 561 1113 b 521 1128 536 1123 529 1125 b 493 1138 513 1132 503 1135 b 463 1147 483 1141 473 1144 b 439 1150 453 1149 445 1150 b 412 1138 426 1150 417 1146 b 397 1108 407 1130 402 1120 b 390 1095 395 1106 393 1101 b 374 1086 386 1089 381 1086 z "},"":{"ha":1085,"x_min":0,"x_max":0,"o":"m 1014 497 b 989 312 1014 435 1006 373 b 908 147 972 250 945 195 b 763 28 870 98 822 59 b 547 -17 703 -2 631 -17 b 377 8 482 -17 426 -9 b 251 72 328 24 287 45 b 164 165 216 99 187 130 b 108 275 141 200 122 237 b 79 390 94 313 85 351 b 71 497 74 428 71 464 b 92 668 71 551 78 608 b 168 835 107 728 132 784 b 313 961 204 886 253 928 b 544 1011 374 994 451 1011 b 768 963 633 1011 708 995 b 913 840 828 931 876 890 b 990 674 949 790 975 735 b 1014 497 1006 614 1014 555 z m 878 497 b 861 643 878 553 872 601 b 817 751 850 685 835 721 b 753 826 798 781 777 806 b 681 873 730 846 706 861 b 607 897 656 884 631 893 b 542 904 583 902 561 904 b 411 876 494 904 450 895 b 310 804 372 857 338 833 b 258 733 288 784 271 760 b 227 647 245 705 235 677 b 211 559 219 618 214 588 b 207 481 208 530 207 504 b 233 317 207 419 216 365 b 306 194 251 269 275 228 b 413 117 336 161 372 135 b 542 90 453 99 496 90 b 607 97 561 90 583 93 b 681 122 631 102 656 110 b 753 169 706 133 730 149 b 817 244 777 189 798 214 b 861 351 835 274 850 310 b 878 497 872 393 878 442 z m 493 1149 b 474 1102 493 1130 487 1115 b 428 1083 462 1090 446 1083 b 381 1102 409 1083 394 1090 b 363 1149 369 1115 363 1130 b 381 1195 363 1167 369 1183 b 428 1214 394 1208 409 1214 b 474 1195 446 1214 462 1208 b 493 1149 487 1183 493 1167 z m 722 1149 b 703 1102 722 1130 716 1115 b 657 1083 691 1090 675 1083 b 610 1102 638 1083 623 1090 b 592 1149 598 1115 592 1130 b 610 1195 592 1167 598 1183 b 657 1214 623 1208 638 1214 b 703 1195 675 1214 691 1208 b 722 1149 716 1183 722 1167 z "},"":{"ha":810,"x_min":0,"x_max":0,"o":"m 110 278 l 324 490 l 110 704 l 193 788 l 406 574 l 618 786 l 700 704 l 488 492 l 700 279 l 618 196 l 404 410 l 190 196 z "},"":{"ha":1085,"x_min":0,"x_max":0,"o":"m 228 90 l 163 18 b 134 -10 150 4 140 -5 b 110 -17 128 -14 120 -17 b 78 -1 94 -17 84 -12 b 71 21 73 9 71 16 b 77 47 71 31 73 40 b 90 64 81 53 86 59 l 172 154 b 146 195 166 163 157 177 b 113 265 135 213 124 236 b 83 365 101 293 92 326 b 71 497 75 403 71 447 b 80 610 71 533 74 571 b 110 726 86 650 96 688 b 168 835 125 764 144 801 b 256 926 192 870 222 900 b 380 988 291 952 332 973 b 544 1011 428 1003 482 1011 b 624 1006 570 1011 597 1009 b 704 989 650 1003 677 997 b 783 956 731 981 757 969 b 856 903 808 942 832 924 l 921 975 b 949 1003 933 988 942 997 b 975 1011 956 1008 965 1011 b 1002 999 985 1011 994 1007 b 1014 975 1010 991 1014 983 b 1006 944 1014 962 1011 952 b 994 929 1000 937 996 932 l 913 840 b 947 783 924 825 935 805 b 980 705 959 760 970 734 b 1004 609 990 676 998 644 b 1014 500 1011 574 1014 538 b 1004 386 1014 464 1011 426 b 973 269 998 346 987 307 b 916 159 959 230 940 194 b 828 68 892 124 863 94 b 706 6 794 42 753 22 b 546 -17 659 -9 606 -17 b 498 -15 538 -17 522 -16 b 417 -3 474 -13 447 -9 b 321 28 386 4 354 14 b 228 90 288 43 256 63 z m 822 740 l 314 185 b 426 112 349 150 387 126 b 542 90 466 97 505 90 b 642 107 569 90 603 96 b 752 168 681 118 717 138 b 841 292 787 198 816 239 b 878 497 866 346 878 414 b 876 542 878 508 877 523 b 869 603 875 560 873 581 b 851 672 865 625 859 648 b 822 740 844 695 834 718 z m 263 253 l 769 808 b 651 885 731 846 692 872 b 540 904 609 898 573 904 b 438 887 511 904 477 898 b 329 824 400 875 363 854 b 242 697 295 793 266 751 b 207 492 219 644 207 575 b 227 342 207 433 214 384 b 263 253 241 301 252 271 z "},"":{"ha":1013,"x_min":0,"x_max":0,"o":"m 246 900 l 246 372 b 250 292 246 351 247 324 b 278 199 253 260 262 229 b 356 122 295 169 321 144 b 508 90 392 101 443 90 b 647 118 567 90 613 100 b 725 188 681 137 707 160 b 759 280 743 216 754 247 b 767 371 764 313 767 343 l 767 900 b 769 956 767 924 767 943 b 785 990 770 970 775 981 b 804 1004 789 995 796 1000 b 833 1011 813 1009 822 1011 b 882 990 853 1011 869 1004 b 898 956 891 981 897 970 b 900 900 899 943 900 924 l 900 383 b 883 235 900 332 894 283 b 824 108 872 188 853 145 b 708 17 796 70 757 40 b 518 -17 658 -5 595 -17 b 342 4 451 -17 393 -10 b 216 72 292 18 250 41 b 139 196 182 104 156 145 b 113 382 121 247 113 309 l 113 900 b 115 956 113 924 113 943 b 131 990 116 970 121 981 b 150 1004 135 995 142 1000 b 179 1011 158 1009 168 1011 b 228 990 199 1011 215 1004 b 244 956 237 981 242 970 b 246 900 245 943 246 924 z m 572 1125 b 583 1103 578 1115 581 1107 b 586 1089 585 1098 586 1094 b 578 1073 586 1084 584 1079 b 556 1064 573 1067 566 1064 b 530 1071 547 1064 539 1066 b 499 1094 521 1075 511 1083 b 456 1136 487 1104 472 1119 b 396 1200 439 1154 419 1175 b 367 1232 380 1217 371 1227 b 363 1246 364 1237 363 1241 b 372 1255 363 1250 366 1253 b 404 1257 378 1256 388 1257 l 438 1257 b 475 1256 453 1257 466 1257 b 499 1249 484 1256 492 1253 b 517 1230 505 1245 511 1239 b 538 1193 522 1221 529 1209 z "},"":{"ha":1013,"x_min":0,"x_max":0,"o":"m 246 900 l 246 372 b 250 292 246 351 247 324 b 278 199 253 260 262 229 b 356 122 295 169 321 144 b 508 90 392 101 443 90 b 647 118 567 90 613 100 b 725 188 681 137 707 160 b 759 280 743 216 754 247 b 767 371 764 313 767 343 l 767 900 b 769 956 767 924 767 943 b 785 990 770 970 775 981 b 804 1004 789 995 796 1000 b 833 1011 813 1009 822 1011 b 882 990 853 1011 869 1004 b 898 956 891 981 897 970 b 900 900 899 943 900 924 l 900 383 b 883 235 900 332 894 283 b 824 108 872 188 853 145 b 708 17 796 70 757 40 b 518 -17 658 -5 595 -17 b 342 4 451 -17 393 -10 b 216 72 292 18 250 41 b 139 196 182 104 156 145 b 113 382 121 247 113 309 l 113 900 b 115 956 113 924 113 943 b 131 990 116 970 121 981 b 150 1004 135 995 142 1000 b 179 1011 158 1009 168 1011 b 228 990 199 1011 215 1004 b 244 956 237 981 242 970 b 246 900 245 943 246 924 z m 443 1125 l 478 1193 b 499 1230 486 1209 493 1221 b 517 1249 504 1239 510 1245 b 540 1256 523 1253 531 1256 b 578 1257 550 1257 562 1257 l 611 1257 b 644 1255 627 1257 638 1256 b 653 1246 650 1253 653 1250 b 648 1232 653 1241 651 1237 b 619 1200 645 1227 635 1217 b 559 1137 595 1175 575 1154 b 517 1094 543 1120 529 1106 b 485 1071 505 1083 494 1075 b 460 1064 477 1066 468 1064 b 437 1073 450 1064 442 1067 b 429 1089 432 1079 429 1084 b 432 1103 429 1094 430 1098 b 443 1125 434 1107 438 1115 z "},"":{"ha":1013,"x_min":0,"x_max":0,"o":"m 246 900 l 246 372 b 250 292 246 351 247 324 b 278 199 253 260 262 229 b 356 122 295 169 321 144 b 508 90 392 101 443 90 b 647 118 567 90 613 100 b 725 188 681 137 707 160 b 759 280 743 216 754 247 b 767 371 764 313 767 343 l 767 900 b 769 956 767 924 767 943 b 785 990 770 970 775 981 b 804 1004 789 995 796 1000 b 833 1011 813 1009 822 1011 b 882 990 853 1011 869 1004 b 898 956 891 981 897 970 b 900 900 899 943 900 924 l 900 383 b 883 235 900 332 894 283 b 824 108 872 188 853 145 b 708 17 796 70 757 40 b 518 -17 658 -5 595 -17 b 342 4 451 -17 393 -10 b 216 72 292 18 250 41 b 139 196 182 104 156 145 b 113 382 121 247 113 309 l 113 900 b 115 956 113 924 113 943 b 131 990 116 970 121 981 b 150 1004 135 995 142 1000 b 179 1011 158 1009 168 1011 b 228 990 199 1011 215 1004 b 244 956 237 981 242 970 b 246 900 245 943 246 924 z m 507 1200 l 444 1119 b 426 1095 437 1109 431 1101 b 411 1081 421 1089 416 1084 b 396 1075 406 1078 401 1076 b 375 1074 390 1074 383 1074 l 329 1074 b 317 1076 324 1074 319 1075 b 311 1085 313 1078 311 1081 b 320 1102 311 1088 314 1094 b 335 1121 326 1110 331 1116 l 390 1192 b 422 1232 403 1208 414 1222 b 447 1255 431 1242 439 1250 b 473 1265 454 1260 463 1263 b 510 1268 483 1267 495 1268 b 542 1265 523 1268 534 1267 b 567 1254 551 1263 559 1260 b 590 1231 574 1249 582 1241 b 622 1192 599 1220 609 1207 l 681 1118 b 699 1094 691 1106 697 1098 b 701 1085 700 1091 701 1088 b 693 1076 701 1080 699 1077 b 679 1074 688 1074 683 1074 l 643 1074 b 619 1076 632 1074 624 1075 b 601 1085 612 1077 606 1080 b 571 1119 597 1089 587 1101 z "},"":{"ha":1013,"x_min":0,"x_max":0,"o":"m 246 900 l 246 372 b 250 292 246 351 247 324 b 278 199 253 260 262 229 b 356 122 295 169 321 144 b 508 90 392 101 443 90 b 647 118 567 90 613 100 b 725 188 681 137 707 160 b 759 280 743 216 754 247 b 767 371 764 313 767 343 l 767 900 b 769 956 767 924 767 943 b 785 990 770 970 775 981 b 804 1004 789 995 796 1000 b 833 1011 813 1009 822 1011 b 882 990 853 1011 869 1004 b 898 956 891 981 897 970 b 900 900 899 943 900 924 l 900 383 b 883 235 900 332 894 283 b 824 108 872 188 853 145 b 708 17 796 70 757 40 b 518 -17 658 -5 595 -17 b 342 4 451 -17 393 -10 b 216 72 292 18 250 41 b 139 196 182 104 156 145 b 113 382 121 247 113 309 l 113 900 b 115 956 113 924 113 943 b 131 990 116 970 121 981 b 150 1004 135 995 142 1000 b 179 1011 158 1009 168 1011 b 228 990 199 1011 215 1004 b 244 956 237 981 242 970 b 246 900 245 943 246 924 z m 457 1149 b 438 1102 457 1130 451 1115 b 392 1083 426 1090 410 1083 b 345 1102 373 1083 358 1090 b 326 1149 333 1115 326 1130 b 345 1195 326 1167 333 1183 b 392 1214 358 1208 373 1214 b 438 1195 410 1214 426 1208 b 457 1149 451 1183 457 1167 z m 686 1149 b 667 1102 686 1130 680 1115 b 621 1083 655 1090 639 1083 b 574 1102 602 1083 587 1090 b 556 1149 562 1115 556 1130 b 574 1195 556 1167 562 1183 b 621 1214 587 1208 602 1214 b 667 1195 639 1214 655 1208 b 686 1149 680 1183 686 1167 z "},"":{"ha":854,"x_min":0,"x_max":0,"o":"m 356 426 l 69 871 b 38 927 52 899 41 917 b 33 950 35 937 33 944 b 50 992 33 965 39 979 b 99 1011 61 1005 77 1011 b 120 1008 107 1011 114 1010 b 138 996 126 1005 132 1001 b 155 974 143 990 149 983 b 178 938 161 964 169 952 l 426 544 l 682 942 b 705 976 691 956 699 967 b 722 998 711 986 717 993 b 739 1008 728 1003 733 1006 b 760 1011 744 1010 751 1011 b 803 994 776 1011 791 1006 b 821 953 815 983 821 969 b 811 917 821 941 818 929 b 786 878 805 906 796 893 l 489 426 l 489 93 b 487 38 489 71 488 52 b 469 3 485 23 480 11 b 422 -17 456 -10 441 -17 b 374 3 405 -17 388 -10 b 358 38 364 11 359 23 b 356 93 356 52 356 71 z m 364 1125 l 399 1193 b 419 1230 407 1209 414 1221 b 438 1249 425 1239 431 1245 b 461 1256 444 1253 452 1256 b 499 1257 470 1257 483 1257 l 532 1257 b 565 1255 548 1257 559 1256 b 574 1246 571 1253 574 1250 b 569 1232 574 1241 572 1237 b 540 1200 566 1227 556 1217 b 480 1137 516 1175 496 1154 b 438 1094 464 1120 450 1106 b 406 1071 425 1083 415 1075 b 381 1064 397 1066 389 1064 b 358 1073 370 1064 363 1067 b 350 1089 353 1079 350 1084 b 353 1103 350 1094 351 1098 b 364 1125 355 1107 358 1115 z "},"":{"ha":882,"x_min":0,"x_max":0,"o":"m 254 204 l 254 93 b 253 56 254 81 254 69 b 247 20 253 43 251 31 b 228 -6 242 9 236 1 b 192 -17 219 -13 207 -17 b 138 4 169 -17 151 -10 b 123 39 129 13 124 24 b 121 93 122 54 121 72 l 121 900 b 123 956 121 922 122 941 b 138 990 124 970 129 982 b 157 1004 142 995 149 1000 b 188 1011 165 1009 175 1011 b 213 1006 196 1011 204 1009 b 236 990 222 1003 230 998 b 252 956 245 982 251 970 b 254 901 253 941 254 923 l 254 790 l 482 790 b 605 780 524 790 565 787 b 714 732 645 773 681 757 b 792 635 747 707 773 675 b 819 501 810 595 819 550 b 812 430 819 478 817 454 b 788 359 807 405 799 382 b 745 297 776 336 762 316 b 685 250 728 278 708 262 b 657 237 677 246 668 242 b 616 222 646 232 632 227 b 558 209 600 216 581 212 b 481 204 536 206 510 204 z m 446 683 l 254 683 l 254 311 l 446 311 b 515 315 464 311 487 313 b 593 338 542 318 568 326 b 657 394 618 351 639 369 b 683 499 675 419 683 454 b 672 569 683 522 679 545 b 635 631 664 592 651 613 b 593 660 623 643 609 652 b 544 676 577 667 561 672 b 492 682 527 679 509 681 b 446 683 475 683 460 683 z "},"":{"ha":738,"x_min":0,"x_max":0,"o":"m 194 708 l 194 82 b 191 31 194 62 193 45 b 176 0 189 18 184 7 b 133 -17 165 -11 151 -17 b 113 -14 127 -17 120 -16 b 90 0 105 -12 98 -7 b 76 32 82 8 77 19 b 74 82 74 45 74 62 l 74 718 b 85 826 74 757 77 793 b 126 914 92 859 106 888 b 178 963 142 933 159 950 b 235 992 196 975 215 985 b 293 1007 254 999 274 1004 b 349 1011 313 1010 331 1011 b 458 994 391 1011 428 1005 b 533 949 489 982 514 967 b 574 889 552 931 566 911 b 588 822 583 867 588 844 b 586 800 588 816 587 808 b 579 769 585 792 583 781 b 561 724 575 756 569 741 b 526 663 553 707 541 687 b 499 617 515 644 506 629 b 483 586 492 605 487 594 b 476 565 480 578 477 571 b 474 549 474 560 474 554 b 497 488 474 525 481 504 b 547 442 512 472 529 456 b 629 367 581 415 609 390 b 675 303 650 344 665 322 b 694 249 685 283 692 266 b 699 204 697 233 699 218 b 682 119 699 175 693 146 b 636 49 671 93 656 69 b 566 1 617 28 593 12 b 476 -17 539 -11 509 -17 b 393 -2 446 -17 418 -12 b 329 34 368 8 347 20 b 288 78 312 48 298 63 b 274 118 278 94 274 107 b 276 132 274 122 275 126 b 285 149 278 138 281 143 b 302 163 290 154 295 159 b 328 168 309 166 318 168 b 349 163 335 168 342 166 b 375 138 355 160 364 151 b 415 99 385 125 398 112 b 471 81 431 87 450 81 b 514 90 486 81 500 84 b 549 116 528 97 540 105 b 573 153 559 127 567 139 b 582 196 579 167 582 181 b 547 284 582 228 570 258 b 450 371 523 310 491 339 b 372 445 416 398 390 422 b 346 522 355 468 346 494 b 366 597 346 545 353 570 b 407 672 379 624 393 649 b 447 744 420 694 433 718 b 467 817 460 771 467 795 b 455 863 467 835 463 851 b 425 893 447 876 437 886 b 386 909 413 900 400 906 b 347 914 372 912 359 914 b 265 894 312 914 284 907 b 219 845 245 881 229 865 b 199 779 208 825 201 803 b 194 708 196 755 194 731 z "},"":{"ha":782,"x_min":0,"x_max":0,"o":"m 576 101 b 538 67 567 92 554 81 b 478 28 522 54 502 41 b 397 -3 455 16 428 5 b 292 -17 366 -12 331 -17 b 188 1 252 -17 217 -11 b 115 49 159 13 135 29 b 72 115 96 68 81 90 b 58 189 63 139 58 164 b 83 289 58 230 67 263 b 144 351 100 315 120 335 b 222 384 169 366 194 377 b 294 401 249 391 273 397 b 336 410 303 403 317 406 b 397 421 356 413 376 417 b 458 432 419 425 439 428 b 497 440 477 436 490 438 b 527 449 507 443 517 446 b 565 461 537 451 550 456 b 560 531 564 485 563 508 b 542 590 558 553 552 573 b 494 632 531 608 516 622 b 401 647 472 642 441 647 b 338 642 380 647 359 646 b 280 626 317 639 298 634 b 231 594 262 618 246 607 b 199 547 217 581 206 566 b 178 506 192 531 185 518 b 139 489 170 495 157 489 b 101 503 124 489 111 494 b 85 540 90 513 85 525 b 96 588 85 550 88 566 b 140 653 103 610 118 632 b 234 711 163 675 194 694 b 393 736 274 728 327 736 b 555 713 462 736 516 728 b 643 650 594 698 624 677 b 679 556 663 623 675 592 b 686 439 684 519 686 481 b 685 392 686 430 686 414 b 684 324 685 371 684 348 b 683 256 684 300 683 277 b 682 213 682 235 682 221 b 688 136 682 179 684 154 b 701 93 692 119 697 104 b 709 67 702 89 705 81 b 715 31 713 54 715 42 b 698 -2 715 19 709 8 b 657 -17 686 -12 673 -17 b 626 -6 645 -17 635 -13 b 604 23 618 2 611 11 b 588 61 598 34 592 47 b 576 101 584 75 580 88 z m 567 375 b 533 363 557 371 546 367 b 486 350 520 359 505 355 b 369 326 443 340 404 332 b 275 306 335 320 304 313 b 226 283 255 300 238 293 b 199 253 214 274 205 264 b 185 222 192 243 188 232 b 182 197 183 212 182 204 b 190 157 182 184 184 171 b 213 119 195 143 203 130 b 256 90 224 107 238 97 b 319 78 273 82 294 78 b 380 84 339 78 359 80 b 441 103 401 88 421 94 b 496 135 461 111 479 122 b 536 182 513 148 526 163 b 562 266 550 206 559 234 b 567 375 565 298 567 334 z m 457 865 b 468 843 463 855 466 848 b 471 829 470 838 471 834 b 463 813 471 825 468 819 b 440 804 458 807 450 804 b 415 811 432 804 423 806 b 383 834 406 816 395 823 b 340 876 371 845 357 859 b 281 940 324 894 304 915 b 252 972 265 957 255 968 b 247 986 249 977 247 981 b 256 995 247 991 250 994 b 289 997 262 997 273 997 l 322 997 b 360 997 338 997 350 997 b 383 990 369 996 377 994 b 401 970 390 985 396 979 b 422 933 407 961 414 949 z "},"":{"ha":782,"x_min":0,"x_max":0,"o":"m 576 101 b 538 67 567 92 554 81 b 478 28 522 54 502 41 b 397 -3 455 16 428 5 b 292 -17 366 -12 331 -17 b 188 1 252 -17 217 -11 b 115 49 159 13 135 29 b 72 115 96 68 81 90 b 58 189 63 139 58 164 b 83 289 58 230 67 263 b 144 351 100 315 120 335 b 222 384 169 366 194 377 b 294 401 249 391 273 397 b 336 410 303 403 317 406 b 397 421 356 413 376 417 b 458 432 419 425 439 428 b 497 440 477 436 490 438 b 527 449 507 443 517 446 b 565 461 537 451 550 456 b 560 531 564 485 563 508 b 542 590 558 553 552 573 b 494 632 531 608 516 622 b 401 647 472 642 441 647 b 338 642 380 647 359 646 b 280 626 317 639 298 634 b 231 594 262 618 246 607 b 199 547 217 581 206 566 b 178 506 192 531 185 518 b 139 489 170 495 157 489 b 101 503 124 489 111 494 b 85 540 90 513 85 525 b 96 588 85 550 88 566 b 140 653 103 610 118 632 b 234 711 163 675 194 694 b 393 736 274 728 327 736 b 555 713 462 736 516 728 b 643 650 594 698 624 677 b 679 556 663 623 675 592 b 686 439 684 519 686 481 b 685 392 686 430 686 414 b 684 324 685 371 684 348 b 683 256 684 300 683 277 b 682 213 682 235 682 221 b 688 136 682 179 684 154 b 701 93 692 119 697 104 b 709 67 702 89 705 81 b 715 31 713 54 715 42 b 698 -2 715 19 709 8 b 657 -17 686 -12 673 -17 b 626 -6 645 -17 635 -13 b 604 23 618 2 611 11 b 588 61 598 34 592 47 b 576 101 584 75 580 88 z m 567 375 b 533 363 557 371 546 367 b 486 350 520 359 505 355 b 369 326 443 340 404 332 b 275 306 335 320 304 313 b 226 283 255 300 238 293 b 199 253 214 274 205 264 b 185 222 192 243 188 232 b 182 197 183 212 182 204 b 190 157 182 184 184 171 b 213 119 195 143 203 130 b 256 90 224 107 238 97 b 319 78 273 82 294 78 b 380 84 339 78 359 80 b 441 103 401 88 421 94 b 496 135 461 111 479 122 b 536 182 513 148 526 163 b 562 266 550 206 559 234 b 567 375 565 298 567 334 z m 328 865 l 363 933 b 383 970 371 949 378 961 b 401 990 389 979 395 985 b 425 997 408 994 416 996 b 463 997 434 997 447 997 l 496 997 b 528 995 512 997 522 997 b 538 986 534 994 538 991 b 533 972 538 981 536 977 b 504 940 529 968 520 957 b 444 877 480 915 460 894 b 401 835 428 860 413 846 b 370 811 389 824 379 816 b 344 804 361 806 353 804 b 322 813 334 804 327 807 b 314 829 316 819 314 825 b 317 843 314 834 315 838 b 328 865 319 848 322 855 z "},"":{"ha":782,"x_min":0,"x_max":0,"o":"m 576 101 b 538 67 567 92 554 81 b 478 28 522 54 502 41 b 397 -3 455 16 428 5 b 292 -17 366 -12 331 -17 b 188 1 252 -17 217 -11 b 115 49 159 13 135 29 b 72 115 96 68 81 90 b 58 189 63 139 58 164 b 83 289 58 230 67 263 b 144 351 100 315 120 335 b 222 384 169 366 194 377 b 294 401 249 391 273 397 b 336 410 303 403 317 406 b 397 421 356 413 376 417 b 458 432 419 425 439 428 b 497 440 477 436 490 438 b 527 449 507 443 517 446 b 565 461 537 451 550 456 b 560 531 564 485 563 508 b 542 590 558 553 552 573 b 494 632 531 608 516 622 b 401 647 472 642 441 647 b 338 642 380 647 359 646 b 280 626 317 639 298 634 b 231 594 262 618 246 607 b 199 547 217 581 206 566 b 178 506 192 531 185 518 b 139 489 170 495 157 489 b 101 503 124 489 111 494 b 85 540 90 513 85 525 b 96 588 85 550 88 566 b 140 653 103 610 118 632 b 234 711 163 675 194 694 b 393 736 274 728 327 736 b 555 713 462 736 516 728 b 643 650 594 698 624 677 b 679 556 663 623 675 592 b 686 439 684 519 686 481 b 685 392 686 430 686 414 b 684 324 685 371 684 348 b 683 256 684 300 683 277 b 682 213 682 235 682 221 b 688 136 682 179 684 154 b 701 93 692 119 697 104 b 709 67 702 89 705 81 b 715 31 713 54 715 42 b 698 -2 715 19 709 8 b 657 -17 686 -12 673 -17 b 626 -6 645 -17 635 -13 b 604 23 618 2 611 11 b 588 61 598 34 592 47 b 576 101 584 75 580 88 z m 567 375 b 533 363 557 371 546 367 b 486 350 520 359 505 355 b 369 326 443 340 404 332 b 275 306 335 320 304 313 b 226 283 255 300 238 293 b 199 253 214 274 205 264 b 185 222 192 243 188 232 b 182 197 183 212 182 204 b 190 157 182 184 184 171 b 213 119 195 143 203 130 b 256 90 224 107 238 97 b 319 78 273 82 294 78 b 380 84 339 78 359 80 b 441 103 401 88 421 94 b 496 135 461 111 479 122 b 536 182 513 148 526 163 b 562 266 550 206 559 234 b 567 375 565 298 567 334 z m 392 940 l 329 860 b 310 835 322 850 316 841 b 296 822 305 829 300 825 b 281 815 291 818 286 816 b 260 814 275 814 268 814 l 214 814 b 201 817 208 814 204 815 b 196 825 198 819 196 821 b 205 842 196 829 199 834 b 219 861 211 850 216 856 l 275 932 b 307 972 288 949 299 962 b 331 995 315 982 323 990 b 358 1006 339 1000 348 1004 b 394 1008 367 1007 380 1008 b 427 1006 407 1008 418 1007 b 451 994 436 1004 444 1000 b 475 971 459 989 467 981 b 507 932 483 961 494 948 l 565 858 b 583 835 575 846 581 838 b 586 825 585 831 586 828 b 578 816 586 820 583 817 b 564 814 572 815 568 814 l 528 814 b 504 817 517 814 509 815 b 486 825 497 818 491 820 b 456 860 481 830 471 841 z "},"":{"ha":782,"x_min":0,"x_max":0,"o":"m 576 101 b 538 67 567 92 554 81 b 478 28 522 54 502 41 b 397 -3 455 16 428 5 b 292 -17 366 -12 331 -17 b 188 1 252 -17 217 -11 b 115 49 159 13 135 29 b 72 115 96 68 81 90 b 58 189 63 139 58 164 b 83 289 58 230 67 263 b 144 351 100 315 120 335 b 222 384 169 366 194 377 b 294 401 249 391 273 397 b 336 410 303 403 317 406 b 397 421 356 413 376 417 b 458 432 419 425 439 428 b 497 440 477 436 490 438 b 527 449 507 443 517 446 b 565 461 537 451 550 456 b 560 531 564 485 563 508 b 542 590 558 553 552 573 b 494 632 531 608 516 622 b 401 647 472 642 441 647 b 338 642 380 647 359 646 b 280 626 317 639 298 634 b 231 594 262 618 246 607 b 199 547 217 581 206 566 b 178 506 192 531 185 518 b 139 489 170 495 157 489 b 101 503 124 489 111 494 b 85 540 90 513 85 525 b 96 588 85 550 88 566 b 140 653 103 610 118 632 b 234 711 163 675 194 694 b 393 736 274 728 327 736 b 555 713 462 736 516 728 b 643 650 594 698 624 677 b 679 556 663 623 675 592 b 686 439 684 519 686 481 b 685 392 686 430 686 414 b 684 324 685 371 684 348 b 683 256 684 300 683 277 b 682 213 682 235 682 221 b 688 136 682 179 684 154 b 701 93 692 119 697 104 b 709 67 702 89 705 81 b 715 31 713 54 715 42 b 698 -2 715 19 709 8 b 657 -17 686 -12 673 -17 b 626 -6 645 -17 635 -13 b 604 23 618 2 611 11 b 588 61 598 34 592 47 b 576 101 584 75 580 88 z m 567 375 b 533 363 557 371 546 367 b 486 350 520 359 505 355 b 369 326 443 340 404 332 b 275 306 335 320 304 313 b 226 283 255 300 238 293 b 199 253 214 274 205 264 b 185 222 192 243 188 232 b 182 197 183 212 182 204 b 190 157 182 184 184 171 b 213 119 195 143 203 130 b 256 90 224 107 238 97 b 319 78 273 82 294 78 b 380 84 339 78 359 80 b 441 103 401 88 421 94 b 496 135 461 111 479 122 b 536 182 513 148 526 163 b 562 266 550 206 559 234 b 567 375 565 298 567 334 z m 222 826 b 198 837 215 826 207 830 b 185 872 189 844 185 856 b 191 907 185 883 187 895 b 210 940 195 919 201 930 b 240 963 218 949 228 957 b 279 972 251 969 264 972 b 342 962 300 972 321 969 b 389 944 364 955 380 949 b 435 927 408 937 424 931 b 463 918 447 923 456 920 b 479 915 470 916 475 915 b 490 914 483 914 487 914 b 517 922 502 914 511 916 b 532 944 522 927 527 934 b 542 966 535 952 538 959 b 563 976 547 973 553 976 b 585 965 570 976 578 972 b 597 932 593 957 597 946 b 592 903 597 925 596 915 b 576 870 589 892 584 881 b 546 843 569 859 559 850 b 497 832 533 836 517 832 b 484 833 493 832 488 832 b 467 836 480 833 474 834 b 438 844 459 838 450 841 b 389 861 425 848 409 854 b 369 869 384 863 378 866 b 342 878 361 872 352 875 b 312 887 331 882 322 884 b 288 890 302 889 294 890 b 260 878 275 890 266 886 b 246 849 255 871 250 861 b 238 835 244 846 241 841 b 222 826 235 829 230 826 z "},"":{"ha":782,"x_min":0,"x_max":0,"o":"m 576 101 b 538 67 567 92 554 81 b 478 28 522 54 502 41 b 397 -3 455 16 428 5 b 292 -17 366 -12 331 -17 b 188 1 252 -17 217 -11 b 115 49 159 13 135 29 b 72 115 96 68 81 90 b 58 189 63 139 58 164 b 83 289 58 230 67 263 b 144 351 100 315 120 335 b 222 384 169 366 194 377 b 294 401 249 391 273 397 b 336 410 303 403 317 406 b 397 421 356 413 376 417 b 458 432 419 425 439 428 b 497 440 477 436 490 438 b 527 449 507 443 517 446 b 565 461 537 451 550 456 b 560 531 564 485 563 508 b 542 590 558 553 552 573 b 494 632 531 608 516 622 b 401 647 472 642 441 647 b 338 642 380 647 359 646 b 280 626 317 639 298 634 b 231 594 262 618 246 607 b 199 547 217 581 206 566 b 178 506 192 531 185 518 b 139 489 170 495 157 489 b 101 503 124 489 111 494 b 85 540 90 513 85 525 b 96 588 85 550 88 566 b 140 653 103 610 118 632 b 234 711 163 675 194 694 b 393 736 274 728 327 736 b 555 713 462 736 516 728 b 643 650 594 698 624 677 b 679 556 663 623 675 592 b 686 439 684 519 686 481 b 685 392 686 430 686 414 b 684 324 685 371 684 348 b 683 256 684 300 683 277 b 682 213 682 235 682 221 b 688 136 682 179 684 154 b 701 93 692 119 697 104 b 709 67 702 89 705 81 b 715 31 713 54 715 42 b 698 -2 715 19 709 8 b 657 -17 686 -12 673 -17 b 626 -6 645 -17 635 -13 b 604 23 618 2 611 11 b 588 61 598 34 592 47 b 576 101 584 75 580 88 z m 567 375 b 533 363 557 371 546 367 b 486 350 520 359 505 355 b 369 326 443 340 404 332 b 275 306 335 320 304 313 b 226 283 255 300 238 293 b 199 253 214 274 205 264 b 185 222 192 243 188 232 b 182 197 183 212 182 204 b 190 157 182 184 184 171 b 213 119 195 143 203 130 b 256 90 224 107 238 97 b 319 78 273 82 294 78 b 380 84 339 78 359 80 b 441 103 401 88 421 94 b 496 135 461 111 479 122 b 536 182 513 148 526 163 b 562 266 550 206 559 234 b 567 375 565 298 567 334 z m 342 889 b 323 842 342 870 335 855 b 276 824 310 830 295 824 b 230 842 258 824 242 830 b 211 889 217 855 211 870 b 230 935 211 907 217 923 b 276 954 242 948 258 954 b 323 935 295 954 310 948 b 342 889 335 923 342 907 z m 571 889 b 552 842 571 870 565 855 b 506 824 540 830 524 824 b 459 842 487 824 472 830 b 440 889 447 855 440 870 b 459 935 440 907 447 923 b 506 954 472 948 487 954 b 552 935 524 954 540 948 b 571 889 565 923 571 907 z "},"":{"ha":782,"x_min":0,"x_max":0,"o":"m 576 101 b 538 67 567 92 554 81 b 478 28 522 54 502 41 b 397 -3 455 16 428 5 b 292 -17 366 -12 331 -17 b 188 1 252 -17 217 -11 b 115 49 159 13 135 29 b 72 115 96 68 81 90 b 58 189 63 139 58 164 b 83 289 58 230 67 263 b 144 351 100 315 120 335 b 222 384 169 366 194 377 b 294 401 249 391 273 397 b 336 410 303 403 317 406 b 397 421 356 413 376 417 b 458 432 419 425 439 428 b 497 440 477 436 490 438 b 527 449 507 443 517 446 b 565 461 537 451 550 456 b 560 531 564 485 563 508 b 542 590 558 553 552 573 b 494 632 531 608 516 622 b 401 647 472 642 441 647 b 338 642 380 647 359 646 b 280 626 317 639 298 634 b 231 594 262 618 246 607 b 199 547 217 581 206 566 b 178 506 192 531 185 518 b 139 489 170 495 157 489 b 101 503 124 489 111 494 b 85 540 90 513 85 525 b 96 588 85 550 88 566 b 140 653 103 610 118 632 b 234 711 163 675 194 694 b 393 736 274 728 327 736 b 555 713 462 736 516 728 b 643 650 594 698 624 677 b 679 556 663 623 675 592 b 686 439 684 519 686 481 b 685 392 686 430 686 414 b 684 324 685 371 684 348 b 683 256 684 300 683 277 b 682 213 682 235 682 221 b 688 136 682 179 684 154 b 701 93 692 119 697 104 b 709 67 702 89 705 81 b 715 31 713 54 715 42 b 698 -2 715 19 709 8 b 657 -17 686 -12 673 -17 b 626 -6 645 -17 635 -13 b 604 23 618 2 611 11 b 588 61 598 34 592 47 b 576 101 584 75 580 88 z m 567 375 b 533 363 557 371 546 367 b 486 350 520 359 505 355 b 369 326 443 340 404 332 b 275 306 335 320 304 313 b 226 283 255 300 238 293 b 199 253 214 274 205 264 b 185 222 192 243 188 232 b 182 197 183 212 182 204 b 190 157 182 184 184 171 b 213 119 195 143 203 130 b 256 90 224 107 238 97 b 319 78 273 82 294 78 b 380 84 339 78 359 80 b 441 103 401 88 421 94 b 496 135 461 111 479 122 b 536 182 513 148 526 163 b 562 266 550 206 559 234 b 567 375 565 298 567 334 z m 519 911 b 510 862 519 894 516 877 b 482 822 503 847 494 833 b 440 794 470 810 456 801 b 390 783 425 787 408 783 b 340 794 373 783 356 787 b 299 822 325 801 311 810 b 272 862 288 833 279 847 b 263 911 266 877 263 894 b 273 961 263 929 266 945 b 301 1003 280 977 289 991 b 342 1031 312 1015 326 1024 b 392 1040 357 1037 374 1040 b 441 1030 409 1040 426 1037 b 481 1002 456 1023 470 1014 b 509 961 493 991 502 977 b 519 911 516 945 519 929 z m 464 911 b 443 963 464 931 457 949 b 390 985 429 978 412 985 b 339 963 370 985 353 978 b 318 911 325 949 318 931 b 340 860 318 891 325 874 b 390 839 354 846 371 839 b 442 860 411 839 428 846 b 464 911 457 874 464 891 z "},"":{"ha":1244,"x_min":0,"x_max":0,"o":"m 544 451 l 544 471 b 544 518 544 490 544 506 b 542 548 543 530 543 540 b 538 567 541 556 539 562 b 529 583 536 572 533 578 b 495 618 520 598 509 610 b 454 637 482 626 468 633 b 416 644 440 641 428 643 b 392 644 404 644 396 644 b 335 641 373 644 354 643 b 281 626 316 639 298 634 b 234 594 264 619 248 608 b 200 539 220 581 208 562 b 180 499 194 524 188 511 b 138 481 172 487 158 481 b 97 498 120 481 106 486 b 83 535 88 509 83 522 b 95 590 83 548 87 566 b 140 658 103 614 118 637 b 198 699 158 675 177 688 b 262 722 219 709 240 717 b 326 733 284 728 305 731 b 385 736 347 735 366 736 b 494 726 429 736 466 733 b 564 700 523 719 546 710 b 604 668 581 690 595 679 b 626 638 613 657 621 647 b 656 665 634 645 644 654 b 701 698 668 676 683 687 b 768 725 720 709 742 718 b 858 736 794 732 824 736 b 1007 705 917 736 966 726 b 1108 626 1048 684 1081 658 b 1165 521 1134 594 1153 559 b 1183 414 1177 483 1183 447 b 1175 369 1183 394 1181 379 b 1152 346 1169 358 1162 350 b 1117 338 1142 341 1131 338 b 1072 336 1103 337 1088 336 l 661 336 b 674 236 662 301 666 268 b 710 152 681 205 693 177 b 775 94 726 128 748 108 b 874 72 802 79 835 72 b 963 88 910 72 940 77 b 1022 125 987 98 1006 110 b 1057 172 1037 140 1049 156 b 1078 217 1065 189 1072 204 b 1125 249 1088 238 1104 249 b 1153 240 1132 249 1142 246 b 1171 200 1165 235 1171 221 b 1153 133 1171 181 1165 158 b 1098 63 1141 108 1122 85 b 1006 6 1073 40 1043 22 b 876 -17 970 -9 926 -17 b 760 -2 830 -17 791 -12 b 681 33 728 8 702 19 b 631 76 659 47 643 62 b 601 114 619 91 609 104 b 548 70 586 100 568 85 b 480 28 528 55 505 41 b 395 -4 454 15 426 4 b 293 -17 364 -12 330 -17 b 183 3 250 -17 213 -10 b 110 51 153 16 128 32 b 70 116 91 71 78 92 b 58 185 62 140 58 163 b 92 297 58 229 70 266 b 164 358 115 327 139 347 b 253 388 194 371 223 381 b 339 404 284 394 312 400 b 399 414 363 408 383 411 b 444 424 416 417 431 420 b 488 435 458 427 473 431 b 544 451 503 440 522 445 z m 661 418 l 1065 418 b 1039 540 1063 469 1055 509 b 983 608 1023 570 1005 592 b 918 638 962 623 940 633 b 865 644 896 642 878 644 b 722 585 807 644 759 625 b 661 418 685 545 665 489 z m 544 282 l 544 368 b 485 352 520 362 500 356 b 441 342 469 348 454 344 b 398 333 428 339 413 336 b 340 324 383 331 363 327 b 289 313 325 321 307 317 b 237 291 270 308 253 301 b 196 253 221 281 207 269 b 179 193 185 237 179 217 b 187 154 179 181 182 168 b 212 115 192 140 200 127 b 258 83 223 102 239 92 b 331 71 278 75 302 71 b 422 88 362 71 392 77 b 497 140 451 100 476 117 b 511 156 501 144 506 149 b 526 182 517 162 522 171 b 539 223 531 193 535 207 b 544 282 543 239 544 259 z "},"":{"ha":782,"x_min":0,"x_max":0,"o":"m 415 -17 l 410 -49 b 449 -53 421 -50 434 -51 b 494 -69 465 -55 480 -60 b 524 -101 505 -76 514 -86 b 538 -150 533 -115 538 -131 b 519 -208 538 -173 531 -192 b 471 -245 506 -223 490 -235 b 406 -266 451 -255 430 -262 b 339 -272 383 -270 360 -272 b 317 -272 334 -272 327 -272 b 288 -267 308 -271 298 -270 b 263 -257 278 -265 270 -262 b 253 -236 256 -252 253 -245 b 263 -215 253 -229 256 -222 b 293 -206 270 -209 280 -206 l 329 -206 b 353 -205 338 -206 346 -205 b 369 -203 359 -204 365 -204 b 383 -201 373 -203 378 -202 b 397 -199 386 -201 391 -200 b 418 -190 404 -197 411 -194 b 438 -174 425 -185 432 -180 b 446 -147 443 -167 446 -158 b 439 -126 446 -139 444 -132 b 424 -112 434 -121 429 -116 b 408 -103 418 -108 413 -105 l 401 -100 l 357 -101 b 338 -92 352 -101 346 -98 b 325 -64 329 -85 325 -76 b 333 -40 325 -54 328 -46 b 364 -14 339 -34 349 -25 b 260 9 323 -9 289 -2 b 189 46 232 20 208 32 b 141 90 169 60 153 75 b 110 138 128 106 118 122 b 74 224 97 160 85 189 b 58 358 64 260 58 305 b 74 488 58 400 63 443 b 128 610 84 532 102 573 b 233 701 154 647 189 677 b 401 736 277 724 333 736 b 508 724 442 736 478 732 b 585 691 538 715 564 704 b 640 647 607 678 625 663 b 678 599 655 630 668 614 b 695 567 684 589 690 579 b 703 532 700 556 703 544 b 686 494 703 516 697 503 b 649 479 675 484 663 479 b 637 480 645 479 641 479 b 624 485 633 480 628 482 b 608 500 619 489 614 494 b 590 528 603 506 597 516 b 570 558 586 535 579 545 b 535 597 561 571 550 584 b 481 628 521 609 503 620 b 403 642 459 637 433 642 b 240 567 335 642 281 617 b 179 364 200 518 179 450 b 238 153 179 274 199 204 b 400 78 278 103 331 78 b 508 104 439 78 475 87 b 585 181 541 122 566 147 b 592 194 586 183 588 188 b 603 213 595 200 599 206 b 613 233 606 220 610 227 b 621 244 616 239 619 243 b 637 260 625 250 631 255 b 661 267 643 264 651 267 b 699 251 674 267 687 262 b 717 211 711 241 717 228 b 702 158 717 200 712 182 b 653 84 692 134 676 109 b 561 16 631 59 600 36 b 415 -17 522 -4 474 -15 z "},"":{"ha":782,"x_min":0,"x_max":0,"o":"m 617 336 l 185 336 b 206 213 186 288 193 247 b 256 131 219 179 235 152 b 327 86 277 110 301 95 b 410 72 353 77 381 72 b 485 83 439 72 465 76 b 540 113 506 91 524 100 b 580 154 555 125 568 138 b 613 201 591 170 602 186 b 631 224 617 208 623 216 b 664 238 638 233 649 238 b 697 224 677 238 688 233 b 710 192 705 214 710 204 b 702 158 710 181 707 169 b 686 128 697 147 692 137 b 653 83 678 115 667 100 b 600 36 640 67 622 51 b 519 -1 578 21 551 9 b 404 -17 487 -12 449 -17 b 251 13 345 -17 294 -7 b 144 92 208 32 172 59 b 81 213 116 126 95 166 b 61 361 68 259 61 308 b 82 508 61 413 68 462 b 144 627 96 553 117 593 b 250 707 172 661 207 688 b 401 736 293 726 343 736 b 524 717 449 736 489 730 b 611 667 558 704 587 687 b 669 599 635 646 655 624 b 703 525 684 574 696 549 b 719 459 711 501 717 479 b 724 414 722 439 724 424 b 714 369 724 394 720 379 b 688 346 707 358 699 350 b 653 338 678 341 666 338 b 617 336 641 337 629 336 z m 186 419 l 600 419 b 592 483 598 440 596 461 b 564 556 589 504 580 529 b 499 622 548 582 526 604 b 397 647 471 639 437 647 b 333 637 373 647 352 644 b 282 611 314 630 297 621 b 244 576 267 601 255 589 b 219 539 234 563 226 551 b 195 475 207 518 199 496 b 186 419 191 454 188 435 z m 457 865 b 468 843 463 855 466 848 b 471 829 470 838 471 834 b 463 813 471 825 468 819 b 440 804 458 807 450 804 b 415 811 432 804 423 806 b 383 834 406 816 395 823 b 340 876 371 845 357 859 b 281 940 324 894 304 915 b 252 972 265 957 255 968 b 247 986 249 977 247 981 b 256 995 247 991 250 994 b 289 997 262 997 273 997 l 322 997 b 360 997 338 997 350 997 b 383 990 369 996 377 994 b 401 970 390 985 396 979 b 422 933 407 961 414 949 z "},"":{"ha":782,"x_min":0,"x_max":0,"o":"m 617 336 l 185 336 b 206 213 186 288 193 247 b 256 131 219 179 235 152 b 327 86 277 110 301 95 b 410 72 353 77 381 72 b 485 83 439 72 465 76 b 540 113 506 91 524 100 b 580 154 555 125 568 138 b 613 201 591 170 602 186 b 631 224 617 208 623 216 b 664 238 638 233 649 238 b 697 224 677 238 688 233 b 710 192 705 214 710 204 b 702 158 710 181 707 169 b 686 128 697 147 692 137 b 653 83 678 115 667 100 b 600 36 640 67 622 51 b 519 -1 578 21 551 9 b 404 -17 487 -12 449 -17 b 251 13 345 -17 294 -7 b 144 92 208 32 172 59 b 81 213 116 126 95 166 b 61 361 68 259 61 308 b 82 508 61 413 68 462 b 144 627 96 553 117 593 b 250 707 172 661 207 688 b 401 736 293 726 343 736 b 524 717 449 736 489 730 b 611 667 558 704 587 687 b 669 599 635 646 655 624 b 703 525 684 574 696 549 b 719 459 711 501 717 479 b 724 414 722 439 724 424 b 714 369 724 394 720 379 b 688 346 707 358 699 350 b 653 338 678 341 666 338 b 617 336 641 337 629 336 z m 186 419 l 600 419 b 592 483 598 440 596 461 b 564 556 589 504 580 529 b 499 622 548 582 526 604 b 397 647 471 639 437 647 b 333 637 373 647 352 644 b 282 611 314 630 297 621 b 244 576 267 601 255 589 b 219 539 234 563 226 551 b 195 475 207 518 199 496 b 186 419 191 454 188 435 z m 328 865 l 363 933 b 383 970 371 949 378 961 b 401 990 389 979 395 985 b 425 997 408 994 416 996 b 463 997 434 997 447 997 l 496 997 b 528 995 512 997 522 997 b 538 986 534 994 538 991 b 533 972 538 981 536 977 b 504 940 529 968 520 957 b 444 877 480 915 460 894 b 401 835 428 860 413 846 b 370 811 389 824 379 816 b 344 804 361 806 353 804 b 322 813 334 804 327 807 b 314 829 316 819 314 825 b 317 843 314 834 315 838 b 328 865 319 848 322 855 z "},"":{"ha":782,"x_min":0,"x_max":0,"o":"m 617 336 l 185 336 b 206 213 186 288 193 247 b 256 131 219 179 235 152 b 327 86 277 110 301 95 b 410 72 353 77 381 72 b 485 83 439 72 465 76 b 540 113 506 91 524 100 b 580 154 555 125 568 138 b 613 201 591 170 602 186 b 631 224 617 208 623 216 b 664 238 638 233 649 238 b 697 224 677 238 688 233 b 710 192 705 214 710 204 b 702 158 710 181 707 169 b 686 128 697 147 692 137 b 653 83 678 115 667 100 b 600 36 640 67 622 51 b 519 -1 578 21 551 9 b 404 -17 487 -12 449 -17 b 251 13 345 -17 294 -7 b 144 92 208 32 172 59 b 81 213 116 126 95 166 b 61 361 68 259 61 308 b 82 508 61 413 68 462 b 144 627 96 553 117 593 b 250 707 172 661 207 688 b 401 736 293 726 343 736 b 524 717 449 736 489 730 b 611 667 558 704 587 687 b 669 599 635 646 655 624 b 703 525 684 574 696 549 b 719 459 711 501 717 479 b 724 414 722 439 724 424 b 714 369 724 394 720 379 b 688 346 707 358 699 350 b 653 338 678 341 666 338 b 617 336 641 337 629 336 z m 186 419 l 600 419 b 592 483 598 440 596 461 b 564 556 589 504 580 529 b 499 622 548 582 526 604 b 397 647 471 639 437 647 b 333 637 373 647 352 644 b 282 611 314 630 297 621 b 244 576 267 601 255 589 b 219 539 234 563 226 551 b 195 475 207 518 199 496 b 186 419 191 454 188 435 z m 392 940 l 329 860 b 310 835 322 850 316 841 b 296 822 305 829 300 825 b 281 815 291 818 286 816 b 260 814 275 814 268 814 l 214 814 b 201 817 208 814 204 815 b 196 825 198 819 196 821 b 205 842 196 829 199 834 b 219 861 211 850 216 856 l 275 932 b 307 972 288 949 299 962 b 331 995 315 982 323 990 b 358 1006 339 1000 348 1004 b 394 1008 367 1007 380 1008 b 427 1006 407 1008 418 1007 b 451 994 436 1004 444 1000 b 475 971 459 989 467 981 b 507 932 483 961 494 948 l 565 858 b 583 835 575 846 581 838 b 586 825 585 831 586 828 b 578 816 586 820 583 817 b 564 814 572 815 568 814 l 528 814 b 504 817 517 814 509 815 b 486 825 497 818 491 820 b 456 860 481 830 471 841 z "},"":{"ha":782,"x_min":0,"x_max":0,"o":"m 617 336 l 185 336 b 206 213 186 288 193 247 b 256 131 219 179 235 152 b 327 86 277 110 301 95 b 410 72 353 77 381 72 b 485 83 439 72 465 76 b 540 113 506 91 524 100 b 580 154 555 125 568 138 b 613 201 591 170 602 186 b 631 224 617 208 623 216 b 664 238 638 233 649 238 b 697 224 677 238 688 233 b 710 192 705 214 710 204 b 702 158 710 181 707 169 b 686 128 697 147 692 137 b 653 83 678 115 667 100 b 600 36 640 67 622 51 b 519 -1 578 21 551 9 b 404 -17 487 -12 449 -17 b 251 13 345 -17 294 -7 b 144 92 208 32 172 59 b 81 213 116 126 95 166 b 61 361 68 259 61 308 b 82 508 61 413 68 462 b 144 627 96 553 117 593 b 250 707 172 661 207 688 b 401 736 293 726 343 736 b 524 717 449 736 489 730 b 611 667 558 704 587 687 b 669 599 635 646 655 624 b 703 525 684 574 696 549 b 719 459 711 501 717 479 b 724 414 722 439 724 424 b 714 369 724 394 720 379 b 688 346 707 358 699 350 b 653 338 678 341 666 338 b 617 336 641 337 629 336 z m 186 419 l 600 419 b 592 483 598 440 596 461 b 564 556 589 504 580 529 b 499 622 548 582 526 604 b 397 647 471 639 437 647 b 333 637 373 647 352 644 b 282 611 314 630 297 621 b 244 576 267 601 255 589 b 219 539 234 563 226 551 b 195 475 207 518 199 496 b 186 419 191 454 188 435 z m 342 889 b 323 842 342 870 335 855 b 276 824 310 830 295 824 b 230 842 258 824 242 830 b 211 889 217 855 211 870 b 230 935 211 907 217 923 b 276 954 242 948 258 954 b 323 935 295 954 310 948 b 342 889 335 923 342 907 z m 571 889 b 552 842 571 870 565 855 b 506 824 540 830 524 824 b 459 842 487 824 472 830 b 440 889 447 855 440 870 b 459 935 440 907 447 923 b 506 954 472 948 487 954 b 552 935 524 954 540 948 b 571 889 565 923 571 907 z "},"":{"ha":333,"x_min":0,"x_max":0,"o":"m 228 638 l 228 82 b 226 41 228 63 227 49 b 222 22 225 33 224 27 b 199 -7 218 9 210 0 b 167 -17 189 -13 178 -17 b 132 -8 152 -17 140 -14 b 114 16 124 -2 118 6 b 107 48 110 26 108 36 b 106 82 106 59 106 71 l 106 638 b 108 688 106 659 106 675 b 122 718 110 700 115 710 b 168 736 134 730 150 736 b 202 728 184 736 195 733 b 219 708 209 722 215 716 b 227 676 224 701 227 690 b 228 638 228 663 228 650 z m 235 865 b 246 843 240 855 244 848 b 249 829 248 838 249 834 b 241 813 249 825 246 819 b 218 804 236 807 228 804 b 192 811 210 804 201 806 b 161 834 184 816 173 823 b 118 876 149 845 135 859 b 58 940 101 894 81 915 b 30 972 43 957 33 968 b 25 986 27 977 25 981 b 34 995 25 991 28 994 b 67 997 40 997 51 997 l 100 997 b 138 997 116 997 128 997 b 161 990 147 996 155 994 b 179 970 168 985 174 979 b 200 933 185 961 192 949 z "},"":{"ha":333,"x_min":0,"x_max":0,"o":"m 228 638 l 228 82 b 226 41 228 63 227 49 b 222 22 225 33 224 27 b 199 -7 218 9 210 0 b 167 -17 189 -13 178 -17 b 132 -8 152 -17 140 -14 b 114 16 124 -2 118 6 b 107 48 110 26 108 36 b 106 82 106 59 106 71 l 106 638 b 108 688 106 659 106 675 b 122 718 110 700 115 710 b 168 736 134 730 150 736 b 202 728 184 736 195 733 b 219 708 209 722 215 716 b 227 676 224 701 227 690 b 228 638 228 663 228 650 z m 106 865 l 140 933 b 161 970 149 949 156 961 b 179 990 167 979 173 985 b 203 997 186 994 194 996 b 240 997 212 997 225 997 l 274 997 b 306 995 289 997 300 997 b 315 986 312 994 315 991 b 310 972 315 981 314 977 b 282 940 307 968 298 957 b 222 877 258 915 238 894 b 179 835 205 860 191 846 b 148 811 167 824 157 816 b 122 804 139 806 131 804 b 99 813 112 804 104 807 b 92 829 94 819 92 825 b 94 843 92 834 93 838 b 106 865 96 848 100 855 z "}}}
